<svg id="Layer_1" data-name="Layer 1" xmlns="http://www.w3.org/2000/svg" viewBox="0 0 361.7 340.76"><defs><style>.cls-1{fill:#eaeaea;}.cls-2,.cls-21{fill:#fff;}.cls-3{fill:#d3d3d3;}.cls-4{fill:#353535;}.cls-5{fill:#5a5b5c;}.cls-6{fill:#e8e8e8;}.cls-7{fill:#5b5b5b;}.cls-8{fill:#c9c9c9;}.cls-9{fill:#aaa;}.cls-10{fill:#a0a09f;}.cls-11{fill:silver;}.cls-12,.cls-21{opacity:0.2;}.cls-13{fill:#3a3b3d;}.cls-14{fill:#3b3d41;}.cls-15{fill:#7d7d7d;}.cls-16{fill:#ff5450;}.cls-17{fill:#ffcb38;}.cls-18{fill:#63d3d6;}.cls-19{fill:#ff718c;}.cls-20{fill:#6dc972;}.cls-22{opacity:0.15;}.cls-23{fill:#fdd4a6;}.cls-24{fill:#f0bc87;}.cls-25{fill:#fff2d9;}.cls-26{fill:#3d4756;}.cls-27{fill:#596273;}</style></defs><title>coding</title><path class="cls-1" d="M406.49,370.68A23.48,23.48,0,0,1,383,394.16h0a23.48,23.48,0,0,1-23.48-23.47v-40A23.47,23.47,0,0,1,383,307.24h0a23.48,23.48,0,0,1,23.49,23.47Z" transform="translate(-44.79 -109.24)"/><path class="cls-2" d="M364.05,371.21v-40a23.46,23.46,0,0,1,23.47-23.48l.48,0a23.46,23.46,0,0,0-28.47,22.94v40a23.46,23.46,0,0,0,23,23.45A23.47,23.47,0,0,1,364.05,371.21Z" transform="translate(-44.79 -109.24)"/><path class="cls-2" d="M383,307.24a23.47,23.47,0,0,0-23.47,23.48v.3l45.81,46.91a23.17,23.17,0,0,0,1.15-7.25v-40A23.48,23.48,0,0,0,383,307.24Z" transform="translate(-44.79 -109.24)"/><path class="cls-3" d="M386.41,331a3.32,3.32,0,0,1-3.32,3.32h0a3.32,3.32,0,0,1-3.32-3.32v-9.95a3.32,3.32,0,0,1,3.32-3.31h0a3.32,3.32,0,0,1,3.32,3.32Z" transform="translate(-44.79 -109.24)"/><path class="cls-4" d="M363.24,118c-7.46-4.27-311-4.27-318.45,0v.59C47.19,125.46,73.41,212,77.72,212h252.6c4.31,0,30.53-86.51,32.91-93.36Z" transform="translate(-44.79 -109.24)"/><path class="cls-5" d="M75.53,209c1,1.91,1.71,3,2.19,3h252.6c.48,0,1.23-1.08,2.19-3Z" transform="translate(-44.79 -109.24)"/><path class="cls-4" d="M363.24,118.56l-2.9.45-312.65-.38-2.9-.45v-6a2.9,2.9,0,0,1,2.89-2.91H360.34a2.89,2.89,0,0,1,2.89,2.91Z" transform="translate(-44.79 -109.24)"/><path class="cls-6" d="M338.44,386a8.13,8.13,0,0,1-8.13,8.12H77.72A8.14,8.14,0,0,1,69.59,386V220.09A8.13,8.13,0,0,1,77.72,212h252.6a8.11,8.11,0,0,1,8.12,8.12Z" transform="translate(-44.79 -109.24)"/><path class="cls-2" d="M338.44,382.54a8.13,8.13,0,0,1-8.13,8.12H77.72a8.14,8.14,0,0,1-8.13-8.13V220.09h0V386a8.14,8.14,0,0,0,8.13,8.13H330.31a8.13,8.13,0,0,0,8.13-8.12v-166h0Z" transform="translate(-44.79 -109.24)"/><polygon class="cls-7" points="37.13 89.96 13.22 13.57 305.23 13.57 281.32 89.96 37.13 89.96"/><path class="cls-8" d="M317.17,321a2.44,2.44,0,0,1-2.44,2.43H93.3A2.43,2.43,0,0,1,90.87,321V227.54a2.43,2.43,0,0,1,2.43-2.44H314.72a2.44,2.44,0,0,1,2.44,2.44Z" transform="translate(-44.79 -109.24)"/><path class="cls-9" d="M314.72,225.1H93.3a2.43,2.43,0,0,0-2.43,2.44v3.63a2.43,2.43,0,0,1,2.43-2.44H314.73a2.43,2.43,0,0,1,2.43,2.44v-3.63A2.44,2.44,0,0,0,314.72,225.1Z" transform="translate(-44.79 -109.24)"/><rect class="cls-10" x="126.42" y="281.41" width="64.78" height="3.51"/><path class="cls-11" d="M242.46,379.66a2.89,2.89,0,0,1-2.9,2.89H168.48a2.89,2.89,0,0,1-2.9-2.89V333.81a2.9,2.9,0,0,1,2.9-2.9h71.08a2.9,2.9,0,0,1,2.9,2.9Z" transform="translate(-44.79 -109.24)"/><path class="cls-10" d="M239.56,330.91H168.48a2.9,2.9,0,0,0-2.9,2.9v2.52a2.89,2.89,0,0,1,2.9-2.9h71.08a2.91,2.91,0,0,1,2.9,2.91v-2.52A2.9,2.9,0,0,0,239.56,330.91Z" transform="translate(-44.79 -109.24)"/><g class="cls-12"><path class="cls-2" d="M215.38,382.55h24.18a2.89,2.89,0,0,0,2.9-2.89V333.81a2.9,2.9,0,0,0-2.9-2.9H179.83Z" transform="translate(-44.79 -109.24)"/></g><rect class="cls-13" x="60.31" y="102.72" width="196.95" height="6.51"/><path class="cls-14" d="M118.64,270.36a1.16,1.16,0,0,1-1.16,1.17H99.21a1.16,1.16,0,0,1-1.16-1.17v-10.2A1.16,1.16,0,0,1,99.2,259h18.27a1.16,1.16,0,0,1,1.17,1.16Z" transform="translate(-44.79 -109.24)"/><path class="cls-14" d="M121.89,285.83a1.15,1.15,0,0,1-1.16,1.15H99.21a1.16,1.16,0,0,1-1.16-1.15v-10.2a1.17,1.17,0,0,1,1.16-1.17h21.52a1.16,1.16,0,0,1,1.16,1.17Z" transform="translate(-44.79 -109.24)"/><path class="cls-14" d="M129.69,301.3a1.16,1.16,0,0,1-1.16,1.17H99.21a1.16,1.16,0,0,1-1.16-1.17V291.11A1.15,1.15,0,0,1,99.2,290h29.33a1.17,1.17,0,0,1,1.16,1.17Z" transform="translate(-44.79 -109.24)"/><path class="cls-14" d="M310,285.83a1.16,1.16,0,0,1-1.17,1.15h-23a1.17,1.17,0,0,1-1.17-1.16V275.63a1.16,1.16,0,0,1,1.16-1.17h23a1.17,1.17,0,0,1,1.17,1.17Z" transform="translate(-44.79 -109.24)"/><path class="cls-14" d="M309.93,301.31a1.15,1.15,0,0,1-1.16,1.16H277.84a1.16,1.16,0,0,1-1.17-1.17V291.11a1.17,1.17,0,0,1,1.16-1.17h30.94a1.17,1.17,0,0,1,1.16,1.17Z" transform="translate(-44.79 -109.24)"/><path class="cls-14" d="M267.32,316.77a1.16,1.16,0,0,1-1.16,1.16H256a1.16,1.16,0,0,1-1.17-1.16v-10.2a1.16,1.16,0,0,1,1.16-1.16h10.2a1.16,1.16,0,0,1,1.17,1.16Z" transform="translate(-44.79 -109.24)"/><path class="cls-14" d="M110.56,316.77a1.16,1.16,0,0,1-1.16,1.16H99.2a1.15,1.15,0,0,1-1.15-1.16v-10.2a1.16,1.16,0,0,1,1.16-1.16H109.4a1.16,1.16,0,0,1,1.17,1.15Z" transform="translate(-44.79 -109.24)"/><path class="cls-14" d="M126.39,316.77a1.16,1.16,0,0,1-1.16,1.16H115a1.15,1.15,0,0,1-1.16-1.16V306.56a1.16,1.16,0,0,1,1.16-1.15h10.2a1.16,1.16,0,0,1,1.16,1.16Z" transform="translate(-44.79 -109.24)"/><path class="cls-14" d="M142.34,316.77a1.16,1.16,0,0,1-1.17,1.16H131a1.16,1.16,0,0,1-1.16-1.16v-10.2a1.16,1.16,0,0,1,1.17-1.16h10.19a1.16,1.16,0,0,1,1.17,1.16Z" transform="translate(-44.79 -109.24)"/><path class="cls-14" d="M162,316.77a1.16,1.16,0,0,1-1.16,1.16h-14a1.16,1.16,0,0,1-1.16-1.16v-10.2a1.16,1.16,0,0,1,1.15-1.16h14a1.15,1.15,0,0,1,1.16,1.16Z" transform="translate(-44.79 -109.24)"/><path class="cls-14" d="M231.68,316.71a1.22,1.22,0,0,1-1.22,1.22H166.68a1.23,1.23,0,0,1-1.23-1.21v-10.1a1.22,1.22,0,0,1,1.23-1.21h63.78a1.22,1.22,0,0,1,1.22,1.21Z" transform="translate(-44.79 -109.24)"/><path class="cls-14" d="M251.38,316.77a1.18,1.18,0,0,1-1.17,1.16h-14a1.17,1.17,0,0,1-1.17-1.16V306.56a1.15,1.15,0,0,1,1.16-1.15h14a1.17,1.17,0,0,1,1.17,1.15Z" transform="translate(-44.79 -109.24)"/><path class="cls-14" d="M110.57,254.9a1.18,1.18,0,0,1-1.17,1.17H99.21a1.16,1.16,0,0,1-1.16-1.16V244.7a1.16,1.16,0,0,1,1.17-1.16H109.4a1.16,1.16,0,0,1,1.17,1.16Z" transform="translate(-44.79 -109.24)"/><path class="cls-14" d="M126.52,254.9a1.17,1.17,0,0,1-1.17,1.16h-10.2a1.16,1.16,0,0,1-1.16-1.17V244.7a1.16,1.16,0,0,1,1.16-1.16h10.2a1.18,1.18,0,0,1,1.17,1.16Z" transform="translate(-44.79 -109.24)"/><path class="cls-14" d="M142.46,254.9a1.16,1.16,0,0,1-1.17,1.16H131.1a1.16,1.16,0,0,1-1.17-1.17V244.7a1.16,1.16,0,0,1,1.16-1.16h10.2a1.16,1.16,0,0,1,1.17,1.16Z" transform="translate(-44.79 -109.24)"/><path class="cls-14" d="M158.4,254.9a1.16,1.16,0,0,1-1.17,1.16H147a1.17,1.17,0,0,1-1.17-1.17V244.7a1.17,1.17,0,0,1,1.16-1.16h10.2a1.16,1.16,0,0,1,1.17,1.16Z" transform="translate(-44.79 -109.24)"/><path class="cls-14" d="M174.34,254.89a1.16,1.16,0,0,1-1.16,1.17H163a1.16,1.16,0,0,1-1.16-1.16V244.7a1.16,1.16,0,0,1,1.16-1.16h10.2a1.16,1.16,0,0,1,1.16,1.16Z" transform="translate(-44.79 -109.24)"/><path class="cls-14" d="M190.28,254.9a1.16,1.16,0,0,1-1.16,1.16H178.93a1.16,1.16,0,0,1-1.17-1.16V244.7a1.16,1.16,0,0,1,1.17-1.16h10.19a1.15,1.15,0,0,1,1.16,1.16Z" transform="translate(-44.79 -109.24)"/><path class="cls-14" d="M206.23,254.9a1.16,1.16,0,0,1-1.16,1.16h-10.2a1.17,1.17,0,0,1-1.17-1.17V244.7a1.17,1.17,0,0,1,1.17-1.16h10.19a1.16,1.16,0,0,1,1.17,1.16Z" transform="translate(-44.79 -109.24)"/><path class="cls-14" d="M222.17,254.9a1.15,1.15,0,0,1-1.16,1.16H210.82a1.16,1.16,0,0,1-1.17-1.16V244.7a1.16,1.16,0,0,1,1.17-1.16H221a1.16,1.16,0,0,1,1.17,1.16Z" transform="translate(-44.79 -109.24)"/><path class="cls-14" d="M238.11,254.9a1.15,1.15,0,0,1-1.16,1.16H226.76a1.16,1.16,0,0,1-1.17-1.16V244.7a1.16,1.16,0,0,1,1.17-1.16H237a1.16,1.16,0,0,1,1.17,1.16Z" transform="translate(-44.79 -109.24)"/><path class="cls-14" d="M254.07,254.9a1.18,1.18,0,0,1-1.17,1.16H242.7a1.16,1.16,0,0,1-1.16-1.17V244.7a1.16,1.16,0,0,1,1.16-1.16h10.2a1.17,1.17,0,0,1,1.17,1.16Z" transform="translate(-44.79 -109.24)"/><path class="cls-14" d="M270,254.9a1.18,1.18,0,0,1-1.17,1.16H258.65a1.16,1.16,0,0,1-1.17-1.16V244.7a1.16,1.16,0,0,1,1.17-1.16h10.2A1.19,1.19,0,0,1,270,244.7Z" transform="translate(-44.79 -109.24)"/><path class="cls-14" d="M286,254.9a1.16,1.16,0,0,1-1.16,1.16H274.58a1.17,1.17,0,0,1-1.16-1.16V244.7a1.17,1.17,0,0,1,1.17-1.16h10.2A1.16,1.16,0,0,1,286,244.7Z" transform="translate(-44.79 -109.24)"/><path class="cls-14" d="M309.93,254.9a1.15,1.15,0,0,1-1.16,1.16H289.9a1.16,1.16,0,0,1-1.16-1.16V244.7a1.16,1.16,0,0,1,1.16-1.16h18.87a1.16,1.16,0,0,1,1.16,1.16Z" transform="translate(-44.79 -109.24)"/><path class="cls-14" d="M281.6,316.58a1.21,1.21,0,0,1-1.21,1.21H271.8a1.21,1.21,0,0,1-1.22-1.21v-5a1.21,1.21,0,0,1,1.22-1.22h8.59a1.21,1.21,0,0,1,1.21,1.22Z" transform="translate(-44.79 -109.24)"/><path class="cls-14" d="M295.59,305.41H285a1.21,1.21,0,0,0-1.22,1.21v10a1.22,1.22,0,0,0,1.22,1.21h10.58a1.22,1.22,0,0,0,1.22-1.22v-9.95A1.22,1.22,0,0,0,295.59,305.41Z" transform="translate(-44.79 -109.24)"/><path class="cls-14" d="M310,316.58a1.21,1.21,0,0,1-1.22,1.21h-8.59a1.22,1.22,0,0,1-1.22-1.22v-5a1.21,1.21,0,0,1,1.21-1.21h8.59a1.22,1.22,0,0,1,1.22,1.22Z" transform="translate(-44.79 -109.24)"/><path class="cls-14" d="M110.56,316.77a1.16,1.16,0,0,1-1.16,1.16H99.2a1.15,1.15,0,0,1-1.15-1.16v-10.2a1.16,1.16,0,0,1,1.16-1.16H109.4a1.16,1.16,0,0,1,1.17,1.15Z" transform="translate(-44.79 -109.24)"/><path class="cls-14" d="M145.64,301.3a1.17,1.17,0,0,1-1.17,1.17h-10.2a1.16,1.16,0,0,1-1.16-1.17V291.11a1.16,1.16,0,0,1,1.16-1.17h10.2a1.18,1.18,0,0,1,1.17,1.17Z" transform="translate(-44.79 -109.24)"/><path class="cls-14" d="M161.58,301.3a1.16,1.16,0,0,1-1.16,1.17h-10.2a1.17,1.17,0,0,1-1.17-1.17V291.11a1.17,1.17,0,0,1,1.17-1.17h10.19a1.17,1.17,0,0,1,1.17,1.17Z" transform="translate(-44.79 -109.24)"/><path class="cls-14" d="M177.52,301.31a1.15,1.15,0,0,1-1.16,1.16h-10.2A1.16,1.16,0,0,1,165,301.3V291.11a1.17,1.17,0,0,1,1.16-1.17h10.2a1.16,1.16,0,0,1,1.16,1.17Z" transform="translate(-44.79 -109.24)"/><path class="cls-14" d="M193.46,301.31a1.15,1.15,0,0,1-1.16,1.16H182.1a1.16,1.16,0,0,1-1.16-1.17V291.11A1.15,1.15,0,0,1,182.1,290h10.2a1.18,1.18,0,0,1,1.17,1.17Z" transform="translate(-44.79 -109.24)"/><path class="cls-14" d="M209.41,301.3a1.17,1.17,0,0,1-1.17,1.17H198.05a1.16,1.16,0,0,1-1.16-1.17V291.11a1.17,1.17,0,0,1,1.16-1.17h10.19a1.16,1.16,0,0,1,1.17,1.16Z" transform="translate(-44.79 -109.24)"/><path class="cls-14" d="M225.35,301.3a1.16,1.16,0,0,1-1.16,1.17H214a1.16,1.16,0,0,1-1.16-1.17V291.11A1.15,1.15,0,0,1,214,290h10.2a1.16,1.16,0,0,1,1.16,1.17Z" transform="translate(-44.79 -109.24)"/><path class="cls-14" d="M241.29,301.3a1.16,1.16,0,0,1-1.16,1.17h-10.2a1.16,1.16,0,0,1-1.16-1.17V291.11a1.17,1.17,0,0,1,1.16-1.17h10.2a1.16,1.16,0,0,1,1.16,1.17Z" transform="translate(-44.79 -109.24)"/><path class="cls-14" d="M257.24,301.3a1.16,1.16,0,0,1-1.16,1.17h-10.2a1.16,1.16,0,0,1-1.16-1.17V291.11a1.15,1.15,0,0,1,1.16-1.16h10.19a1.17,1.17,0,0,1,1.17,1.17Z" transform="translate(-44.79 -109.24)"/><path class="cls-14" d="M273.19,301.3a1.17,1.17,0,0,1-1.17,1.17h-10.2a1.16,1.16,0,0,1-1.16-1.17V291.11a1.17,1.17,0,0,1,1.17-1.17H272a1.16,1.16,0,0,1,1.17,1.16Z" transform="translate(-44.79 -109.24)"/><path class="cls-14" d="M111.15,239.34a1.26,1.26,0,0,1-1.27,1.26H99.3a1.25,1.25,0,0,1-1.25-1.26v-4.67a1.26,1.26,0,0,1,1.25-1.26h10.59a1.26,1.26,0,0,1,1.26,1.26Z" transform="translate(-44.79 -109.24)"/><path class="cls-14" d="M129.22,239.34A1.25,1.25,0,0,1,128,240.6H117.38a1.25,1.25,0,0,1-1.26-1.26v-4.67a1.26,1.26,0,0,1,1.25-1.26H128a1.26,1.26,0,0,1,1.26,1.26Z" transform="translate(-44.79 -109.24)"/><path class="cls-14" d="M147.29,239.34A1.25,1.25,0,0,1,146,240.6H135.45a1.25,1.25,0,0,1-1.26-1.26v-4.67a1.26,1.26,0,0,1,1.26-1.26H146a1.27,1.27,0,0,1,1.27,1.26Z" transform="translate(-44.79 -109.24)"/><path class="cls-14" d="M165.36,239.34a1.25,1.25,0,0,1-1.26,1.26H153.52a1.25,1.25,0,0,1-1.26-1.26v-4.67a1.28,1.28,0,0,1,1.27-1.26h10.59a1.26,1.26,0,0,1,1.25,1.26Z" transform="translate(-44.79 -109.24)"/><path class="cls-14" d="M183.43,239.34a1.25,1.25,0,0,1-1.26,1.26H171.58a1.25,1.25,0,0,1-1.25-1.26v-4.67a1.26,1.26,0,0,1,1.26-1.26h10.58a1.27,1.27,0,0,1,1.27,1.26Z" transform="translate(-44.79 -109.24)"/><path class="cls-14" d="M201.51,239.34a1.26,1.26,0,0,1-1.27,1.26H189.66a1.25,1.25,0,0,1-1.26-1.26v-4.67a1.27,1.27,0,0,1,1.26-1.26h10.58a1.25,1.25,0,0,1,1.26,1.26Z" transform="translate(-44.79 -109.24)"/><path class="cls-14" d="M219.58,239.34a1.25,1.25,0,0,1-1.26,1.26H207.73a1.26,1.26,0,0,1-1.26-1.26v-4.67a1.25,1.25,0,0,1,1.26-1.26h10.58a1.26,1.26,0,0,1,1.26,1.26Z" transform="translate(-44.79 -109.24)"/><path class="cls-14" d="M237.65,239.34a1.26,1.26,0,0,1-1.26,1.26H225.8a1.25,1.25,0,0,1-1.25-1.26v-4.67a1.26,1.26,0,0,1,1.25-1.26h10.59a1.27,1.27,0,0,1,1.26,1.26Z" transform="translate(-44.79 -109.24)"/><path class="cls-14" d="M255.72,239.34a1.25,1.25,0,0,1-1.26,1.26H243.88a1.25,1.25,0,0,1-1.26-1.26v-4.67a1.27,1.27,0,0,1,1.26-1.26h10.58a1.26,1.26,0,0,1,1.26,1.27Z" transform="translate(-44.79 -109.24)"/><path class="cls-14" d="M273.8,239.34a1.25,1.25,0,0,1-1.26,1.26H262a1.24,1.24,0,0,1-1.25-1.26v-4.67a1.26,1.26,0,0,1,1.26-1.26h10.58a1.27,1.27,0,0,1,1.27,1.26Z" transform="translate(-44.79 -109.24)"/><path class="cls-14" d="M291.87,239.34a1.26,1.26,0,0,1-1.26,1.26H280a1.25,1.25,0,0,1-1.26-1.26v-4.67a1.27,1.27,0,0,1,1.26-1.26h10.59a1.27,1.27,0,0,1,1.26,1.26Z" transform="translate(-44.79 -109.24)"/><path class="cls-14" d="M309.93,239.34a1.25,1.25,0,0,1-1.25,1.26H298.09a1.26,1.26,0,0,1-1.26-1.26v-4.67a1.27,1.27,0,0,1,1.26-1.26h10.59a1.27,1.27,0,0,1,1.26,1.26Z" transform="translate(-44.79 -109.24)"/><path class="cls-14" d="M134.55,270.36a1.16,1.16,0,0,1-1.16,1.17h-10.2a1.16,1.16,0,0,1-1.16-1.17v-10.2a1.17,1.17,0,0,1,1.16-1.16h10.2a1.16,1.16,0,0,1,1.17,1.16Z" transform="translate(-44.79 -109.24)"/><path class="cls-14" d="M150.5,270.36a1.17,1.17,0,0,1-1.17,1.17H139.14a1.15,1.15,0,0,1-1.16-1.17v-10.2a1.16,1.16,0,0,1,1.17-1.16h10.2a1.16,1.16,0,0,1,1.16,1.16Z" transform="translate(-44.79 -109.24)"/><path class="cls-14" d="M166.44,270.36a1.16,1.16,0,0,1-1.16,1.17h-10.2a1.16,1.16,0,0,1-1.16-1.17v-10.2a1.16,1.16,0,0,1,1.16-1.16h10.2a1.17,1.17,0,0,1,1.16,1.16Z" transform="translate(-44.79 -109.24)"/><path class="cls-14" d="M182.38,270.36a1.15,1.15,0,0,1-1.16,1.17H171a1.16,1.16,0,0,1-1.16-1.17v-10.2A1.16,1.16,0,0,1,171,259h10.2a1.15,1.15,0,0,1,1.16,1.16Z" transform="translate(-44.79 -109.24)"/><path class="cls-14" d="M198.33,270.36a1.16,1.16,0,0,1-1.16,1.17H187a1.17,1.17,0,0,1-1.17-1.17v-10.2A1.17,1.17,0,0,1,187,259h10.21a1.16,1.16,0,0,1,1.16,1.16Z" transform="translate(-44.79 -109.24)"/><path class="cls-14" d="M214.28,270.36a1.17,1.17,0,0,1-1.17,1.17h-10.2a1.16,1.16,0,0,1-1.16-1.17v-10.2a1.16,1.16,0,0,1,1.16-1.16h10.2a1.17,1.17,0,0,1,1.17,1.16Z" transform="translate(-44.79 -109.24)"/><path class="cls-14" d="M230.22,270.36a1.16,1.16,0,0,1-1.16,1.17h-10.2a1.16,1.16,0,0,1-1.16-1.17v-10.2a1.16,1.16,0,0,1,1.16-1.16h10.19a1.16,1.16,0,0,1,1.17,1.16Z" transform="translate(-44.79 -109.24)"/><path class="cls-14" d="M246.16,270.36a1.17,1.17,0,0,1-1.17,1.17H234.8a1.16,1.16,0,0,1-1.16-1.17v-10.2A1.16,1.16,0,0,1,234.8,259H245a1.18,1.18,0,0,1,1.17,1.16Z" transform="translate(-44.79 -109.24)"/><path class="cls-14" d="M262.11,270.36a1.17,1.17,0,0,1-1.17,1.17H250.75a1.15,1.15,0,0,1-1.16-1.17v-10.2a1.16,1.16,0,0,1,1.17-1.16h10.19a1.17,1.17,0,0,1,1.17,1.16Z" transform="translate(-44.79 -109.24)"/><path class="cls-14" d="M278.05,270.36a1.16,1.16,0,0,1-1.16,1.17h-10.2a1.17,1.17,0,0,1-1.17-1.17v-10.2a1.17,1.17,0,0,1,1.17-1.16h10.2a1.15,1.15,0,0,1,1.15,1.16Z" transform="translate(-44.79 -109.24)"/><path class="cls-14" d="M294,270.36a1.16,1.16,0,0,1-1.16,1.17h-10.2a1.16,1.16,0,0,1-1.16-1.17v-10.2a1.16,1.16,0,0,1,1.16-1.16h10.2a1.15,1.15,0,0,1,1.16,1.16Z" transform="translate(-44.79 -109.24)"/><path class="cls-14" d="M309.93,270.36a1.16,1.16,0,0,1-1.16,1.17H298.58a1.17,1.17,0,0,1-1.17-1.17v-10.2a1.16,1.16,0,0,1,1.16-1.16h10.2a1.15,1.15,0,0,1,1.16,1.16Z" transform="translate(-44.79 -109.24)"/><path class="cls-14" d="M137.8,285.83a1.15,1.15,0,0,1-1.16,1.15H126.45a1.16,1.16,0,0,1-1.16-1.16V275.63a1.16,1.16,0,0,1,1.16-1.17h10.2a1.17,1.17,0,0,1,1.16,1.17Z" transform="translate(-44.79 -109.24)"/><path class="cls-14" d="M153.75,285.82a1.15,1.15,0,0,1-1.16,1.16H142.4a1.16,1.16,0,0,1-1.17-1.16V275.63a1.17,1.17,0,0,1,1.17-1.17h10.19a1.16,1.16,0,0,1,1.16,1.17Z" transform="translate(-44.79 -109.24)"/><path class="cls-14" d="M169.69,285.83a1.15,1.15,0,0,1-1.15,1.15h-10.2a1.17,1.17,0,0,1-1.17-1.15v-10.2a1.17,1.17,0,0,1,1.17-1.17h10.2a1.17,1.17,0,0,1,1.15,1.17Z" transform="translate(-44.79 -109.24)"/><path class="cls-14" d="M185.64,285.83a1.18,1.18,0,0,1-1.17,1.16H174.28a1.17,1.17,0,0,1-1.16-1.16v-10.2a1.16,1.16,0,0,1,1.16-1.17h10.19a1.17,1.17,0,0,1,1.17,1.17Z" transform="translate(-44.79 -109.24)"/><path class="cls-14" d="M201.59,285.83a1.17,1.17,0,0,1-1.17,1.15h-10.2a1.16,1.16,0,0,1-1.16-1.16V275.63a1.16,1.16,0,0,1,1.16-1.17h10.2a1.17,1.17,0,0,1,1.17,1.17Z" transform="translate(-44.79 -109.24)"/><path class="cls-14" d="M217.53,285.82a1.16,1.16,0,0,1-1.16,1.16h-10.2a1.16,1.16,0,0,1-1.16-1.15v-10.2a1.17,1.17,0,0,1,1.16-1.17h10.19a1.17,1.17,0,0,1,1.17,1.17Z" transform="translate(-44.79 -109.24)"/><path class="cls-14" d="M233.47,285.83a1.17,1.17,0,0,1-1.16,1.16h-10.2a1.16,1.16,0,0,1-1.16-1.16v-10.2a1.17,1.17,0,0,1,1.16-1.17h10.2a1.16,1.16,0,0,1,1.16,1.17Z" transform="translate(-44.79 -109.24)"/><path class="cls-14" d="M249.42,285.83a1.16,1.16,0,0,1-1.17,1.15h-10.2a1.16,1.16,0,0,1-1.16-1.16V275.63a1.16,1.16,0,0,1,1.16-1.17h10.2a1.18,1.18,0,0,1,1.17,1.17Z" transform="translate(-44.79 -109.24)"/><path class="cls-14" d="M265.36,285.82A1.16,1.16,0,0,1,264.2,287H254a1.17,1.17,0,0,1-1.17-1.16V275.63a1.17,1.17,0,0,1,1.16-1.17h10.2a1.17,1.17,0,0,1,1.17,1.17Z" transform="translate(-44.79 -109.24)"/><path class="cls-14" d="M281.3,285.83a1.16,1.16,0,0,1-1.16,1.15h-10.2a1.17,1.17,0,0,1-1.17-1.15v-10.2a1.18,1.18,0,0,1,1.18-1.17h10.19a1.16,1.16,0,0,1,1.16,1.17Z" transform="translate(-44.79 -109.24)"/><rect class="cls-15" x="126.42" y="279.46" width="64.78" height="1.95"/><path class="cls-16" d="M206.49,118.41c0,1-1.1,1.82-2.47,1.82s-2.48-.81-2.48-1.82,1.1-1.82,2.47-1.82S206.5,117.41,206.49,118.41Z" transform="translate(-44.79 -109.24)"/><path class="cls-2" d="M360.34,109.24H47.69a2.9,2.9,0,0,0-2.89,2.91v4.09a2.89,2.89,0,0,1,2.89-2.9H360.34a2.9,2.9,0,0,1,2.9,2.9v-4.09A2.89,2.89,0,0,0,360.34,109.24Z" transform="translate(-44.79 -109.24)"/><polygon class="cls-17" points="213.16 26.78 31.67 26.78 30.06 21.73 213.67 21.73 213.16 26.78"/><polygon class="cls-18" points="286.2 26.78 231.56 26.78 232.28 21.73 287.56 21.73 286.2 26.78"/><polygon class="cls-19" points="107.17 37.72 35.15 37.72 33.54 32.66 106.42 32.66 107.17 37.72"/><polygon class="cls-18" points="194.12 37.72 125.1 37.72 124.57 32.66 194.42 32.66 194.12 37.72"/><polygon class="cls-19" points="192.21 70.51 128.55 70.51 128.02 65.46 192.51 65.46 192.21 70.51"/><polygon class="cls-17" points="283.25 37.72 212.06 37.72 212.57 32.66 284.62 32.66 283.25 37.72"/><polygon class="cls-20" points="162.78 48.65 38.63 48.65 37.03 43.6 162.7 43.6 162.78 48.65"/><polygon class="cls-19" points="280.31 48.65 180.25 48.65 180.38 43.6 281.67 43.6 280.31 48.65"/><polygon class="cls-17" points="144.41 59.58 42.12 59.58 40.51 54.52 144.09 54.52 144.41 59.58"/><polygon class="cls-20" points="277.36 59.58 161.41 59.58 161.31 54.52 278.72 54.52 277.36 59.58"/><polygon class="cls-18" points="112.02 70.51 45.6 70.51 43.99 65.46 111.27 65.46 112.02 70.51"/><polygon class="cls-18" points="274.41 70.51 208.75 70.51 209.26 65.46 275.78 65.46 274.41 70.51"/><polygon class="cls-20" points="175.5 81.44 49.08 81.44 47.47 76.39 175.58 76.39 175.5 81.44"/><polygon class="cls-19" points="271.47 81.44 191.57 81.44 191.87 76.39 272.83 76.39 271.47 81.44"/><polygon class="cls-21" points="193.74 89.96 283.32 89.96 307.23 13.57 102.98 13.57 193.74 89.96"/><g class="cls-22"><path d="M205.16,333.45s-1.14-3.5-5.89-2a7.63,7.63,0,0,0-1.52.33,8.88,8.88,0,0,0-1.36.49l-.25.12-.32.15c-3,1.44-7.53,4.79-11.46,12.64,0,0-5.21,7.27-6,9.29a19.24,19.24,0,0,1-.75-8.06s.28-5.85-.24-7.61a35.23,35.23,0,0,1,.1-7.43l.44-11.12s.37-5.67.19-7.57c0,0-.93-9.32-.6-14,0,0,.41-9.49-6-9.91a2.83,2.83,0,0,0-.65.05h0a5.44,5.44,0,0,0-.59.17l-.28.12a4.61,4.61,0,0,0-2.24,2.05c-1,1.64-1.84,4.39-1.74,9.06,0,0,.08,2.16.09,4.75s-.21,5.9-.25,6.68c0,.13,0,.25,0,.37a17.79,17.79,0,0,0-.32,2.09,28.45,28.45,0,0,0-.38,5.67,1.15,1.15,0,0,0,0,.18l-1.67,11.65a1,1,0,0,1-.18.45,1.43,1.43,0,0,1-.19.26,2,2,0,0,1-.92.43c-1.38.06-1.76-2.66-1.76-2.66l0-.15q0-.22-.06-.48c0-.17,0-.35-.06-.56l-.32-6.49c-.05-1.12-.07-1.91-.07-1.91l-.12-1.85-.17-3.35-.29-5.89-.36-7.25h0l-.22-6.64v-.41c.08-1.09.09-2.27.08-3.32l0-.88s0-.43-.07-1.06l-.05-.85,0,.34c-.33-2.15-1.44-5.73-5.22-5.68a1.6,1.6,0,0,0-.23,0,4.22,4.22,0,0,0-.74.11h0s-4.89.36-4.44,7.66l.43,6.86-.54,10.5a36,36,0,0,0-.66,8.78l-.9,6.23a1.06,1.06,0,0,1,0-.17l-1.46-6.79-.38-4.11c0-.22-.07-.46-.09-.71,0-.89-.07-1.84-.08-2.83.08-3.41.56-7.29.56-7.29l.29-3,.21-1.79a9.49,9.49,0,0,0,.19-1.85,7.05,7.05,0,0,0-.53-3.1s0,.11.05.17c-.61-1.54-1.94-2.93-4.72-3.15,0,0-5.6-.07-5.66,6.67l-.51,9.23-1.3,10.61a31.42,31.42,0,0,0,.25,8.39s1.42,13.65.62,13.76c-.06-.11-.12-.25-.18-.38s-.28-.61-.5-1.17v0c0-.12-.11-.27-.15-.39-1.88-4.92-4.2-14.24-4.2-14.24l.23-3.79a20.67,20.67,0,0,0,.13-3.49c-.05-2.44-.7-5.94-3.86-6.54a4.55,4.55,0,0,0-3,.88l-.11.08-.07.06a2.18,2.18,0,0,0-.85,1.39c0,.12-.11.22-.15.36a.81.81,0,0,1,0,.09,4.5,4.5,0,0,0-.16.8c-.27,1.34-.76,3.74-.81,3.93,0,0-.71,3.92,0,6.44l.41,6.55a34.17,34.17,0,0,0,1.4,7.66l2.54,9.19s.85,9.37,1.32,11.12a72.2,72.2,0,0,1,1.14,10.59c.14,6.35-2.15,11.86-.64,18,.82,3.36,3.16,6,4.34,9.18h42.13a27.71,27.71,0,0,0,8.71-12l4.68-9.51a48.69,48.69,0,0,0,3-7.25,59.49,59.49,0,0,1,5.28-9.65l1.93-2.8h0l.09-.15,1.27-1.84a7.39,7.39,0,0,0,1-2.33h0l0-.18a4.25,4.25,0,0,0,.13-.88,11,11,0,0,1,2-3.89,1.44,1.44,0,0,0,.25-1.28,18,18,0,0,0,3.32-4.85c0-.05.05-.09.07-.13.14-.32.26-.67.38-1s.15-.4.22-.61.08-.39.13-.58a9.07,9.07,0,0,0,.24-1.06l0,0a.8.8,0,0,0,0-.15Z" transform="translate(-44.79 -109.24)"/><polygon points="260.37 284.92 260.36 284.8 259.01 284.92 260.37 284.92"/><path d="M304.71,319.76c-.93-3.55-3.22-4.53-3.22-4.53-2.52-1.3-7.35-1-7.35-1,.84-3.13-1.39-6.43-1.39-6.43l-3.12-5.08a47.17,47.17,0,0,0-5.35-7.76,8.75,8.75,0,0,0-3.64-2.7,9.14,9.14,0,0,0-1.92-1.36,4.39,4.39,0,0,0-6.22,1.48l-.14.22-.08.15c-.42-1.12-1.29-4.14-1.29-4.14a6.44,6.44,0,0,0-3.05-4.36,4.44,4.44,0,0,0-2.35-.83,4.27,4.27,0,0,0-2.3.49l-.07,0c-.08.06-.16.11-.24.18-4.93,3.07-.69,14-.69,14a42.77,42.77,0,0,0,1.88,7.28,11.16,11.16,0,0,1,.61,4.26c0,1.44-.3,10.25-.3,10.25a5.21,5.21,0,0,1-.16.9c-1.44,3.19-2.56,1.31-2.56,1.31a1.35,1.35,0,0,1-.31-.38,17.42,17.42,0,0,1-1-5.56c-.06-1.56,0-2.81,0-2.81a28,28,0,0,0-.17-2.91c-.16-2-.4-3.77-.52-4.56-.16-1.25-.29-2.14-.29-2.14-.37-4-.16-10.3-.16-10.3a13.29,13.29,0,0,0,.11-1.8,18,18,0,0,0-.76-6.21c-.08-.35-.14-.59-.14-.59a1,1,0,0,1,0,.17v0a.13.13,0,0,1,0,0,5.73,5.73,0,0,0-.33-.81,8.81,8.81,0,0,0-.4-.81,4.59,4.59,0,0,0-5.47-2.19c-4.66,2.69-3.51,11.63-3.51,11.63.39,4.29-1.33,15.25-1.33,15.25a88.85,88.85,0,0,0-.13,14.23c.52,1.94-.14,6.81-.14,6.81l-1,12-.11-.13v-.11l-1.12-1.3c-.16-1.48-2.64-7-3.83-9.61,0-.1-.08-.17-.12-.27l-.13-.27-.38-.83c1.7-5.61.94-9.72-.38-12.55-.1-.24-.21-.46-.32-.68a.67.67,0,0,1-.06-.12,11.2,11.2,0,0,0-2.29-3,9.56,9.56,0,0,0-1.08-.93c-2-1.55-3.33-.26-3.7.22h0l0,0-.08.13,0,0a9.8,9.8,0,0,0-1.78,4.39c0,.25-.07.49-.1.73s-.07.46-.09.68,0,.46,0,.7a20.33,20.33,0,0,0,0,2.72.71.71,0,0,0-.54.75,18.14,18.14,0,0,1-.85,3.75c-2.71,3.17-.43,7.14-.43,7.14l.78,2.27c2.23,4.54,3.54,14.26,3.54,14.26-.41,2.84,2.48,6,2.48,6l4.2,7.74a39.2,39.2,0,0,0,5.75,8.65c1.8,1.47,5.32,7.14,5.32,7.14l4.16,7-6.53.6.73,7.92h52L299,391l-.86-9.37-5.06.46L292,380.38a83.67,83.67,0,0,0-2.75-8.62l-.41-3c-.21-4.56,7.21-19.46,7.21-19.46l9.44-13.73c4.18-4,2.2-7.56,2.2-7.56C307.51,326.81,304.71,319.76,304.71,319.76Zm-26,4.27c-.05.28-.1.51,0-.47a.15.15,0,0,0,0-.07Zm1.77-10.43-1.69,9.5v.08c.06-2.61.3-14.37-.15-16.68l1.86,5.24A3.9,3.9,0,0,1,280.5,313.6Zm13,17.4a6.18,6.18,0,0,0-.39,1.05l-1.33-.32,1.4-9.29a5.32,5.32,0,0,0,1.89.56,9.77,9.77,0,0,0,.63,3.14,6.2,6.2,0,0,0,.84,1.71A5.93,5.93,0,0,0,293.48,331Z" transform="translate(-44.79 -109.24)"/></g><path class="cls-23" d="M158.51,418.84a36.88,36.88,0,0,1,8.75-22.76,27.45,27.45,0,0,0,9-12.21l4.68-9.51a49.22,49.22,0,0,0,3-7.25,59.4,59.4,0,0,1,5.28-9.66l3.3-4.77a6.58,6.58,0,0,0,1.2-3.4,11,11,0,0,1,2-3.89,1.42,1.42,0,0,0,.25-1.27s3.79-3.68,4.37-8.42l-.28-.56s-1.14-3.5-5.89-2c0,0-8.29.52-14.91,13.73,0,0-5.21,7.27-6,9.29a19.21,19.21,0,0,1-.75-8.05s.28-5.86-.24-7.61a35.32,35.32,0,0,1,.1-7.44l.44-11.12s.37-5.66.19-7.57c0,0-.93-9.32-.6-14,0,0,.41-9.48-6-9.91,0,0-5.81-.57-5.54,11.44,0,0,.34,9.08-.29,12.34a37.83,37.83,0,0,0-.62,7.32l-1.68,11.73a1.44,1.44,0,0,1-1.68,1.15s-1.21-.25-1.5-3.58l-.7-13.88-.29-5.89-.62-12.33.15-6.17s0-8.2-6.33-7.17c0,0-4.89.37-4.44,7.67l.43,6.85-.54,10.5a36.1,36.1,0,0,0-.66,8.79l-.92,6.31L140,320.42a54.77,54.77,0,0,1-.6-14.35l.83-7.3s1.75-7.38-5-7.93c0,0-5.6-.06-5.66,6.68l-.51,9.23-1.3,10.61a31.35,31.35,0,0,0,.25,8.38s1.42,13.65.62,13.77c0,0-1.83-3.54-4-12.12a26.15,26.15,0,0,1-1-4.09l.24-4.84s1.21-8-3.74-9c0,0-3.35-.37-4.17,2.76,0,0-.92,4.57-1,4.82,0,0-.71,3.93,0,6.44l.41,6.55a34.08,34.08,0,0,0,1.4,7.66l2.54,9.19s.86,9.38,1.32,11.13a72,72,0,0,1,1.14,10.59c.14,6.35-2.15,11.85-.64,18,1.32,5.38,6.5,8.9,4.65,15.8-1.33,4.94-4.64,10.28-5.56,15.29-.24,1.31-.49,2.63-.74,3.94Z" transform="translate(-44.79 -109.24)"/><path class="cls-24" d="M192.74,333.47s-7.41,1.57-13.32,13.21c0,0-4.81,6.91-6.14,9.51,0,0,4.33,8.2,2.43,15,0,0,2.94-8,1.26-13.44,0,0-.81-1.44,1.16-5.11l3.51-4.84S186.15,336.93,192.74,333.47Z" transform="translate(-44.79 -109.24)"/><path class="cls-24" d="M191.61,353.9a9.72,9.72,0,0,1-4.7-4.21s.62,2.63,4.26,5Z" transform="translate(-44.79 -109.24)"/><path class="cls-24" d="M193.64,349.68a9.21,9.21,0,0,0-4.85-.42s3.77-.08,4.79,1.09Z" transform="translate(-44.79 -109.24)"/><path class="cls-24" d="M189.57,356.94s-2.48-.07-4.65-5.08a8.63,8.63,0,0,0,4.31,5.59Z" transform="translate(-44.79 -109.24)"/><path class="cls-24" d="M153.54,290.69a53.75,53.75,0,0,1,0,6.35l.22,6.8.44,10.88.5,7.47s.26,8.45.54,9.58c0,0,.38,2.73,1.76,2.67,0,0,1.2-.13,1.29-1.15L160,322s.22-6.58.76-8.45c0,0,.37-7.64.27-9.49l.64,9.38s-.24,8.3-.18,8.63l-1.86,12.15s-1.45,16.05-5.62-1.59l-1.29-10.68.14-7.27-.33-10.78Z" transform="translate(-44.79 -109.24)"/><path class="cls-24" d="M162,322.15s4.8,2,8.59.45A16,16,0,0,1,162,322.15Z" transform="translate(-44.79 -109.24)"/><path class="cls-24" d="M162.44,317.18s5-2.84,8.82,1.14A9.18,9.18,0,0,0,162.44,317.18Z" transform="translate(-44.79 -109.24)"/><path class="cls-24" d="M162.36,320.17s5.6,2.8,8.67.38C171,320.55,168.94,322.38,162.36,320.17Z" transform="translate(-44.79 -109.24)"/><path class="cls-24" d="M143.51,319.58a18.8,18.8,0,0,0,7.05.75S146.43,321.32,143.51,319.58Z" transform="translate(-44.79 -109.24)"/><path class="cls-24" d="M143.86,317.41s5.93,1.84,8.3.26C152.16,317.67,149.34,318.49,143.86,317.41Z" transform="translate(-44.79 -109.24)"/><path class="cls-24" d="M143.86,314.17c-.43,0,4.64-1.63,8.17.64C152,314.81,149.8,313.59,143.86,314.17Z" transform="translate(-44.79 -109.24)"/><path class="cls-24" d="M139.91,293.82a7.4,7.4,0,0,1,.33,4.7l-.49,5s-.95,7.55-.39,10.83l.38,4.12,1.46,6.79s1.62,12.29-2.93,15.06c0,0,1.79-4.1-.29-16.17a29.74,29.74,0,0,1-.72-9.86l1.33-10.46S140.63,295.24,139.91,293.82Z" transform="translate(-44.79 -109.24)"/><path class="cls-24" d="M129.42,325s5,1.73,7-1.68C136.4,323.3,134.83,325.88,129.42,325Z" transform="translate(-44.79 -109.24)"/><path class="cls-24" d="M129.05,321.43s3.72,1.38,5.94-.58C135,320.85,133.11,321.91,129.05,321.43Z" transform="translate(-44.79 -109.24)"/><path class="cls-24" d="M128.22,319.16s5.42-2.09,7.73,0C136,319.18,133,316.13,128.22,319.16Z" transform="translate(-44.79 -109.24)"/><path class="cls-24" d="M123.17,312.09s1.26,2.39.66,7.42l-.23,3.79s3.11,12.52,5,16.21c0,0,.53,6.2-2.27,7.72,0,0,.84-3.58-.85-9.39l-3.51-14S123.83,316.08,123.17,312.09Z" transform="translate(-44.79 -109.24)"/><path class="cls-24" d="M116.73,337.29s3.34-.36,4.15-2.42C120.88,334.87,119.36,338.52,116.73,337.29Z" transform="translate(-44.79 -109.24)"/><path class="cls-24" d="M116.4,334.58s2.61-.06,3.86-1.27C120.26,333.31,118,335.74,116.4,334.58Z" transform="translate(-44.79 -109.24)"/><path class="cls-24" d="M115.71,332.12s1.08-1.45,3.92-.61A6.19,6.19,0,0,0,115.71,332.12Z" transform="translate(-44.79 -109.24)"/><path class="cls-25" d="M196,344.12a16.48,16.48,0,0,0,4.36-8.24s-1.6-2-6.11,2.43C194.2,338.31,190.86,341.46,196,344.12Z" transform="translate(-44.79 -109.24)"/><path class="cls-25" d="M165.74,290.51A4.72,4.72,0,0,0,162,295s-.45,2.27,3.26,1.8c0,0,4.91.27,4.66-2.9C169.93,293.91,169.75,290.52,165.74,290.51Z" transform="translate(-44.79 -109.24)"/><path class="cls-25" d="M148.07,285.31a3.93,3.93,0,0,0-3.8,4.76s-.39,1.41,3.44,1.35c0,0,4.47,0,4.12-2.66A3.57,3.57,0,0,0,148.07,285.31Z" transform="translate(-44.79 -109.24)"/><path class="cls-25" d="M135.1,291.18a3.78,3.78,0,0,0-3.65,4.57s-.38,1.36,3.3,1.3c0,0,4.3,0,4-2.56A3.44,3.44,0,0,0,135.1,291.18Z" transform="translate(-44.79 -109.24)"/><path class="cls-25" d="M118.7,310.17a2.13,2.13,0,0,0-2.65,1.8s-1.34,2.89,1.43,3c0,0,2.78.49,3-1.75C120.47,313.26,121.18,310.48,118.7,310.17Z" transform="translate(-44.79 -109.24)"/><rect class="cls-2" x="137.69" y="380.29" width="12.99" height="53.49" transform="translate(-316.58 413.73) rotate(-86.07)"/><polygon class="cls-26" points="134.75 340.76 137.28 304.5 63.56 299.47 60.7 340.76 134.75 340.76"/><polygon class="cls-27" points="134.75 340.76 137.28 304.5 100.43 301.99 97.72 340.76 134.75 340.76"/><path class="cls-23" d="M286.86,382.06a81.61,81.61,0,0,0-2.75-8.61l-.41-3c-.21-4.57,7.21-19.46,7.21-19.46l9.44-13.74c4.18-4,2.2-7.55,2.2-7.55-.16-1.22-3-8.28-3-8.28-.93-3.54-3.22-4.52-3.22-4.52-2.52-1.31-7.35-1-7.35-1,.84-3.13-1.39-6.43-1.39-6.43l-3.12-5.09a47.17,47.17,0,0,0-5.35-7.76,8.75,8.75,0,0,0-3.64-2.7c-5.66-5-8.36.5-8.36.5-.42-1.12-1.29-4.15-1.29-4.15-1.45-5.81-6.52-5.12-6.52-5.12-7.23,1.68-2.18,14.63-2.18,14.63a43,43,0,0,0,1.88,7.29,11.09,11.09,0,0,1,.61,4.25c0,1.45-.3,10.26-.3,10.26-.32,3-2.05,2.81-2.05,2.81-2.09-.39-2-8.65-2-8.65a55.51,55.51,0,0,0-.74-8.65c-.66-3.78-.43-11.66-.43-11.66.9-6.67-1.47-10.44-1.47-10.44a4.59,4.59,0,0,0-5.47-2.19c-4.66,2.68-3.51,11.62-3.51,11.62.39,4.3-1.33,15.26-1.33,15.26a88.71,88.71,0,0,0-.13,14.22c.52,2-.14,6.81-.14,6.81l-1,12-1.22-1.55c-.21-2-4.46-11-4.46-11,3.26-11.75-3.33-16.63-3.33-16.63-2.93-3.1-4.62-.31-4.62-.31-2.7,3.59-2,9.23-2,9.23a.7.7,0,0,0-.59.77,18,18,0,0,1-.85,3.75c-2.71,3.17-.43,7.15-.43,7.15l.78,2.26c2.23,4.54,3.54,14.27,3.54,14.27-.41,2.83,2.48,6,2.48,6l4.2,7.74a38.88,38.88,0,0,0,5.75,8.65c1.8,1.48,5.33,7.14,5.33,7.14l5,8.43,4.78,8.15,43.89,3.9Zm-11.42-67s-1.46,8.06-1.76,10c0,.24,0,.38,0,.38s-.24,1.33,0-.16a2.07,2.07,0,0,1,0-.22c.05-2.31.31-14.49-.15-16.85l1.84,5.09A3.47,3.47,0,0,1,275.44,315Zm12.6,9.1a5.32,5.32,0,0,0,1.89.56,10,10,0,0,0,1.47,4.86,7,7,0,0,0-3.43,4.19l-1.33-.31Z" transform="translate(-44.79 -109.24)"/><path class="cls-24" d="M231.11,312.82s8,5.16,4.29,17.44c0,0,4,8.45,4.46,11l1.12,1.3-.24,2.31s-2.36,3.82-2.35,7.23c0,0-1.19-13.67-5.24-19.46,0,0-1.22-2-.3-3.67C232.85,328.94,236.56,317.72,231.11,312.82Z" transform="translate(-44.79 -109.24)"/><polygon class="cls-24" points="178.21 223.49 182.65 221.27 178.48 224.31 178.21 223.49"/><polygon class="cls-24" points="178.93 225.21 181.53 223.91 179.09 225.69 178.93 225.21"/><path class="cls-24" d="M253.39,286.59a25.17,25.17,0,0,1,.79,8.59s-.21,6.34.16,10.3c0,0,1,7.29,1,9.61,0,0-.23,7.46,1.32,8.76,0,0,1.14,1.92,2.6-1.4,0,0-2.1,16.71-4.3,1.25l-1-9.16s-4.37,1.63-7.66-.64c0,0,5.22,1.9,7.64-.48,0,0,1.39-3.83-7.91-3.5a20.06,20.06,0,0,1,6.46-.24s2.43.14-.45-2.79c0,0,1.07-.07.93-2.51v-9.87S253.85,289.57,253.39,286.59Z" transform="translate(-44.79 -109.24)"/><path class="cls-24" d="M259.54,294.69a9,9,0,0,1,7.62.14A6.32,6.32,0,0,0,259.54,294.69Z" transform="translate(-44.79 -109.24)"/><path class="cls-24" d="M272.5,306.48s-1.54-3-9.9.31C262.6,306.79,269.71,304.73,272.5,306.48Z" transform="translate(-44.79 -109.24)"/><path class="cls-24" d="M263.9,309s6.57-2.15,8,.2C271.94,309.22,271,308.26,263.9,309Z" transform="translate(-44.79 -109.24)"/><path class="cls-24" d="M268,293.32a6.16,6.16,0,0,0-.87,1.16s-.22,1.55,3.18,6c0,0,3.44,4.06,3.19,7.68l1.86,5.25a3.9,3.9,0,0,1,0,1.86l-1.69,9.5-.18,2.23a12.45,12.45,0,0,0,3.23,7.32,33.72,33.72,0,0,1,0-16.07s1.14-4.7.27-7c0,0-3.73-9.79-6.34-13.54C270.65,297.68,267.57,295,268,293.32Z" transform="translate(-44.79 -109.24)"/><path class="cls-24" d="M288.55,311.5s-4.62-.84-7.43,1.12A7.43,7.43,0,0,1,288.55,311.5Z" transform="translate(-44.79 -109.24)"/><path class="cls-24" d="M289.13,313.68s-1.62.75-6.42-.65C282.71,313,286.56,315.25,289.13,313.68Z" transform="translate(-44.79 -109.24)"/><path class="cls-24" d="M288.77,316.79s-3.91,1-6.74-1.3A12.66,12.66,0,0,0,288.77,316.79Z" transform="translate(-44.79 -109.24)"/><path class="cls-24" d="M289,316l-1,8.16a6.89,6.89,0,0,0,1.89.56s.21,3.16,1.47,4.86a6.15,6.15,0,0,0-3.43,4.19l-1.33-.31s-.71,7.49,2.2,11.86c0,0-2.9-12.7.32-7.49,0,0-.9-6,4.26-7.45l-2-10.35-.52-4Z" transform="translate(-44.79 -109.24)"/><path class="cls-24" d="M302.2,334.49s-2.62.7-6.14-1.51A40.48,40.48,0,0,0,302.2,334.49Z" transform="translate(-44.79 -109.24)"/><path class="cls-24" d="M302.89,332a12.12,12.12,0,0,0-6.33-1.22S302.44,330.13,302.89,332Z" transform="translate(-44.79 -109.24)"/><path class="cls-25" d="M225.39,322.64s-.56-6.4,2.17-9.49C227.56,313.15,230.81,320.48,225.39,322.64Z" transform="translate(-44.79 -109.24)"/><path class="cls-25" d="M247.43,283.17s-2.19,2.05-.82,3.77c0,0,1.31,1.54,6.22,1.92,0,0,1,.15.55-2.19C253.38,286.67,252,281.87,247.43,283.17Z" transform="translate(-44.79 -109.24)"/><path class="cls-25" d="M260.47,285.15s-3.79-.44-3.55,3.3c0,0,0,1.45,4.26,1.49,0,0,3.88.79,3.19-1.6A4,4,0,0,0,260.47,285.15Z" transform="translate(-44.79 -109.24)"/><path class="cls-25" d="M275.52,294s-3.07-3-6-1.73c0,0-1.77.85-.12,3.05C269.41,295.3,269.61,296.28,275.52,294Z" transform="translate(-44.79 -109.24)"/><rect class="cls-2" x="242.82" y="385.89" width="52.07" height="12.99" transform="translate(-79.57 -82.99) rotate(-5.25)"/><polygon class="cls-27" points="266.57 340.76 261.29 284.25 188.32 290.99 192.96 340.76 266.57 340.76"/><polygon class="cls-26" points="266.58 340.76 261.29 284.25 224.81 287.62 229.77 340.76 266.58 340.76"/></svg>