<svg xmlns="http://www.w3.org/2000/svg" viewBox="0 0 76 74.81"><defs><style>.cls-1,.cls-2{fill:#c74544;}.cls-1,.cls-5{fill-rule:evenodd;}.cls-3{fill:#fef6e4;}.cls-4{fill:#5d564a;}.cls-5{fill:#ea5150;}</style></defs><title>envelope</title><g id="Icon"><path class="cls-1" d="M67.66,23.42a4.7,4.7,0,0,0-5.32,0L27,49.92h76Z" transform="translate(-27 -22.59)"/><rect class="cls-2" y="27.32" width="76" height="47.49"/><rect class="cls-3" x="10" y="11.41" width="56" height="42"/><path class="cls-4" d="M70.6,66.27a13.37,13.37,0,0,1-6.52,1.46c-6,0-11.08-4.39-11.08-11.41,0-7.54,5.23-14,13.35-14C72.72,42.27,77,46.73,77,52.84c0,5.49-3.07,8.71-6.51,8.71-1.47,0-2.82-1-2.71-3.22h-.15a5.74,5.74,0,0,1-5.15,3.22c-2.13,0-3.95-1.72-3.95-4.61a8.63,8.63,0,0,1,8.66-8.67,9.63,9.63,0,0,1,3.92.77l-1.24,6.62c-.55,2.78-.11,4.06,1.09,4.1,1.87,0,4-2.46,4-6.7,0-5.3-3.18-9.11-8.85-9.11-6,0-11,4.72-11,12.15,0,6.11,4,9.88,9.4,9.88A11.43,11.43,0,0,0,70,64.69Zm-2-15.81a6.26,6.26,0,0,0-1.82-.25c-3.22,0-5.82,3-5.82,6.58,0,1.61.8,2.78,2.41,2.78,2.13,0,4.06-2.7,4.47-5Z" transform="translate(-27 -22.59)"/><path class="cls-5" d="M27,97.41V49.92l2.85,1.42S64.06,76.5,65,76.51s35.15-25.17,35.15-25.17L103,49.92V97.41Z" transform="translate(-27 -22.59)"/><path class="cls-1" d="M67.66,70.91a4.7,4.7,0,0,0-5.32,0L27,97.41h76Z" transform="translate(-27 -22.59)"/></g></svg>