<svg id="Layer_1" data-name="Layer 1" xmlns="http://www.w3.org/2000/svg" viewBox="0 0 444 444.53"><defs><style>.cls-1{fill:#fbfdff;}.cls-1,.cls-10,.cls-11,.cls-12,.cls-13,.cls-14,.cls-16,.cls-17,.cls-2,.cls-3,.cls-4,.cls-5,.cls-6,.cls-7,.cls-8,.cls-9{fill-rule:evenodd;}.cls-2{fill:#eaeceb;}.cls-3{fill:#0eb2e8;}.cls-4{fill:#62bd8a;}.cls-5{fill:#c6c8c9;}.cls-6{fill:#f6c820;}.cls-7{fill:#c7cece;}.cls-8{fill:#14a4de;}.cls-9{fill:#d9dad9;}.cls-10{fill:#4db67a;}.cls-11{fill:#aeb1b2;}.cls-12{fill:#ddbc3e;}.cls-13{fill:#ed1c24;}.cls-14{fill:#d11a21;}.cls-15{fill:#fff;}.cls-16{fill:#fff200;}.cls-17{fill:#e0d41c;}</style></defs><title>phone</title><polygon class="cls-1" points="64.56 85.09 159.42 64.44 159.42 392.35 64.56 413 64.56 85.09"/><polygon class="cls-2" points="72.15 92.81 159.42 73.81 159.42 382.98 72.15 401.98 72.15 92.81"/><path class="cls-3" d="M101.34,301.06c20-1.79,43.52-2.95,67.88-.6,9.1.88,14.76,6.4,19.39,13.09v32.63a95.82,95.82,0,0,1-7.68-11.67c-4.19-7.08-8.55-14.42-15.44-15.09-23-2.21-45.11-1.23-64.15.41Z" transform="translate(-29.18 -54.65)"/><path class="cls-4" d="M101.34,147.46l44.24-9.64L173.9,246.06c6.71,25.62,5.55,43.59-14.23,42l-58.33,1.57Z" transform="translate(-29.18 -54.65)"/><polygon class="cls-1" points="72.15 367.57 159.42 321.33 159.42 334.2 72.15 380.44 72.15 367.57"/><path class="cls-5" d="M137.62,431.3l14.71-7.74,1.47,6.94c11.1.21,24.66-4.92,34.81-13.49v20.62L141.14,448Z" transform="translate(-29.18 -54.65)"/><polygon class="cls-5" points="124.54 299.53 146.29 288.32 151.48 313.75 107.97 336.18 97.59 285.32 119.35 274.1 124.54 299.53"/><polygon class="cls-5" points="72.15 298.43 86.18 291.2 96.56 342.06 72.15 354.64 72.15 298.43"/><polygon class="cls-6" points="150.32 75.8 159.42 149.99 159.42 205.31 152.93 181.88 152.78 181.36 152.73 180.92 140.1 78.02 150.32 75.8"/><polygon class="cls-2" points="159.42 64.44 191.04 71.33 254.28 85.09 254.28 413 191.04 399.24 159.42 392.35 159.42 64.44"/><polygon class="cls-7" points="159.42 73.81 254.28 94.46 254.28 403.63 159.42 382.98 159.42 73.81"/><path class="cls-8" d="M188.61,313.55c1.77,3.34,3.4,6.79,5,10.2,5.6,11.9,10.9,23.15,25.74,18.9,10.28-2.94,24.38-4.06,39-1.65a89.51,89.51,0,0,1,25.11,8v19.29a73.83,73.83,0,0,0-24.52-8.48c-12.68-2.09-24.94-1.11-33.89,1.45-19.23,5.5-29-2.72-36.44-15.06Z" transform="translate(-29.18 -54.65)"/><polygon class="cls-9" points="161.1 164.37 246.18 168.42 237.94 90.91 245.57 92.57 253.68 168.78 254.28 168.81 254.28 244.56 247.19 177.9 162.21 173.86 161.1 164.37"/><path class="cls-10" d="M283.46,458.28,258,452.74l-15.46-59.1c-9.31-35.63,25.08-20.2,40.91-8.64Z" transform="translate(-29.18 -54.65)"/><polygon class="cls-11" points="227.63 88.66 229.74 110.25 163.57 105.9 160.46 74.04 227.63 88.66"/><polygon class="cls-11" points="165.06 116.16 231.23 120.51 234.85 157.67 218.26 156.58 216.94 142.95 184.52 140.82 185.85 154.44 168.68 153.31 165.06 116.16"/><polygon class="cls-11" points="254.28 108.57 252.85 94.15 254.28 94.46 254.28 108.57"/><polygon class="cls-11" points="213.19 222.98 244.3 224.93 247.11 253.13 216 251.18 213.19 222.98"/><polygon class="cls-11" points="209.74 188.31 240.85 190.26 243.66 218.46 212.54 216.51 209.74 188.31"/><polygon class="cls-11" points="179.33 186.41 203.49 187.92 209.74 250.73 185.58 249.22 179.33 186.41"/><polygon class="cls-9" points="159.42 321.33 187.47 318.68 190.58 331.25 159.42 334.2 159.42 321.33"/><path class="cls-11" d="M188.61,417a25.49,25.49,0,0,0,8.55-5.58l-1.47-7.57,15.82-1.43,8.12,41.95-31-6.75Z" transform="translate(-29.18 -54.65)"/><polygon class="cls-12" points="159.42 149.99 162.68 177.91 182.36 257.5 254.28 263.32 254.28 275.86 185.53 270.31 215.98 393.39 211.18 394.25 205.88 393.1 159.42 205.31 159.42 149.99"/><polygon class="cls-1" points="317.52 71.33 349.14 64.44 349.14 392.35 317.52 399.24 254.28 413 254.28 85.09 317.52 71.33"/><polygon class="cls-2" points="254.28 94.46 349.14 73.81 349.14 382.98 254.28 403.63 254.28 94.46"/><path class="cls-3" d="M283.46,349A53.05,53.05,0,0,1,294,350.65c25.43,6.85,54.81,18.09,84.33,30.31v21c-31.37-13.12-62.88-25.41-89.84-32.67a39.45,39.45,0,0,0-5-1Z" transform="translate(-29.18 -54.65)"/><path class="cls-1" d="M283.46,223.46l74.45-28.87q2,4,4.31,7.75l-78.35,30.39L293,314.58l-7.52,2.67-2-18.05Z" transform="translate(-29.18 -54.65)"/><path class="cls-5" d="M292.83,238.36,344.76,219c6.92,5.67,8.32,20.79,3.27,31.5l-51.92,19.35Z" transform="translate(-29.18 -54.65)"/><polygon class="cls-5" points="267.98 222.74 297.38 211.78 300.03 237.27 270.63 248.22 267.98 222.74"/><polygon class="cls-5" points="304.75 209.03 349.14 192.49 349.14 218.96 307.4 234.52 304.75 209.03"/><path class="cls-4" d="M285.57,385.68l92.75,33.26v18.69l-94.86,20.65V385C284.21,385.22,284.92,385.45,285.57,385.68Z" transform="translate(-29.18 -54.65)"/><path class="cls-3" d="M378.32,128.46l-14.55,3.17c-1.23,17.25,4.66,34.14,14.55,49.74Z" transform="translate(-29.18 -54.65)"/><polygon class="cls-5" points="276.69 113.16 280.38 148.65 259.27 156.52 255.58 121.03 276.69 113.16"/><polygon class="cls-5" points="305.48 102.43 309.17 137.92 288.06 145.79 284.37 110.3 305.48 102.43"/><polygon class="cls-5" points="303.57 83.73 304.81 95.68 254.91 114.59 254.28 108.57 254.28 94.46 303.57 83.73"/><polygon class="cls-5" points="349.14 283.6 307.88 298.98 304.84 269.81 349.14 253.3 349.14 283.6"/><polygon class="cls-5" points="349.14 310.68 338.95 314.48 337.02 295.96 349.14 291.44 349.14 310.68"/><path class="cls-6" d="M283.46,318l94.86-33.63v12.55l-94.86,33.63V318Zm94.86-94.22c-19.9-21.9-33.25-48.73-34.63-87.47l5-1.37,5.06-1.1c1.11,29.83,10.31,52.2,24.53,70.82Z" transform="translate(-29.18 -54.65)"/><polygon class="cls-2" points="349.14 64.44 444 85.09 444 413 349.14 392.35 349.14 64.44"/><polygon class="cls-7" points="349.14 73.81 436.41 92.81 436.41 401.98 349.14 382.98 349.14 73.81"/><path class="cls-8" d="M378.32,381c15.18,12.89,30.39,26.05,45.12,38.8s28.87,25,42.15,36.22v.65l-31.91-6.95-17.24-14.9C404,424,391.16,412.9,378.32,401.94Z" transform="translate(-29.18 -54.65)"/><polygon class="cls-11" points="349.14 192.49 356.1 192.92 358.76 219.56 349.14 218.96 349.14 192.49"/><polygon class="cls-10" points="349.14 364.3 381.57 390.04 349.14 382.98 349.14 364.3"/><path class="cls-8" d="M465.59,292.12V147.46l-87.27-19v52.91C399.3,223.57,438.29,267.78,465.59,292.12Z" transform="translate(-29.18 -54.65)"/><polygon class="cls-11" points="388.55 293.91 392.45 333.17 370.11 331.77 366.2 292.51 388.55 293.91"/><polygon class="cls-11" points="436.41 335.93 397.58 333.49 393.68 294.23 436.41 296.91 436.41 335.93"/><polygon class="cls-11" points="412.2 257.25 415.24 287.74 365.46 284.63 362.43 254.14 412.2 257.25"/><polygon class="cls-11" points="354.62 253.65 357.65 284.14 349.14 283.6 349.14 253.3 354.62 253.65"/><polygon class="cls-11" points="360.31 311.38 349.14 310.68 349.14 291.44 358.38 292.02 360.31 311.38"/><polygon class="cls-11" points="436.41 363.8 400.37 361.54 398.42 341.91 436.41 344.29 436.41 363.8"/><path class="cls-12" d="M378.32,284.33l51.36,4.15c-19.18-21.66-37-42.66-51.36-64.74V204.62c17.62,30.73,42.92,59.06,70.09,89.47,5.71,6.39,11.5,12.87,17.18,19.32V329c-8-9.21-15.62-17.74-23.11-26.12l-.76-.85-63.4-5.12Z" transform="translate(-29.18 -54.65)"/><path class="cls-13" d="M332.29,54.65c33.67,0,58.2,24.92,60.11,57.54.5,8.41-1.89,23-6.17,36.23a275.37,275.37,0,0,1-17.5,41.41C354.62,217,335.54,240,332.29,240c-6.71,0-32.88-43.33-36.44-50.17a276.41,276.41,0,0,1-17.5-41.41c-4.28-13.27-6.66-27.82-6.17-36.23C274.13,79.05,299.09,54.65,332.29,54.65Z" transform="translate(-29.18 -54.65)"/><path class="cls-14" d="M332.29,54.65V240c3.25,0,22.33-23,36.44-50.17a275.37,275.37,0,0,0,17.5-41.41c4.28-13.27,6.67-27.82,6.17-36.23C390.49,79.57,366,54.65,332.29,54.65Z" transform="translate(-29.18 -54.65)"/><circle class="cls-15" cx="332.29" cy="114.76" r="51.47" transform="translate(-38.87 -21.34) rotate(-5.65)"/><path class="cls-13" d="M165.22,392.09a2.84,2.84,0,1,1-2.84,2.83A2.83,2.83,0,0,1,165.22,392.09Z" transform="translate(-29.18 -54.65)"/><path class="cls-13" d="M174.48,387.13a2.84,2.84,0,1,1-2.84,2.84A2.84,2.84,0,0,1,174.48,387.13Z" transform="translate(-29.18 -54.65)"/><path class="cls-13" d="M183.74,382.18a2.84,2.84,0,1,1-2.83,2.83A2.83,2.83,0,0,1,183.74,382.18Z" transform="translate(-29.18 -54.65)"/><path class="cls-13" d="M193.57,379.13a2.84,2.84,0,1,1-2.83,2.83A2.84,2.84,0,0,1,193.57,379.13Z" transform="translate(-29.18 -54.65)"/><path class="cls-13" d="M204,378.19A2.84,2.84,0,1,1,201.2,381,2.84,2.84,0,0,1,204,378.19Z" transform="translate(-29.18 -54.65)"/><path class="cls-13" d="M214.49,377.25a2.84,2.84,0,1,1-2.83,2.83A2.84,2.84,0,0,1,214.49,377.25Z" transform="translate(-29.18 -54.65)"/><path class="cls-13" d="M223.43,375.23a2.84,2.84,0,1,1-2.84,2.83A2.83,2.83,0,0,1,223.43,375.23Z" transform="translate(-29.18 -54.65)"/><path class="cls-13" d="M220.8,365.06a2.84,2.84,0,1,1-2.84,2.83A2.83,2.83,0,0,1,220.8,365.06Z" transform="translate(-29.18 -54.65)"/><path class="cls-13" d="M218.17,354.89a2.84,2.84,0,1,1-2.83,2.83A2.84,2.84,0,0,1,218.17,354.89Z" transform="translate(-29.18 -54.65)"/><path class="cls-13" d="M215.55,344.72a2.83,2.83,0,1,1-2.84,2.83A2.83,2.83,0,0,1,215.55,344.72Z" transform="translate(-29.18 -54.65)"/><path class="cls-13" d="M212.92,334.55a2.83,2.83,0,1,1-2.83,2.83A2.83,2.83,0,0,1,212.92,334.55Z" transform="translate(-29.18 -54.65)"/><path class="cls-13" d="M210.3,324.38a2.83,2.83,0,1,1-2.84,2.83A2.83,2.83,0,0,1,210.3,324.38Z" transform="translate(-29.18 -54.65)"/><path class="cls-13" d="M207.67,314.2a2.84,2.84,0,1,1-2.83,2.84A2.83,2.83,0,0,1,207.67,314.2Z" transform="translate(-29.18 -54.65)"/><path class="cls-13" d="M205,304a2.84,2.84,0,1,1-2.83,2.84A2.84,2.84,0,0,1,205,304Z" transform="translate(-29.18 -54.65)"/><path class="cls-13" d="M202.42,293.86a2.84,2.84,0,1,1-2.84,2.84A2.84,2.84,0,0,1,202.42,293.86Z" transform="translate(-29.18 -54.65)"/><path class="cls-13" d="M199.79,283.69a2.84,2.84,0,1,1-2.83,2.84A2.84,2.84,0,0,1,199.79,283.69Z" transform="translate(-29.18 -54.65)"/><path class="cls-13" d="M197.17,273.52a2.84,2.84,0,1,1-2.84,2.84A2.84,2.84,0,0,1,197.17,273.52Z" transform="translate(-29.18 -54.65)"/><path class="cls-13" d="M194.54,263.35a2.84,2.84,0,1,1-2.83,2.84A2.84,2.84,0,0,1,194.54,263.35Z" transform="translate(-29.18 -54.65)"/><path class="cls-13" d="M191.91,253.18a2.84,2.84,0,1,1-2.83,2.84A2.84,2.84,0,0,1,191.91,253.18Z" transform="translate(-29.18 -54.65)"/><path class="cls-13" d="M189.29,243a2.84,2.84,0,1,1-2.84,2.84A2.84,2.84,0,0,1,189.29,243Z" transform="translate(-29.18 -54.65)"/><path class="cls-13" d="M186.66,232.84a2.84,2.84,0,1,1-2.83,2.83A2.84,2.84,0,0,1,186.66,232.84Z" transform="translate(-29.18 -54.65)"/><path class="cls-13" d="M185.52,222.41a2.84,2.84,0,1,1-2.83,2.84A2.83,2.83,0,0,1,185.52,222.41Z" transform="translate(-29.18 -54.65)"/><path class="cls-13" d="M193.52,220.66a2.84,2.84,0,1,1-2.83,2.84A2.83,2.83,0,0,1,193.52,220.66Z" transform="translate(-29.18 -54.65)"/><path class="cls-13" d="M204,221.32a2.84,2.84,0,1,1-2.83,2.84A2.84,2.84,0,0,1,204,221.32Z" transform="translate(-29.18 -54.65)"/><path class="cls-13" d="M214.49,222a2.84,2.84,0,1,1-2.84,2.84A2.84,2.84,0,0,1,214.49,222Z" transform="translate(-29.18 -54.65)"/><path class="cls-13" d="M225,222.64a2.84,2.84,0,1,1-2.84,2.84A2.83,2.83,0,0,1,225,222.64Z" transform="translate(-29.18 -54.65)"/><path class="cls-13" d="M235.45,223.3a2.84,2.84,0,1,1-2.83,2.84A2.84,2.84,0,0,1,235.45,223.3Z" transform="translate(-29.18 -54.65)"/><path class="cls-13" d="M245.94,224a2.84,2.84,0,1,1-2.84,2.84A2.84,2.84,0,0,1,245.94,224Z" transform="translate(-29.18 -54.65)"/><path class="cls-13" d="M256.42,224.62a2.84,2.84,0,1,1-2.84,2.84A2.84,2.84,0,0,1,256.42,224.62Z" transform="translate(-29.18 -54.65)"/><path class="cls-13" d="M266.9,225.28a2.84,2.84,0,1,1-2.83,2.84A2.84,2.84,0,0,1,266.9,225.28Z" transform="translate(-29.18 -54.65)"/><path class="cls-13" d="M277.39,225.94a2.84,2.84,0,1,1-2.84,2.84A2.84,2.84,0,0,1,277.39,225.94Z" transform="translate(-29.18 -54.65)"/><path class="cls-13" d="M287.42,223.44a2.84,2.84,0,1,1-2.83,2.83A2.83,2.83,0,0,1,287.42,223.44Z" transform="translate(-29.18 -54.65)"/><path class="cls-13" d="M297.31,219.89a2.84,2.84,0,1,1-2.84,2.83A2.83,2.83,0,0,1,297.31,219.89Z" transform="translate(-29.18 -54.65)"/><path class="cls-13" d="M307.19,216.34a2.84,2.84,0,1,1-2.83,2.84A2.84,2.84,0,0,1,307.19,216.34Z" transform="translate(-29.18 -54.65)"/><polygon class="cls-16" points="132.67 342.14 46.16 444.53 34.37 396.63 0 361.25 132.67 342.14"/><polygon class="cls-17" points="132.67 342.14 46.16 444.53 34.37 396.63 132.67 342.14"/><polygon class="cls-14" points="0 361.25 34.37 396.63 46.16 444.53 27.55 400.41 0 361.25"/></svg>