<svg id="Layer_1" data-name="Layer 1" xmlns="http://www.w3.org/2000/svg" viewBox="0 0 600 600"><defs><style>.cls-1{opacity:0.1;}</style></defs><title>pattern</title><polygon class="cls-1" points="476.69 520.45 477.98 518.47 488.27 525.1 495.58 513.87 506.86 521.15 514.17 509.92 526.44 517.83 525.15 519.81 514.87 513.18 507.56 524.41 496.28 517.13 488.97 528.36 476.69 520.45"/><polygon class="cls-1" points="490.64 600 488.97 599.96 489.89 591.42 480.43 591.2 481.44 581.84 471.98 581.63 473.08 571.44 474.74 571.48 473.82 580.01 483.28 580.23 482.27 589.59 491.73 589.81 490.64 600"/><polygon class="cls-1" points="573.15 482.05 572.07 480.78 579.08 475.78 572.96 468.61 580.65 463.13 574.52 455.95 582.89 450 583.97 451.26 576.96 456.25 583.08 463.43 575.39 468.91 581.52 476.08 573.15 482.05"/><polygon class="cls-1" points="530.96 458.22 511.54 486.89 509.58 485.57 528.99 456.9 530.96 458.22"/><polygon class="cls-1" points="555.05 581.12 575.21 594.65 574.29 596.02 554.12 582.49 555.05 581.12"/><path class="cls-1" d="M600,564.81l-1.46,1.86A6.79,6.79,0,0,1,596,561.5c-.17-1.42-.31-2.55-1.64-3.59s-2.46-.9-3.89-.72a6.87,6.87,0,0,1-5.64-1.21,6.77,6.77,0,0,1-2.53-5.16c-.17-1.43-.31-2.56-1.63-3.59s-2.46-.9-3.9-.73a6.84,6.84,0,0,1-5.64-1.21,6.77,6.77,0,0,1-2.52-5.15c-.18-1.43-.31-2.56-1.64-3.59l1.46-1.86a6.77,6.77,0,0,1,2.53,5.16c.17,1.43.31,2.56,1.64,3.59s2.45.9,3.89.72a6.87,6.87,0,0,1,5.64,1.21,6.79,6.79,0,0,1,2.52,5.16c.18,1.43.31,2.56,1.64,3.59s2.46.9,3.89.73a6.59,6.59,0,0,1,8.17,6.37C598.54,562.65,598.67,563.77,600,564.81Z"/><path class="cls-1" d="M462.63,486l-1.58-.89a5.23,5.23,0,0,1,3.63-2.5,3.49,3.49,0,0,0,2.54-1.64,3.45,3.45,0,0,0,.1-3,5.16,5.16,0,0,1,.27-4.38,5.21,5.21,0,0,1,3.62-2.5,3.25,3.25,0,0,0,2.64-4.65,5,5,0,0,1,3.89-6.88,3.47,3.47,0,0,0,2.54-1.65l1.58.89a5.21,5.21,0,0,1-3.63,2.49,3.51,3.51,0,0,0-2.54,1.65,3.47,3.47,0,0,0-.1,3,5.15,5.15,0,0,1-.26,4.38,5.23,5.23,0,0,1-3.63,2.5,3.26,3.26,0,0,0-2.64,4.66,5.15,5.15,0,0,1-.26,4.38,5.25,5.25,0,0,1-3.63,2.5A3.44,3.44,0,0,0,462.63,486Z"/><path class="cls-1" d="M567,512.27a5.5,5.5,0,1,1,5.53-5.5A5.51,5.51,0,0,1,567,512.27Zm0-8.64a3.15,3.15,0,1,0,3.16,3.14A3.16,3.16,0,0,0,567,503.63Z"/><path class="cls-1" d="M525.79,573.8a5.5,5.5,0,1,1,5.53-5.5A5.51,5.51,0,0,1,525.79,573.8Zm0-8.65A3.15,3.15,0,1,0,529,568.3,3.16,3.16,0,0,0,525.79,565.15Z"/><path class="cls-1" d="M455.53,555.45a5.5,5.5,0,1,1,5.52-5.5A5.52,5.52,0,0,1,455.53,555.45Zm0-8.64a3.15,3.15,0,1,0,3.15,3.14A3.16,3.16,0,0,0,455.53,546.81Z"/><polygon class="cls-1" points="326.69 520.45 327.98 518.47 338.27 525.1 345.58 513.87 356.86 521.15 364.17 509.92 376.44 517.83 375.15 519.81 364.87 513.18 357.56 524.41 346.28 517.13 338.97 528.36 326.69 520.45"/><polygon class="cls-1" points="340.64 600 338.97 599.96 339.89 591.42 330.43 591.2 331.44 581.84 321.98 581.63 323.08 571.44 324.74 571.48 323.82 580.01 333.28 580.23 332.27 589.59 341.73 589.81 340.64 600"/><polygon class="cls-1" points="423.15 482.05 422.07 480.78 429.08 475.78 422.96 468.61 430.65 463.13 424.52 455.95 432.89 450 433.97 451.26 426.96 456.25 433.08 463.43 425.39 468.91 431.52 476.08 423.15 482.05"/><polygon class="cls-1" points="380.95 458.22 361.54 486.89 359.58 485.57 378.99 456.9 380.95 458.22"/><polygon class="cls-1" points="405.05 581.12 425.21 594.65 424.29 596.02 404.12 582.49 405.05 581.12"/><path class="cls-1" d="M450,564.81l-1.46,1.86A6.79,6.79,0,0,1,446,561.5c-.17-1.42-.31-2.55-1.64-3.59s-2.46-.9-3.89-.72a6.87,6.87,0,0,1-5.64-1.21,6.77,6.77,0,0,1-2.53-5.16c-.17-1.43-.31-2.56-1.63-3.59s-2.46-.9-3.9-.73a6.84,6.84,0,0,1-5.64-1.21,6.77,6.77,0,0,1-2.52-5.15c-.18-1.43-.31-2.56-1.64-3.59l1.46-1.86a6.77,6.77,0,0,1,2.53,5.16c.17,1.43.31,2.56,1.64,3.59s2.45.9,3.89.72a6.87,6.87,0,0,1,5.64,1.21,6.79,6.79,0,0,1,2.52,5.16c.18,1.43.31,2.56,1.64,3.59s2.46.9,3.89.73a6.59,6.59,0,0,1,8.17,6.37C448.54,562.65,448.67,563.77,450,564.81Z"/><path class="cls-1" d="M312.63,486l-1.58-.89a5.23,5.23,0,0,1,3.63-2.5,3.49,3.49,0,0,0,2.54-1.64,3.45,3.45,0,0,0,.1-3,5.16,5.16,0,0,1,.27-4.38,5.21,5.21,0,0,1,3.62-2.5,3.25,3.25,0,0,0,2.64-4.65,5,5,0,0,1,3.89-6.88,3.47,3.47,0,0,0,2.54-1.65l1.58.89a5.21,5.21,0,0,1-3.63,2.49,3.51,3.51,0,0,0-2.54,1.65,3.47,3.47,0,0,0-.1,3,5.15,5.15,0,0,1-.26,4.38,5.23,5.23,0,0,1-3.63,2.5,3.26,3.26,0,0,0-2.64,4.66,5.15,5.15,0,0,1-.26,4.38,5.25,5.25,0,0,1-3.63,2.5A3.44,3.44,0,0,0,312.63,486Z"/><path class="cls-1" d="M417,512.27a5.5,5.5,0,1,1,5.53-5.5A5.51,5.51,0,0,1,417,512.27Zm0-8.64a3.15,3.15,0,1,0,3.16,3.14A3.16,3.16,0,0,0,417,503.63Z"/><path class="cls-1" d="M375.79,573.8a5.5,5.5,0,1,1,5.53-5.5A5.51,5.51,0,0,1,375.79,573.8Zm0-8.65A3.15,3.15,0,1,0,379,568.3,3.16,3.16,0,0,0,375.79,565.15Z"/><path class="cls-1" d="M305.53,555.45a5.5,5.5,0,1,1,5.52-5.5A5.52,5.52,0,0,1,305.53,555.45Zm0-8.64a3.15,3.15,0,1,0,3.15,3.14A3.16,3.16,0,0,0,305.53,546.81Z"/><polygon class="cls-1" points="176.69 520.45 177.97 518.47 188.27 525.1 195.58 513.87 206.86 521.15 214.17 509.92 226.44 517.83 225.16 519.81 214.87 513.18 207.56 524.41 196.28 517.13 188.97 528.36 176.69 520.45"/><polygon class="cls-1" points="190.64 600 188.97 599.96 189.89 591.42 180.43 591.2 181.44 581.84 171.98 581.63 173.08 571.44 174.74 571.48 173.82 580.01 183.28 580.23 182.27 589.59 191.73 589.81 190.64 600"/><polygon class="cls-1" points="273.15 482.05 272.07 480.78 279.08 475.78 272.96 468.61 280.65 463.13 274.52 455.95 282.89 450 283.97 451.26 276.96 456.25 283.08 463.43 275.39 468.91 281.52 476.08 273.15 482.05"/><polygon class="cls-1" points="230.96 458.22 211.54 486.89 209.58 485.57 228.99 456.9 230.96 458.22"/><polygon class="cls-1" points="255.05 581.12 275.21 594.65 274.29 596.02 254.12 582.49 255.05 581.12"/><path class="cls-1" d="M300,564.81l-1.46,1.86A6.79,6.79,0,0,1,296,561.5c-.17-1.42-.31-2.55-1.64-3.59s-2.46-.9-3.89-.72a6.87,6.87,0,0,1-5.64-1.21,6.77,6.77,0,0,1-2.53-5.16c-.17-1.43-.31-2.56-1.63-3.59s-2.46-.9-3.9-.73a6.84,6.84,0,0,1-5.64-1.21,6.77,6.77,0,0,1-2.52-5.15c-.18-1.43-.31-2.56-1.64-3.59l1.46-1.86a6.77,6.77,0,0,1,2.53,5.16c.17,1.43.31,2.56,1.64,3.59s2.45.9,3.89.72a6.87,6.87,0,0,1,5.64,1.21,6.79,6.79,0,0,1,2.52,5.16c.18,1.43.31,2.56,1.64,3.59s2.46.9,3.89.73a6.59,6.59,0,0,1,8.17,6.37C298.54,562.65,298.67,563.77,300,564.81Z"/><path class="cls-1" d="M162.63,486l-1.58-.89a5.23,5.23,0,0,1,3.63-2.5,3.26,3.26,0,0,0,2.64-4.66,5.16,5.16,0,0,1,.27-4.38,5.21,5.21,0,0,1,3.62-2.5,3.25,3.25,0,0,0,2.64-4.65,5,5,0,0,1,3.89-6.88,3.47,3.47,0,0,0,2.54-1.65l1.58.89a5.21,5.21,0,0,1-3.63,2.49,3.51,3.51,0,0,0-2.54,1.65,3.47,3.47,0,0,0-.1,3,5.15,5.15,0,0,1-.26,4.38,5.23,5.23,0,0,1-3.63,2.5,3.26,3.26,0,0,0-2.64,4.66,5.15,5.15,0,0,1-.26,4.38,5.25,5.25,0,0,1-3.63,2.5A3.44,3.44,0,0,0,162.63,486Z"/><path class="cls-1" d="M267,512.27a5.5,5.5,0,1,1,5.53-5.5A5.51,5.51,0,0,1,267,512.27Zm0-8.64a3.15,3.15,0,1,0,3.16,3.14A3.16,3.16,0,0,0,267,503.63Z"/><path class="cls-1" d="M225.79,573.8a5.5,5.5,0,1,1,5.53-5.5A5.51,5.51,0,0,1,225.79,573.8Zm0-8.65A3.15,3.15,0,1,0,229,568.3,3.16,3.16,0,0,0,225.79,565.15Z"/><path class="cls-1" d="M155.53,555.45a5.5,5.5,0,1,1,5.52-5.5A5.52,5.52,0,0,1,155.53,555.45Zm0-8.64a3.15,3.15,0,1,0,3.15,3.14A3.16,3.16,0,0,0,155.53,546.81Z"/><polygon class="cls-1" points="26.69 520.45 27.98 518.47 38.27 525.1 45.58 513.87 56.86 521.15 64.17 509.92 76.44 517.83 75.16 519.81 64.87 513.18 57.56 524.41 46.28 517.13 38.97 528.36 26.69 520.45"/><polygon class="cls-1" points="40.64 600 38.97 599.96 39.89 591.42 30.43 591.2 31.44 581.84 21.98 581.63 23.08 571.44 24.74 571.48 23.82 580.01 33.28 580.23 32.27 589.59 41.73 589.81 40.64 600"/><polygon class="cls-1" points="123.15 482.05 122.07 480.78 129.08 475.78 122.96 468.61 130.65 463.13 124.52 455.95 132.89 450 133.97 451.26 126.96 456.25 133.08 463.43 125.39 468.91 131.52 476.08 123.15 482.05"/><polygon class="cls-1" points="80.95 458.22 61.54 486.89 59.58 485.57 78.99 456.9 80.95 458.22"/><polygon class="cls-1" points="105.05 581.12 125.21 594.65 124.29 596.02 104.12 582.49 105.05 581.12"/><path class="cls-1" d="M150,564.81l-1.46,1.86A6.79,6.79,0,0,1,146,561.5c-.17-1.42-.31-2.55-1.64-3.59s-2.46-.9-3.89-.72a6.87,6.87,0,0,1-5.64-1.21,6.77,6.77,0,0,1-2.53-5.16c-.17-1.43-.31-2.56-1.63-3.59s-2.46-.9-3.9-.73a6.84,6.84,0,0,1-5.64-1.21,6.77,6.77,0,0,1-2.52-5.15c-.18-1.43-.31-2.56-1.64-3.59l1.46-1.86a6.77,6.77,0,0,1,2.53,5.16c.17,1.43.31,2.56,1.64,3.59s2.45.9,3.89.72a6.87,6.87,0,0,1,5.64,1.21,6.79,6.79,0,0,1,2.52,5.16c.18,1.43.31,2.56,1.64,3.59s2.46.9,3.89.73a6.59,6.59,0,0,1,8.17,6.37C148.54,562.65,148.67,563.77,150,564.81Z"/><path class="cls-1" d="M12.63,486l-1.58-.89a5.23,5.23,0,0,1,3.63-2.5,3.26,3.26,0,0,0,2.64-4.66,5.16,5.16,0,0,1,.27-4.38,5.21,5.21,0,0,1,3.62-2.5,3.25,3.25,0,0,0,2.64-4.65,5,5,0,0,1,3.89-6.88,3.47,3.47,0,0,0,2.54-1.65l1.58.89a5.21,5.21,0,0,1-3.63,2.49,3.51,3.51,0,0,0-2.54,1.65,3.47,3.47,0,0,0-.1,3,5.15,5.15,0,0,1-.26,4.38,5.23,5.23,0,0,1-3.63,2.5,3.26,3.26,0,0,0-2.64,4.66,5.15,5.15,0,0,1-.26,4.38,5.25,5.25,0,0,1-3.63,2.5A3.44,3.44,0,0,0,12.63,486Z"/><path class="cls-1" d="M117,512.27a5.5,5.5,0,1,1,5.53-5.5A5.51,5.51,0,0,1,117,512.27Zm0-8.64a3.15,3.15,0,1,0,3.16,3.14A3.16,3.16,0,0,0,117,503.63Z"/><path class="cls-1" d="M75.79,573.8a5.5,5.5,0,1,1,5.53-5.5A5.51,5.51,0,0,1,75.79,573.8Zm0-8.65A3.15,3.15,0,1,0,79,568.3,3.16,3.16,0,0,0,75.79,565.15Z"/><path class="cls-1" d="M5.53,555.45a5.5,5.5,0,1,1,5.52-5.5A5.52,5.52,0,0,1,5.53,555.45Zm0-8.64A3.15,3.15,0,1,0,8.68,550,3.16,3.16,0,0,0,5.53,546.81Z"/><polygon class="cls-1" points="476.69 370.45 477.98 368.47 488.27 375.1 495.58 363.87 506.86 371.15 514.17 359.92 526.44 367.83 525.15 369.81 514.87 363.18 507.56 374.41 496.28 367.13 488.97 378.36 476.69 370.45"/><polygon class="cls-1" points="490.64 450 488.97 449.96 489.89 441.42 480.43 441.2 481.44 431.85 471.98 431.63 473.08 421.44 474.74 421.48 473.82 430.01 483.28 430.23 482.27 439.59 491.73 439.81 490.64 450"/><polygon class="cls-1" points="573.15 332.05 572.07 330.78 579.08 325.78 572.96 318.61 580.65 313.13 574.52 305.96 582.89 300 583.97 301.26 576.96 306.26 583.08 313.43 575.39 318.91 581.52 326.08 573.15 332.05"/><polygon class="cls-1" points="530.96 308.22 511.54 336.89 509.58 335.57 528.99 306.9 530.96 308.22"/><polygon class="cls-1" points="555.05 431.12 575.21 444.65 574.29 446.02 554.12 432.49 555.05 431.12"/><path class="cls-1" d="M600,414.81l-1.46,1.86A6.77,6.77,0,0,1,596,411.5c-.17-1.42-.31-2.55-1.64-3.59s-2.46-.89-3.89-.72a6.59,6.59,0,0,1-8.17-6.37c-.17-1.43-.31-2.56-1.63-3.59s-2.46-.9-3.9-.72a6.88,6.88,0,0,1-5.64-1.21,6.79,6.79,0,0,1-2.52-5.16c-.18-1.43-.31-2.56-1.64-3.59l1.46-1.86a6.77,6.77,0,0,1,2.53,5.16c.17,1.43.31,2.56,1.64,3.59s2.45.9,3.89.73a6.58,6.58,0,0,1,8.16,6.37c.18,1.42.31,2.55,1.64,3.58s2.46.9,3.89.73a6.59,6.59,0,0,1,8.17,6.37C598.54,412.65,598.67,413.78,600,414.81Z"/><path class="cls-1" d="M462.63,336l-1.58-.89a5.23,5.23,0,0,1,3.63-2.5,3.49,3.49,0,0,0,2.54-1.64,3.45,3.45,0,0,0,.1-3,5.16,5.16,0,0,1,.27-4.38,5.21,5.21,0,0,1,3.62-2.5,3.25,3.25,0,0,0,2.64-4.65,5,5,0,0,1,3.89-6.88,3.47,3.47,0,0,0,2.54-1.65l1.58.89a5.23,5.23,0,0,1-3.63,2.5,3.25,3.25,0,0,0-2.64,4.65,5,5,0,0,1-3.89,6.88,3.51,3.51,0,0,0-2.54,1.65,3.46,3.46,0,0,0-.1,3,5.15,5.15,0,0,1-.26,4.38,5.25,5.25,0,0,1-3.63,2.5A3.47,3.47,0,0,0,462.63,336Z"/><path class="cls-1" d="M567,362.27a5.5,5.5,0,1,1,5.53-5.5A5.51,5.51,0,0,1,567,362.27Zm0-8.64a3.15,3.15,0,1,0,3.16,3.14A3.16,3.16,0,0,0,567,353.63Z"/><path class="cls-1" d="M525.79,423.8a5.5,5.5,0,1,1,5.53-5.5A5.51,5.51,0,0,1,525.79,423.8Zm0-8.65A3.15,3.15,0,1,0,529,418.3,3.16,3.16,0,0,0,525.79,415.15Z"/><path class="cls-1" d="M455.53,405.45a5.5,5.5,0,1,1,5.52-5.5A5.52,5.52,0,0,1,455.53,405.45Zm0-8.64a3.15,3.15,0,1,0,3.15,3.14A3.16,3.16,0,0,0,455.53,396.81Z"/><polygon class="cls-1" points="326.69 370.45 327.98 368.47 338.27 375.1 345.58 363.87 356.86 371.15 364.17 359.92 376.44 367.83 375.15 369.81 364.87 363.18 357.56 374.41 346.28 367.13 338.97 378.36 326.69 370.45"/><polygon class="cls-1" points="340.64 450 338.97 449.96 339.89 441.42 330.43 441.2 331.44 431.85 321.98 431.63 323.08 421.44 324.74 421.48 323.82 430.01 333.28 430.23 332.27 439.59 341.73 439.81 340.64 450"/><polygon class="cls-1" points="423.15 332.05 422.07 330.78 429.08 325.78 422.96 318.61 430.65 313.13 424.52 305.96 432.89 300 433.97 301.26 426.96 306.26 433.08 313.43 425.39 318.91 431.52 326.08 423.15 332.05"/><polygon class="cls-1" points="380.95 308.22 361.54 336.89 359.58 335.57 378.99 306.9 380.95 308.22"/><polygon class="cls-1" points="405.05 431.12 425.21 444.65 424.29 446.02 404.12 432.49 405.05 431.12"/><path class="cls-1" d="M450,414.81l-1.46,1.86A6.77,6.77,0,0,1,446,411.5c-.17-1.42-.31-2.55-1.64-3.59s-2.46-.89-3.89-.72a6.59,6.59,0,0,1-8.17-6.37c-.17-1.43-.31-2.56-1.63-3.59s-2.46-.9-3.9-.72a6.88,6.88,0,0,1-5.64-1.21,6.79,6.79,0,0,1-2.52-5.16c-.18-1.43-.31-2.56-1.64-3.59l1.46-1.86a6.77,6.77,0,0,1,2.53,5.16c.17,1.43.31,2.56,1.64,3.59s2.45.9,3.89.73a6.58,6.58,0,0,1,8.16,6.37c.18,1.42.31,2.55,1.64,3.58s2.46.9,3.89.73a6.59,6.59,0,0,1,8.17,6.37C448.54,412.65,448.67,413.78,450,414.81Z"/><path class="cls-1" d="M312.63,336l-1.58-.89a5.23,5.23,0,0,1,3.63-2.5,3.49,3.49,0,0,0,2.54-1.64,3.45,3.45,0,0,0,.1-3,5.16,5.16,0,0,1,.27-4.38,5.21,5.21,0,0,1,3.62-2.5,3.25,3.25,0,0,0,2.64-4.65,5,5,0,0,1,3.89-6.88,3.47,3.47,0,0,0,2.54-1.65l1.58.89a5.23,5.23,0,0,1-3.63,2.5,3.25,3.25,0,0,0-2.64,4.65,5,5,0,0,1-3.89,6.88,3.51,3.51,0,0,0-2.54,1.65,3.46,3.46,0,0,0-.1,3,5.15,5.15,0,0,1-.26,4.38,5.25,5.25,0,0,1-3.63,2.5A3.47,3.47,0,0,0,312.63,336Z"/><path class="cls-1" d="M417,362.27a5.5,5.5,0,1,1,5.53-5.5A5.51,5.51,0,0,1,417,362.27Zm0-8.64a3.15,3.15,0,1,0,3.16,3.14A3.16,3.16,0,0,0,417,353.63Z"/><path class="cls-1" d="M375.79,423.8a5.5,5.5,0,1,1,5.53-5.5A5.51,5.51,0,0,1,375.79,423.8Zm0-8.65A3.15,3.15,0,1,0,379,418.3,3.16,3.16,0,0,0,375.79,415.15Z"/><path class="cls-1" d="M305.53,405.45a5.5,5.5,0,1,1,5.52-5.5A5.52,5.52,0,0,1,305.53,405.45Zm0-8.64a3.15,3.15,0,1,0,3.15,3.14A3.16,3.16,0,0,0,305.53,396.81Z"/><polygon class="cls-1" points="176.69 370.45 177.97 368.47 188.27 375.1 195.58 363.87 206.86 371.15 214.17 359.92 226.44 367.83 225.16 369.81 214.87 363.18 207.56 374.41 196.28 367.13 188.97 378.36 176.69 370.45"/><polygon class="cls-1" points="190.64 450 188.97 449.96 189.89 441.42 180.43 441.2 181.44 431.85 171.98 431.63 173.08 421.44 174.74 421.48 173.82 430.01 183.28 430.23 182.27 439.59 191.73 439.81 190.64 450"/><polygon class="cls-1" points="273.15 332.05 272.07 330.78 279.08 325.78 272.96 318.61 280.65 313.13 274.52 305.96 282.89 300 283.97 301.26 276.96 306.26 283.08 313.43 275.39 318.91 281.52 326.08 273.15 332.05"/><polygon class="cls-1" points="230.96 308.22 211.54 336.89 209.58 335.57 228.99 306.9 230.96 308.22"/><polygon class="cls-1" points="255.05 431.12 275.21 444.65 274.29 446.02 254.12 432.49 255.05 431.12"/><path class="cls-1" d="M300,414.81l-1.46,1.86A6.77,6.77,0,0,1,296,411.5c-.17-1.42-.31-2.55-1.64-3.59s-2.46-.89-3.89-.72a6.59,6.59,0,0,1-8.17-6.37c-.17-1.43-.31-2.56-1.63-3.59s-2.46-.9-3.9-.72a6.88,6.88,0,0,1-5.64-1.21,6.79,6.79,0,0,1-2.52-5.16c-.18-1.43-.31-2.56-1.64-3.59l1.46-1.86a6.77,6.77,0,0,1,2.53,5.16c.17,1.43.31,2.56,1.64,3.59s2.45.9,3.89.73a6.58,6.58,0,0,1,8.16,6.37c.18,1.42.31,2.55,1.64,3.58s2.46.9,3.89.73a6.59,6.59,0,0,1,8.17,6.37C298.54,412.65,298.67,413.78,300,414.81Z"/><path class="cls-1" d="M162.63,336l-1.58-.89a5.23,5.23,0,0,1,3.63-2.5,3.26,3.26,0,0,0,2.64-4.66,5.16,5.16,0,0,1,.27-4.38,5.21,5.21,0,0,1,3.62-2.5,3.25,3.25,0,0,0,2.64-4.65,5,5,0,0,1,3.89-6.88,3.47,3.47,0,0,0,2.54-1.65l1.58.89a5.23,5.23,0,0,1-3.63,2.5,3.25,3.25,0,0,0-2.64,4.65,5,5,0,0,1-3.89,6.88,3.51,3.51,0,0,0-2.54,1.65,3.46,3.46,0,0,0-.1,3,5.15,5.15,0,0,1-.26,4.38,5.25,5.25,0,0,1-3.63,2.5A3.47,3.47,0,0,0,162.63,336Z"/><path class="cls-1" d="M267,362.27a5.5,5.5,0,1,1,5.53-5.5A5.51,5.51,0,0,1,267,362.27Zm0-8.64a3.15,3.15,0,1,0,3.16,3.14A3.16,3.16,0,0,0,267,353.63Z"/><path class="cls-1" d="M225.79,423.8a5.5,5.5,0,1,1,5.53-5.5A5.51,5.51,0,0,1,225.79,423.8Zm0-8.65A3.15,3.15,0,1,0,229,418.3,3.16,3.16,0,0,0,225.79,415.15Z"/><path class="cls-1" d="M155.53,405.45a5.5,5.5,0,1,1,5.52-5.5A5.52,5.52,0,0,1,155.53,405.45Zm0-8.64a3.15,3.15,0,1,0,3.15,3.14A3.16,3.16,0,0,0,155.53,396.81Z"/><polygon class="cls-1" points="26.69 370.45 27.98 368.47 38.27 375.1 45.58 363.87 56.86 371.15 64.17 359.92 76.44 367.83 75.16 369.81 64.87 363.18 57.56 374.41 46.28 367.13 38.97 378.36 26.69 370.45"/><polygon class="cls-1" points="40.64 450 38.97 449.96 39.89 441.42 30.43 441.2 31.44 431.85 21.98 431.63 23.08 421.44 24.74 421.48 23.82 430.01 33.28 430.23 32.27 439.59 41.73 439.81 40.64 450"/><polygon class="cls-1" points="123.15 332.05 122.07 330.78 129.08 325.78 122.96 318.61 130.65 313.13 124.52 305.96 132.89 300 133.97 301.26 126.96 306.26 133.08 313.43 125.39 318.91 131.52 326.08 123.15 332.05"/><polygon class="cls-1" points="80.95 308.22 61.54 336.89 59.58 335.57 78.99 306.9 80.95 308.22"/><polygon class="cls-1" points="105.05 431.12 125.21 444.65 124.29 446.02 104.12 432.49 105.05 431.12"/><path class="cls-1" d="M150,414.81l-1.46,1.86A6.77,6.77,0,0,1,146,411.5c-.17-1.42-.31-2.55-1.64-3.59s-2.46-.89-3.89-.72a6.59,6.59,0,0,1-8.17-6.37c-.17-1.43-.31-2.56-1.63-3.59s-2.46-.9-3.9-.72a6.88,6.88,0,0,1-5.64-1.21,6.79,6.79,0,0,1-2.52-5.16c-.18-1.43-.31-2.56-1.64-3.59l1.46-1.86a6.77,6.77,0,0,1,2.53,5.16c.17,1.43.31,2.56,1.64,3.59s2.45.9,3.89.73a6.58,6.58,0,0,1,8.16,6.37c.18,1.42.31,2.55,1.64,3.58s2.46.9,3.89.73a6.59,6.59,0,0,1,8.17,6.37C148.54,412.65,148.67,413.78,150,414.81Z"/><path class="cls-1" d="M12.63,336l-1.58-.89a5.23,5.23,0,0,1,3.63-2.5,3.26,3.26,0,0,0,2.64-4.66,5.16,5.16,0,0,1,.27-4.38,5.21,5.21,0,0,1,3.62-2.5,3.25,3.25,0,0,0,2.64-4.65,5,5,0,0,1,3.89-6.88,3.47,3.47,0,0,0,2.54-1.65l1.58.89a5.23,5.23,0,0,1-3.63,2.5,3.25,3.25,0,0,0-2.64,4.65,5,5,0,0,1-3.89,6.88,3.51,3.51,0,0,0-2.54,1.65,3.46,3.46,0,0,0-.1,3,5.15,5.15,0,0,1-.26,4.38,5.25,5.25,0,0,1-3.63,2.5A3.47,3.47,0,0,0,12.63,336Z"/><path class="cls-1" d="M117,362.27a5.5,5.5,0,1,1,5.53-5.5A5.51,5.51,0,0,1,117,362.27Zm0-8.64a3.15,3.15,0,1,0,3.16,3.14A3.16,3.16,0,0,0,117,353.63Z"/><path class="cls-1" d="M75.79,423.8a5.5,5.5,0,1,1,5.53-5.5A5.51,5.51,0,0,1,75.79,423.8Zm0-8.65A3.15,3.15,0,1,0,79,418.3,3.16,3.16,0,0,0,75.79,415.15Z"/><path class="cls-1" d="M5.53,405.45a5.5,5.5,0,1,1,5.52-5.5A5.52,5.52,0,0,1,5.53,405.45Zm0-8.64A3.15,3.15,0,1,0,8.68,400,3.16,3.16,0,0,0,5.53,396.81Z"/><polygon class="cls-1" points="476.69 220.45 477.98 218.47 488.27 225.1 495.58 213.87 506.86 221.15 514.17 209.92 526.44 217.84 525.15 219.81 514.87 213.18 507.56 224.41 496.28 217.13 488.97 228.37 476.69 220.45"/><polygon class="cls-1" points="490.64 300 488.97 299.96 489.89 291.43 480.43 291.21 481.44 281.85 471.98 281.63 473.08 271.44 474.74 271.48 473.82 280.02 483.28 280.24 482.27 289.6 491.73 289.81 490.64 300"/><polygon class="cls-1" points="573.15 182.05 572.07 180.78 579.08 175.79 572.96 168.61 580.65 163.13 574.52 155.96 582.89 150 583.97 151.26 576.96 156.26 583.08 163.43 575.39 168.91 581.52 176.09 573.15 182.05"/><polygon class="cls-1" points="530.96 158.22 511.54 186.89 509.58 185.57 528.99 156.9 530.96 158.22"/><polygon class="cls-1" points="555.05 281.12 575.21 294.65 574.29 296.02 554.12 282.49 555.05 281.12"/><path class="cls-1" d="M600,264.81l-1.46,1.86a6.77,6.77,0,0,1-2.53-5.16c-.17-1.43-.31-2.56-1.64-3.59s-2.46-.9-3.89-.73a6.59,6.59,0,0,1-8.17-6.37c-.17-1.43-.31-2.55-1.63-3.59s-2.46-.9-3.9-.72a6.88,6.88,0,0,1-5.64-1.21,6.79,6.79,0,0,1-2.52-5.16c-.18-1.43-.31-2.56-1.64-3.59l1.46-1.86a6.77,6.77,0,0,1,2.53,5.16c.17,1.43.31,2.56,1.64,3.59s2.45.9,3.89.73a6.58,6.58,0,0,1,8.16,6.37c.18,1.42.31,2.55,1.64,3.58s2.46.9,3.89.73a6.59,6.59,0,0,1,8.17,6.37C598.54,262.65,598.67,263.78,600,264.81Z"/><path class="cls-1" d="M462.63,186l-1.58-.89a5.21,5.21,0,0,1,3.63-2.49,3.51,3.51,0,0,0,2.54-1.65,3.43,3.43,0,0,0,.1-3,5,5,0,0,1,3.89-6.88,3.47,3.47,0,0,0,2.54-1.65,3.43,3.43,0,0,0,.1-3,5.15,5.15,0,0,1,.27-4.38,5.21,5.21,0,0,1,3.62-2.5,3.46,3.46,0,0,0,2.54-1.64l1.58.88a5.23,5.23,0,0,1-3.63,2.5,3.25,3.25,0,0,0-2.64,4.65,5,5,0,0,1-3.89,6.88,3.51,3.51,0,0,0-2.54,1.65,3.46,3.46,0,0,0-.1,3,5.15,5.15,0,0,1-.26,4.38,5.22,5.22,0,0,1-3.63,2.5A3.47,3.47,0,0,0,462.63,186Z"/><path class="cls-1" d="M567,212.28a5.51,5.51,0,1,1,5.53-5.5A5.51,5.51,0,0,1,567,212.28Zm0-8.65a3.15,3.15,0,1,0,3.16,3.15A3.16,3.16,0,0,0,567,203.63Z"/><path class="cls-1" d="M525.79,273.8a5.5,5.5,0,1,1,5.53-5.5A5.51,5.51,0,0,1,525.79,273.8Zm0-8.64A3.14,3.14,0,1,0,529,268.3,3.16,3.16,0,0,0,525.79,265.16Z"/><path class="cls-1" d="M455.53,255.46a5.51,5.51,0,1,1,5.52-5.5A5.52,5.52,0,0,1,455.53,255.46Zm0-8.65a3.15,3.15,0,1,0,3.15,3.15A3.16,3.16,0,0,0,455.53,246.81Z"/><polygon class="cls-1" points="326.69 220.45 327.98 218.47 338.27 225.1 345.58 213.87 356.86 221.15 364.17 209.92 376.44 217.84 375.15 219.81 364.87 213.18 357.56 224.41 346.28 217.13 338.97 228.37 326.69 220.45"/><polygon class="cls-1" points="340.64 300 338.97 299.96 339.89 291.43 330.43 291.21 331.44 281.85 321.98 281.63 323.08 271.44 324.74 271.48 323.82 280.02 333.28 280.24 332.27 289.6 341.73 289.81 340.64 300"/><polygon class="cls-1" points="423.15 182.05 422.07 180.78 429.08 175.79 422.96 168.61 430.65 163.13 424.52 155.96 432.89 150 433.97 151.26 426.96 156.26 433.08 163.43 425.39 168.91 431.52 176.09 423.15 182.05"/><polygon class="cls-1" points="380.95 158.22 361.54 186.89 359.58 185.57 378.99 156.9 380.95 158.22"/><polygon class="cls-1" points="405.05 281.12 425.21 294.65 424.29 296.02 404.12 282.49 405.05 281.12"/><path class="cls-1" d="M450,264.81l-1.46,1.86a6.77,6.77,0,0,1-2.53-5.16c-.17-1.43-.31-2.56-1.64-3.59s-2.46-.9-3.89-.73a6.59,6.59,0,0,1-8.17-6.37c-.17-1.43-.31-2.55-1.63-3.59s-2.46-.9-3.9-.72a6.88,6.88,0,0,1-5.64-1.21,6.79,6.79,0,0,1-2.52-5.16c-.18-1.43-.31-2.56-1.64-3.59l1.46-1.86a6.77,6.77,0,0,1,2.53,5.16c.17,1.43.31,2.56,1.64,3.59s2.45.9,3.89.73a6.58,6.58,0,0,1,8.16,6.37c.18,1.42.31,2.55,1.64,3.58s2.46.9,3.89.73a6.59,6.59,0,0,1,8.17,6.37C448.54,262.65,448.67,263.78,450,264.81Z"/><path class="cls-1" d="M312.63,186l-1.58-.89a5.21,5.21,0,0,1,3.63-2.49,3.51,3.51,0,0,0,2.54-1.65,3.43,3.43,0,0,0,.1-3,5,5,0,0,1,3.89-6.88,3.47,3.47,0,0,0,2.54-1.65,3.43,3.43,0,0,0,.1-3,5.15,5.15,0,0,1,.27-4.38,5.21,5.21,0,0,1,3.62-2.5,3.46,3.46,0,0,0,2.54-1.64l1.58.88a5.23,5.23,0,0,1-3.63,2.5,3.25,3.25,0,0,0-2.64,4.65,5,5,0,0,1-3.89,6.88,3.51,3.51,0,0,0-2.54,1.65,3.46,3.46,0,0,0-.1,3,5.15,5.15,0,0,1-.26,4.38,5.22,5.22,0,0,1-3.63,2.5A3.47,3.47,0,0,0,312.63,186Z"/><path class="cls-1" d="M417,212.28a5.51,5.51,0,1,1,5.53-5.5A5.51,5.51,0,0,1,417,212.28Zm0-8.65a3.15,3.15,0,1,0,3.16,3.15A3.16,3.16,0,0,0,417,203.63Z"/><path class="cls-1" d="M375.79,273.8a5.5,5.5,0,1,1,5.53-5.5A5.51,5.51,0,0,1,375.79,273.8Zm0-8.64A3.14,3.14,0,1,0,379,268.3,3.16,3.16,0,0,0,375.79,265.16Z"/><path class="cls-1" d="M305.53,255.46a5.51,5.51,0,1,1,5.52-5.5A5.52,5.52,0,0,1,305.53,255.46Zm0-8.65a3.15,3.15,0,1,0,3.15,3.15A3.16,3.16,0,0,0,305.53,246.81Z"/><polygon class="cls-1" points="176.69 220.45 177.97 218.47 188.27 225.1 195.58 213.87 206.86 221.15 214.17 209.92 226.44 217.84 225.16 219.81 214.87 213.18 207.56 224.41 196.28 217.13 188.97 228.37 176.69 220.45"/><polygon class="cls-1" points="190.64 300 188.97 299.96 189.89 291.43 180.43 291.21 181.44 281.85 171.98 281.63 173.08 271.44 174.74 271.48 173.82 280.02 183.28 280.24 182.27 289.6 191.73 289.81 190.64 300"/><polygon class="cls-1" points="273.15 182.05 272.07 180.78 279.08 175.79 272.96 168.61 280.65 163.13 274.52 155.96 282.89 150 283.97 151.26 276.96 156.26 283.08 163.43 275.39 168.91 281.52 176.09 273.15 182.05"/><polygon class="cls-1" points="230.96 158.22 211.54 186.89 209.58 185.57 228.99 156.9 230.96 158.22"/><polygon class="cls-1" points="255.05 281.12 275.21 294.65 274.29 296.02 254.12 282.49 255.05 281.12"/><path class="cls-1" d="M300,264.81l-1.46,1.86a6.77,6.77,0,0,1-2.53-5.16c-.17-1.43-.31-2.56-1.64-3.59s-2.46-.9-3.89-.73a6.59,6.59,0,0,1-8.17-6.37c-.17-1.43-.31-2.55-1.63-3.59s-2.46-.9-3.9-.72a6.88,6.88,0,0,1-5.64-1.21,6.79,6.79,0,0,1-2.52-5.16c-.18-1.43-.31-2.56-1.64-3.59l1.46-1.86a6.77,6.77,0,0,1,2.53,5.16c.17,1.43.31,2.56,1.64,3.59s2.45.9,3.89.73a6.58,6.58,0,0,1,8.16,6.37c.18,1.42.31,2.55,1.64,3.58s2.46.9,3.89.73a6.59,6.59,0,0,1,8.17,6.37C298.54,262.65,298.67,263.78,300,264.81Z"/><path class="cls-1" d="M162.63,186l-1.58-.89a5.21,5.21,0,0,1,3.63-2.49,3.49,3.49,0,0,0,2.54-1.65,3.43,3.43,0,0,0,.1-3,5,5,0,0,1,3.89-6.88,3.47,3.47,0,0,0,2.54-1.65,3.43,3.43,0,0,0,.1-3,5.15,5.15,0,0,1,.27-4.38,5.21,5.21,0,0,1,3.62-2.5,3.46,3.46,0,0,0,2.54-1.64l1.58.88a5.23,5.23,0,0,1-3.63,2.5,3.25,3.25,0,0,0-2.64,4.65,5,5,0,0,1-3.89,6.88,3.51,3.51,0,0,0-2.54,1.65,3.46,3.46,0,0,0-.1,3,5.15,5.15,0,0,1-.26,4.38,5.22,5.22,0,0,1-3.63,2.5A3.47,3.47,0,0,0,162.63,186Z"/><path class="cls-1" d="M267,212.28a5.51,5.51,0,1,1,5.53-5.5A5.51,5.51,0,0,1,267,212.28Zm0-8.65a3.15,3.15,0,1,0,3.16,3.15A3.16,3.16,0,0,0,267,203.63Z"/><path class="cls-1" d="M225.79,273.8a5.5,5.5,0,1,1,5.53-5.5A5.51,5.51,0,0,1,225.79,273.8Zm0-8.64A3.14,3.14,0,1,0,229,268.3,3.16,3.16,0,0,0,225.79,265.16Z"/><path class="cls-1" d="M155.53,255.46a5.51,5.51,0,1,1,5.52-5.5A5.52,5.52,0,0,1,155.53,255.46Zm0-8.65a3.15,3.15,0,1,0,3.15,3.15A3.16,3.16,0,0,0,155.53,246.81Z"/><polygon class="cls-1" points="26.69 220.45 27.98 218.47 38.27 225.1 45.58 213.87 56.86 221.15 64.17 209.92 76.44 217.84 75.16 219.81 64.87 213.18 57.56 224.41 46.28 217.13 38.97 228.37 26.69 220.45"/><polygon class="cls-1" points="40.64 300 38.97 299.96 39.89 291.43 30.43 291.21 31.44 281.85 21.98 281.63 23.08 271.44 24.74 271.48 23.82 280.02 33.28 280.24 32.27 289.6 41.73 289.81 40.64 300"/><polygon class="cls-1" points="123.15 182.05 122.07 180.78 129.08 175.79 122.96 168.61 130.65 163.13 124.52 155.96 132.89 150 133.97 151.26 126.96 156.26 133.08 163.43 125.39 168.91 131.52 176.09 123.15 182.05"/><polygon class="cls-1" points="80.95 158.22 61.54 186.89 59.58 185.57 78.99 156.9 80.95 158.22"/><polygon class="cls-1" points="105.05 281.12 125.21 294.65 124.29 296.02 104.12 282.49 105.05 281.12"/><path class="cls-1" d="M150,264.81l-1.46,1.86a6.77,6.77,0,0,1-2.53-5.16c-.17-1.43-.31-2.56-1.64-3.59s-2.46-.9-3.89-.73a6.59,6.59,0,0,1-8.17-6.37c-.17-1.43-.31-2.55-1.63-3.59s-2.46-.9-3.9-.72a6.88,6.88,0,0,1-5.64-1.21,6.79,6.79,0,0,1-2.52-5.16c-.18-1.43-.31-2.56-1.64-3.59l1.46-1.86a6.77,6.77,0,0,1,2.53,5.16c.17,1.43.31,2.56,1.64,3.59s2.45.9,3.89.73a6.58,6.58,0,0,1,8.16,6.37c.18,1.42.31,2.55,1.64,3.58s2.46.9,3.89.73a6.59,6.59,0,0,1,8.17,6.37C148.54,262.65,148.67,263.78,150,264.81Z"/><path class="cls-1" d="M12.63,186l-1.58-.89a5.21,5.21,0,0,1,3.63-2.49,3.49,3.49,0,0,0,2.54-1.65,3.43,3.43,0,0,0,.1-3A5,5,0,0,1,21.21,171a3.47,3.47,0,0,0,2.54-1.65,3.43,3.43,0,0,0,.1-3,5.15,5.15,0,0,1,.27-4.38,5.21,5.21,0,0,1,3.62-2.5,3.46,3.46,0,0,0,2.54-1.64l1.58.88a5.23,5.23,0,0,1-3.63,2.5,3.25,3.25,0,0,0-2.64,4.65,5,5,0,0,1-3.89,6.88,3.51,3.51,0,0,0-2.54,1.65,3.46,3.46,0,0,0-.1,3,5.15,5.15,0,0,1-.26,4.38,5.22,5.22,0,0,1-3.63,2.5A3.47,3.47,0,0,0,12.63,186Z"/><path class="cls-1" d="M117,212.28a5.51,5.51,0,1,1,5.53-5.5A5.51,5.51,0,0,1,117,212.28Zm0-8.65a3.15,3.15,0,1,0,3.16,3.15A3.16,3.16,0,0,0,117,203.63Z"/><path class="cls-1" d="M75.79,273.8a5.5,5.5,0,1,1,5.53-5.5A5.51,5.51,0,0,1,75.79,273.8Zm0-8.64A3.14,3.14,0,1,0,79,268.3,3.16,3.16,0,0,0,75.79,265.16Z"/><path class="cls-1" d="M5.53,255.46a5.51,5.51,0,1,1,5.52-5.5A5.52,5.52,0,0,1,5.53,255.46Zm0-8.65A3.15,3.15,0,1,0,8.68,250,3.16,3.16,0,0,0,5.53,246.81Z"/><polygon class="cls-1" points="476.69 70.45 477.98 68.47 488.27 75.11 495.58 63.88 506.86 71.15 514.17 59.92 526.44 67.84 525.15 69.81 514.87 63.18 507.56 74.41 496.28 67.14 488.97 78.37 476.69 70.45"/><polygon class="cls-1" points="490.64 150 488.97 149.97 489.89 141.43 480.43 141.21 481.44 131.85 471.98 131.63 473.08 121.44 474.74 121.48 473.82 130.02 483.28 130.24 482.27 139.6 491.73 139.82 490.64 150"/><polygon class="cls-1" points="573.15 32.05 572.07 30.79 579.08 25.79 572.96 18.61 580.65 13.13 574.52 5.96 582.89 0 583.97 1.26 576.96 6.26 583.08 13.43 575.39 18.91 581.52 26.09 573.15 32.05"/><polygon class="cls-1" points="530.96 8.22 511.54 36.89 509.58 35.58 528.99 6.9 530.96 8.22"/><polygon class="cls-1" points="555.05 131.12 575.21 144.65 574.29 146.02 554.12 132.49 555.05 131.12"/><path class="cls-1" d="M600,114.81l-1.46,1.86a6.77,6.77,0,0,1-2.53-5.16c-.17-1.43-.31-2.56-1.64-3.59s-2.46-.9-3.89-.73a6.84,6.84,0,0,1-5.64-1.21,6.76,6.76,0,0,1-2.53-5.16c-.17-1.43-.31-2.55-1.63-3.59s-2.46-.89-3.9-.72a6.58,6.58,0,0,1-8.16-6.37c-.18-1.43-.31-2.55-1.64-3.59l1.46-1.85A6.76,6.76,0,0,1,571,89.86c.17,1.42.31,2.55,1.64,3.58s2.45.9,3.89.73a6.58,6.58,0,0,1,8.16,6.37c.18,1.43.31,2.55,1.64,3.59s2.46.89,3.89.72a6.87,6.87,0,0,1,5.64,1.21,6.77,6.77,0,0,1,2.53,5.16C598.54,112.65,598.67,113.78,600,114.81Z"/><path class="cls-1" d="M462.63,36l-1.58-.88a5.2,5.2,0,0,1,3.63-2.5,3.51,3.51,0,0,0,2.54-1.65,3.43,3.43,0,0,0,.1-3A5,5,0,0,1,471.21,21a3.47,3.47,0,0,0,2.54-1.65,3.43,3.43,0,0,0,.1-3,5.16,5.16,0,0,1,.27-4.38,5.21,5.21,0,0,1,3.62-2.5,3.46,3.46,0,0,0,2.54-1.64l1.58.88a5.23,5.23,0,0,1-3.63,2.5,3.49,3.49,0,0,0-2.54,1.64,3.49,3.49,0,0,0-.1,3,5.15,5.15,0,0,1-.26,4.38,5.21,5.21,0,0,1-3.63,2.49,3.51,3.51,0,0,0-2.54,1.65,3.47,3.47,0,0,0-.1,3,5.15,5.15,0,0,1-.26,4.38,5.22,5.22,0,0,1-3.63,2.5A3.47,3.47,0,0,0,462.63,36Z"/><path class="cls-1" d="M567,62.28a5.5,5.5,0,1,1,5.53-5.5A5.51,5.51,0,0,1,567,62.28Zm0-8.65a3.15,3.15,0,1,0,3.16,3.15A3.16,3.16,0,0,0,567,53.63Z"/><path class="cls-1" d="M525.79,123.8a5.5,5.5,0,1,1,5.53-5.5A5.51,5.51,0,0,1,525.79,123.8Zm0-8.64A3.14,3.14,0,1,0,529,118.3,3.16,3.16,0,0,0,525.79,115.16Z"/><path class="cls-1" d="M455.53,105.46a5.5,5.5,0,1,1,5.52-5.5A5.52,5.52,0,0,1,455.53,105.46Zm0-8.65a3.15,3.15,0,1,0,3.15,3.15A3.16,3.16,0,0,0,455.53,96.81Z"/><polygon class="cls-1" points="326.69 70.45 327.98 68.47 338.27 75.11 345.58 63.88 356.86 71.15 364.17 59.92 376.44 67.84 375.15 69.81 364.87 63.18 357.56 74.41 346.28 67.14 338.97 78.37 326.69 70.45"/><polygon class="cls-1" points="340.64 150 338.97 149.97 339.89 141.43 330.43 141.21 331.44 131.85 321.98 131.63 323.08 121.44 324.74 121.48 323.82 130.02 333.28 130.24 332.27 139.6 341.73 139.82 340.64 150"/><polygon class="cls-1" points="423.15 32.05 422.07 30.79 429.08 25.79 422.96 18.61 430.65 13.13 424.52 5.96 432.89 0 433.97 1.26 426.96 6.26 433.08 13.43 425.39 18.91 431.52 26.09 423.15 32.05"/><polygon class="cls-1" points="380.95 8.22 361.54 36.89 359.58 35.58 378.99 6.9 380.95 8.22"/><polygon class="cls-1" points="405.05 131.12 425.21 144.65 424.29 146.02 404.12 132.49 405.05 131.12"/><path class="cls-1" d="M450,114.81l-1.46,1.86a6.77,6.77,0,0,1-2.53-5.16c-.17-1.43-.31-2.56-1.64-3.59s-2.46-.9-3.89-.73a6.84,6.84,0,0,1-5.64-1.21,6.76,6.76,0,0,1-2.53-5.16c-.17-1.43-.31-2.55-1.63-3.59s-2.46-.89-3.9-.72a6.58,6.58,0,0,1-8.16-6.37c-.18-1.43-.31-2.55-1.64-3.59l1.46-1.85A6.76,6.76,0,0,1,421,89.86c.17,1.42.31,2.55,1.64,3.58s2.45.9,3.89.73a6.58,6.58,0,0,1,8.16,6.37c.18,1.43.31,2.55,1.64,3.59s2.46.89,3.89.72a6.87,6.87,0,0,1,5.64,1.21,6.77,6.77,0,0,1,2.53,5.16C448.54,112.65,448.67,113.78,450,114.81Z"/><path class="cls-1" d="M312.63,36l-1.58-.88a5.2,5.2,0,0,1,3.63-2.5,3.51,3.51,0,0,0,2.54-1.65,3.43,3.43,0,0,0,.1-3A5,5,0,0,1,321.21,21a3.47,3.47,0,0,0,2.54-1.65,3.43,3.43,0,0,0,.1-3,5.16,5.16,0,0,1,.27-4.38,5.21,5.21,0,0,1,3.62-2.5,3.46,3.46,0,0,0,2.54-1.64l1.58.88a5.23,5.23,0,0,1-3.63,2.5,3.49,3.49,0,0,0-2.54,1.64,3.49,3.49,0,0,0-.1,3,5.15,5.15,0,0,1-.26,4.38,5.21,5.21,0,0,1-3.63,2.49,3.51,3.51,0,0,0-2.54,1.65,3.47,3.47,0,0,0-.1,3,5.15,5.15,0,0,1-.26,4.38,5.22,5.22,0,0,1-3.63,2.5A3.47,3.47,0,0,0,312.63,36Z"/><path class="cls-1" d="M417,62.28a5.5,5.5,0,1,1,5.53-5.5A5.51,5.51,0,0,1,417,62.28Zm0-8.65a3.15,3.15,0,1,0,3.16,3.15A3.16,3.16,0,0,0,417,53.63Z"/><path class="cls-1" d="M375.79,123.8a5.5,5.5,0,1,1,5.53-5.5A5.51,5.51,0,0,1,375.79,123.8Zm0-8.64A3.14,3.14,0,1,0,379,118.3,3.16,3.16,0,0,0,375.79,115.16Z"/><path class="cls-1" d="M305.53,105.46a5.5,5.5,0,1,1,5.52-5.5A5.52,5.52,0,0,1,305.53,105.46Zm0-8.65a3.15,3.15,0,1,0,3.15,3.15A3.16,3.16,0,0,0,305.53,96.81Z"/><polygon class="cls-1" points="176.69 70.45 177.97 68.47 188.27 75.11 195.58 63.88 206.86 71.15 214.17 59.92 226.44 67.84 225.16 69.81 214.87 63.18 207.56 74.41 196.28 67.14 188.97 78.37 176.69 70.45"/><polygon class="cls-1" points="190.64 150 188.97 149.97 189.89 141.43 180.43 141.21 181.44 131.85 171.98 131.63 173.08 121.44 174.74 121.48 173.82 130.02 183.28 130.24 182.27 139.6 191.73 139.82 190.64 150"/><polygon class="cls-1" points="273.15 32.05 272.07 30.79 279.08 25.79 272.96 18.61 280.65 13.13 274.52 5.96 282.89 0 283.97 1.26 276.96 6.26 283.08 13.43 275.39 18.91 281.52 26.09 273.15 32.05"/><polygon class="cls-1" points="230.96 8.22 211.54 36.89 209.58 35.58 228.99 6.9 230.96 8.22"/><polygon class="cls-1" points="255.05 131.12 275.21 144.65 274.29 146.02 254.12 132.49 255.05 131.12"/><path class="cls-1" d="M300,114.81l-1.46,1.86a6.77,6.77,0,0,1-2.53-5.16c-.17-1.43-.31-2.56-1.64-3.59s-2.46-.9-3.89-.73a6.84,6.84,0,0,1-5.64-1.21,6.76,6.76,0,0,1-2.53-5.16c-.17-1.43-.31-2.55-1.63-3.59s-2.46-.89-3.9-.72a6.58,6.58,0,0,1-8.16-6.37c-.18-1.43-.31-2.55-1.64-3.59l1.46-1.85A6.76,6.76,0,0,1,271,89.86c.17,1.42.31,2.55,1.64,3.58s2.45.9,3.89.73a6.58,6.58,0,0,1,8.16,6.37c.18,1.43.31,2.55,1.64,3.59s2.46.89,3.89.72a6.87,6.87,0,0,1,5.64,1.21,6.77,6.77,0,0,1,2.53,5.16C298.54,112.65,298.67,113.78,300,114.81Z"/><path class="cls-1" d="M162.63,36l-1.58-.88a5.2,5.2,0,0,1,3.63-2.5,3.49,3.49,0,0,0,2.54-1.65,3.43,3.43,0,0,0,.1-3A5,5,0,0,1,171.21,21a3.47,3.47,0,0,0,2.54-1.65,3.43,3.43,0,0,0,.1-3,5.16,5.16,0,0,1,.27-4.38,5.21,5.21,0,0,1,3.62-2.5,3.46,3.46,0,0,0,2.54-1.64l1.58.88a5.23,5.23,0,0,1-3.63,2.5,3.49,3.49,0,0,0-2.54,1.64,3.49,3.49,0,0,0-.1,3,5.15,5.15,0,0,1-.26,4.38,5.21,5.21,0,0,1-3.63,2.49,3.51,3.51,0,0,0-2.54,1.65,3.47,3.47,0,0,0-.1,3,5.15,5.15,0,0,1-.26,4.38,5.22,5.22,0,0,1-3.63,2.5A3.47,3.47,0,0,0,162.63,36Z"/><path class="cls-1" d="M267,62.28a5.5,5.5,0,1,1,5.53-5.5A5.51,5.51,0,0,1,267,62.28Zm0-8.65a3.15,3.15,0,1,0,3.16,3.15A3.16,3.16,0,0,0,267,53.63Z"/><path class="cls-1" d="M225.79,123.8a5.5,5.5,0,1,1,5.53-5.5A5.51,5.51,0,0,1,225.79,123.8Zm0-8.64A3.14,3.14,0,1,0,229,118.3,3.16,3.16,0,0,0,225.79,115.16Z"/><path class="cls-1" d="M155.53,105.46a5.5,5.5,0,1,1,5.52-5.5A5.52,5.52,0,0,1,155.53,105.46Zm0-8.65a3.15,3.15,0,1,0,3.15,3.15A3.16,3.16,0,0,0,155.53,96.81Z"/><polygon class="cls-1" points="26.69 70.45 27.98 68.47 38.27 75.11 45.58 63.88 56.86 71.15 64.17 59.92 76.44 67.84 75.16 69.81 64.87 63.18 57.56 74.41 46.28 67.14 38.97 78.37 26.69 70.45"/><polygon class="cls-1" points="40.64 150 38.97 149.97 39.89 141.43 30.43 141.21 31.44 131.85 21.98 131.63 23.08 121.44 24.74 121.48 23.82 130.02 33.28 130.24 32.27 139.6 41.73 139.82 40.64 150"/><polygon class="cls-1" points="123.15 32.05 122.07 30.79 129.08 25.79 122.96 18.61 130.65 13.13 124.52 5.96 132.89 0 133.97 1.26 126.96 6.26 133.08 13.43 125.39 18.91 131.52 26.09 123.15 32.05"/><polygon class="cls-1" points="80.95 8.22 61.54 36.89 59.58 35.58 78.99 6.9 80.95 8.22"/><polygon class="cls-1" points="105.05 131.12 125.21 144.65 124.29 146.02 104.12 132.49 105.05 131.12"/><path class="cls-1" d="M150,114.81l-1.46,1.86a6.77,6.77,0,0,1-2.53-5.16c-.17-1.43-.31-2.56-1.64-3.59s-2.46-.9-3.89-.73a6.84,6.84,0,0,1-5.64-1.21,6.76,6.76,0,0,1-2.53-5.16c-.17-1.43-.31-2.55-1.63-3.59s-2.46-.89-3.9-.72a6.58,6.58,0,0,1-8.16-6.37c-.18-1.43-.31-2.55-1.64-3.59l1.46-1.85A6.76,6.76,0,0,1,121,89.86c.17,1.42.31,2.55,1.64,3.58s2.45.9,3.89.73a6.58,6.58,0,0,1,8.16,6.37c.18,1.43.31,2.55,1.64,3.59s2.46.89,3.89.72a6.87,6.87,0,0,1,5.64,1.21,6.77,6.77,0,0,1,2.53,5.16C148.54,112.65,148.67,113.78,150,114.81Z"/><path class="cls-1" d="M12.63,36l-1.58-.88a5.2,5.2,0,0,1,3.63-2.5,3.49,3.49,0,0,0,2.54-1.65,3.43,3.43,0,0,0,.1-3A5,5,0,0,1,21.21,21a3.47,3.47,0,0,0,2.54-1.65,3.43,3.43,0,0,0,.1-3A5.16,5.16,0,0,1,24.12,12a5.21,5.21,0,0,1,3.62-2.5,3.46,3.46,0,0,0,2.54-1.64l1.58.88a5.23,5.23,0,0,1-3.63,2.5,3.49,3.49,0,0,0-2.54,1.64,3.49,3.49,0,0,0-.1,3,5.15,5.15,0,0,1-.26,4.38,5.21,5.21,0,0,1-3.63,2.49,3.51,3.51,0,0,0-2.54,1.65,3.47,3.47,0,0,0-.1,3,5.15,5.15,0,0,1-.26,4.38,5.22,5.22,0,0,1-3.63,2.5A3.47,3.47,0,0,0,12.63,36Z"/><path class="cls-1" d="M117,62.28a5.5,5.5,0,1,1,5.53-5.5A5.51,5.51,0,0,1,117,62.28Zm0-8.65a3.15,3.15,0,1,0,3.16,3.15A3.16,3.16,0,0,0,117,53.63Z"/><path class="cls-1" d="M75.79,123.8a5.5,5.5,0,1,1,5.53-5.5A5.51,5.51,0,0,1,75.79,123.8Zm0-8.64A3.14,3.14,0,1,0,79,118.3,3.16,3.16,0,0,0,75.79,115.16Z"/><path class="cls-1" d="M5.53,105.46a5.5,5.5,0,1,1,5.52-5.5A5.52,5.52,0,0,1,5.53,105.46Zm0-8.65A3.15,3.15,0,1,0,8.68,100,3.16,3.16,0,0,0,5.53,96.81Z"/></svg>