<svg id="Layer_1" data-name="Layer 1" xmlns="http://www.w3.org/2000/svg" viewBox="0 0 339.16 581.64"><defs><style>.cls-1{fill:#231f20;}.cls-2{fill:#6d6e71;}.cls-3{fill:#424b5c;}.cls-4{fill:#81c784;}.cls-5{fill:#fff;}.cls-6{fill:#43a047;}.cls-7{fill:#2e2b34;}.cls-8{fill:#efefef;}.cls-9{fill:#f26522;}.cls-10{fill:#f4b998;}.cls-11{fill:#dd9868;}.cls-12{fill:#4e1c02;}.cls-13{fill:#f29865;}.cls-14{fill:#46220c;}.cls-15{fill:#e6e7e8;}.cls-16{fill:#592d14;}.cls-17{fill:#413d4c;}.cls-18{fill:#e57373;}</style></defs><title>phone</title><rect class="cls-1" width="336.46" height="581.64" rx="52.65" ry="52.65"/><rect class="cls-1" x="2.7" width="336.46" height="581.64" rx="52.65" ry="52.65"/><rect class="cls-2" x="119.27" y="23.57" width="96.23" height="12.03" rx="4.16" ry="4.16"/><polygon class="cls-3" points="311.19 54.97 296.65 54.97 266.63 54.97 186.69 54.97 186.69 54.4 154.84 54.4 154.84 54.97 62.5 54.97 30.75 54.97 30.66 54.97 30.66 110.65 30.75 110.65 30.75 113.83 30.66 113.83 30.66 135.06 30.75 135.06 30.75 197.68 30.66 197.68 30.66 218.91 30.75 218.91 30.75 290.84 30.75 323.17 30.75 354.77 30.66 354.77 30.66 376 30.75 376 30.75 526.88 86.13 526.88 107.36 526.88 234.46 526.88 264.48 526.88 267.35 526.88 267.35 527.24 288.58 527.24 288.58 526.88 311.19 526.88 311.19 54.97"/><rect class="cls-2" x="121.22" y="543.18" width="91.81" height="15.92"/><circle class="cls-4" cx="429.44" cy="632.22" r="54.84" transform="translate(-614.95 695.74) rotate(-76.72)"/><path class="cls-5" d="M418.7,644.35l-1.64-3.52a12.64,12.64,0,0,0-5.87-6,3.45,3.45,0,0,0-4,.65l-12.71,12.71a3.47,3.47,0,0,0-.73,3.82,13.34,13.34,0,0,0,4.83,5.78l5.08,3.4a12.57,12.57,0,0,0,12.45.86,93.55,93.55,0,0,0,44.71-45.57,12.56,12.56,0,0,0-.08-10.39L457.92,600a12.64,12.64,0,0,0-5.87-6,3.44,3.44,0,0,0-4,.65l-12.71,12.71a3.44,3.44,0,0,0-.72,3.81,13.29,13.29,0,0,0,4.82,5.79l3.9,2.6A79.05,79.05,0,0,1,418.7,644.35Z" transform="translate(-330.42 -209.18)"/><circle class="cls-6" cx="172.96" cy="222.97" r="87.24"/><path class="cls-7" d="M448.33,499.82a86.87,86.87,0,0,0,55.05,19.57h.21V474.33Z" transform="translate(-330.42 -209.18)"/><path class="cls-7" d="M503.6,474.34v45a86.78,86.78,0,0,0,54.25-19.09l0-1.07Z" transform="translate(-330.42 -209.18)"/><path class="cls-8" d="M476,486.41,487.73,518a87.75,87.75,0,0,0,31.77-.08l11.75-31.49Z" transform="translate(-330.42 -209.18)"/><polygon class="cls-9" points="164.06 289.08 168.33 301.79 173.18 301.79 178.03 301.79 182.3 289.08 173.13 282.26 164.06 289.08"/><path class="cls-9" d="M499.62,510.78l-1.06,8.47c1.6.09,3.21.14,4.82.14s3.51-.06,5.24-.16l-1-8.45Z" transform="translate(-330.42 -209.18)"/><rect class="cls-10" x="161.32" y="259.51" width="23.71" height="18.85"/><path class="cls-10" d="M474.61,418.62a12.08,12.08,0,1,0,12.07,12.08A12.07,12.07,0,0,0,474.61,418.62Z" transform="translate(-330.42 -209.18)"/><path class="cls-11" d="M474.61,425.5a5.2,5.2,0,1,0,5.2,5.2A5.2,5.2,0,0,0,474.61,425.5Z" transform="translate(-330.42 -209.18)"/><path class="cls-11" d="M491.75,474.25a28.5,28.5,0,0,0,23.7,0v-5h-23.7Z" transform="translate(-330.42 -209.18)"/><circle class="cls-10" cx="532.59" cy="430.7" r="12.07" transform="translate(-415.13 -75.29) rotate(-13.28)"/><path class="cls-11" d="M532.59,425.5a5.2,5.2,0,1,0,5.2,5.2A5.2,5.2,0,0,0,532.59,425.5Z" transform="translate(-330.42 -209.18)"/><path class="cls-10" d="M533.27,418.08v-26H473.59V418.9c0,1.26,0,1.73,0,3v20.58a29.72,29.72,0,0,0,29.72,29.72h.5a29.72,29.72,0,0,0,29.72-29.72V421.94a28.87,28.87,0,0,0-.26-3.86Z" transform="translate(-330.42 -209.18)"/><path class="cls-5" d="M519.09,416.7a5.76,5.76,0,1,0,6.26,5.74A6,6,0,0,0,519.09,416.7Z" transform="translate(-330.42 -209.18)"/><ellipse class="cls-12" cx="188.67" cy="213.26" rx="4.63" ry="4.25"/><path class="cls-13" d="M519,415.3a7.46,7.46,0,0,0-6.71,3.93c5.06-2.18,8.13-2.26,13.62-.51A8.09,8.09,0,0,0,519,415.3Z" transform="translate(-330.42 -209.18)"/><path class="cls-1" d="M519.09,420.79a1.65,1.65,0,1,0,1.65,1.65A1.65,1.65,0,0,0,519.09,420.79Z" transform="translate(-330.42 -209.18)"/><path class="cls-5" d="M519.78,418.25c0,.11,0,.22,0,.33a2.59,2.59,0,0,0,2.59,2.59,2.5,2.5,0,0,0,1.07-.23A4.56,4.56,0,0,0,519.78,418.25Z" transform="translate(-330.42 -209.18)"/><path class="cls-5" d="M517.66,419.23a.77.77,0,1,0,.77.77A.76.76,0,0,0,517.66,419.23Z" transform="translate(-330.42 -209.18)"/><path class="cls-5" d="M488.61,416.7a5.76,5.76,0,1,0,6.26,5.74A6,6,0,0,0,488.61,416.7Z" transform="translate(-330.42 -209.18)"/><ellipse class="cls-12" cx="158.19" cy="213.26" rx="4.63" ry="4.25"/><path class="cls-13" d="M488.72,415.3a8.07,8.07,0,0,0-6.91,3.42c5.49-1.75,8.56-1.67,13.61.51A7.43,7.43,0,0,0,488.72,415.3Z" transform="translate(-330.42 -209.18)"/><path class="cls-1" d="M488.61,420.79a1.65,1.65,0,1,0,1.66,1.65A1.65,1.65,0,0,0,488.61,420.79Z" transform="translate(-330.42 -209.18)"/><path class="cls-5" d="M484.29,420.94a2.57,2.57,0,0,0,1.07.23,2.6,2.6,0,0,0,2.6-2.59,1.86,1.86,0,0,0,0-.33A4.59,4.59,0,0,0,484.29,420.94Z" transform="translate(-330.42 -209.18)"/><path class="cls-5" d="M490.05,419.23a.77.77,0,1,0,.77.77A.76.76,0,0,0,490.05,419.23Z" transform="translate(-330.42 -209.18)"/><path class="cls-14" d="M496.8,411c-6.17-4.92-12.72-1.62-15.33.82a1.57,1.57,0,0,0,1.07,2.72,1.52,1.52,0,0,0,1.07-.43c.23-.21,5.62-5.13,11.23-.66a1.57,1.57,0,1,0,2-2.45Z" transform="translate(-330.42 -209.18)"/><path class="cls-14" d="M511.88,411a1.57,1.57,0,1,0,2,2.45c5.56-4.43,11,.45,11.23.67a1.57,1.57,0,0,0,2.14-2.3C524.6,409.36,518.05,406.06,511.88,411Z" transform="translate(-330.42 -209.18)"/><path class="cls-11" d="M508.58,436a8.51,8.51,0,0,1-10.36,0,1.17,1.17,0,0,0-1.47,1.82,11.06,11.06,0,0,0,6.7,2.28,10.81,10.81,0,0,0,6.53-2.25,1.17,1.17,0,1,0-1.4-1.88Z" transform="translate(-330.42 -209.18)"/><path class="cls-5" d="M496,447.2v5.23a5.91,5.91,0,0,0,5.91,5.91h4a5.53,5.53,0,0,0,5.53-5.52V447.2C505.35,451.52,501.77,451,496,447.2Z" transform="translate(-330.42 -209.18)"/><path class="cls-15" d="M496,447.2v1.91c5.68,3.57,9.46,4.08,15.45,0V447.2C505.35,451.52,501.77,451,496,447.2Z" transform="translate(-330.42 -209.18)"/><path class="cls-14" d="M530.13,379h0Z" transform="translate(-330.42 -209.18)"/><path class="cls-14" d="M534,378.65c-.57.11-1.15.19-1.73.26l-.3,0a16,16,0,0,1-1.83.1h0a19.93,19.93,0,0,1-9.33-2.32,17.22,17.22,0,0,0-22.27,5.43s0,.05,0,.08a19.8,19.8,0,0,1-9-3.1,12.72,12.72,0,0,0-15.71,1.23,19.79,19.79,0,0,0-6.1,15.05,19.3,19.3,0,0,0,.95,5.34l2,18.8h3.16c.69-4.53,3.5-21.31,7.67-22.43h0a31,31,0,0,0,46.32-1.83h0s7.72,11.61,4.81,24.26H537c3-6.58,8-19.6,3.58-43.5A20.11,20.11,0,0,1,534,378.65Z" transform="translate(-330.42 -209.18)"/><path class="cls-16" d="M518.8,379.56c-3.75,5-7.55,13.35-6.64,25.93a30.45,30.45,0,0,0,7.19-3c-.25-13.6,6.17-20.48,10.25-23.46a19.65,19.65,0,0,1-8.51-2.17A33.57,33.57,0,0,0,518.8,379.56Z" transform="translate(-330.42 -209.18)"/><path class="cls-16" d="M484.9,377.26c-.45.5-.9,1-1.34,1.63-2.89,3.87-5.83,10.49-4.53,20.72.75-1.34,1.55-2.26,2.42-2.49h0a30.58,30.58,0,0,0,2.9,2.67c-1.71-11.32,2.43-17.38,5.72-20.32l-.57-.34A13.49,13.49,0,0,0,484.9,377.26Z" transform="translate(-330.42 -209.18)"/><polygon class="cls-5" points="145.53 277.23 164.06 289.08 173.13 282.26 173.13 277.9 161.32 267.06 145.53 277.23"/><polygon class="cls-5" points="173.13 277.9 173.13 282.26 182.2 289.08 200.73 277.23 185.03 267.06 173.13 277.9"/><path class="cls-17" d="M469.28,512.47A86.8,86.8,0,0,0,487.6,518L476,486.41Z" transform="translate(-330.42 -209.18)"/><path class="cls-17" d="M519.53,517.89a87,87,0,0,0,18.26-5.55l-6.64-25.93Z" transform="translate(-330.42 -209.18)"/><path class="cls-7" d="M557.9,499.22l-21.39,9.65c0,.07.53,1.2,1.35,3.43A87,87,0,0,0,558.23,500Z" transform="translate(-330.42 -209.18)"/><path class="cls-7" d="M448.58,500a87.47,87.47,0,0,0,19.62,12c.81-2.34,1.3-3.52,1.33-3.59Z" transform="translate(-330.42 -209.18)"/><circle class="cls-18" cx="576.38" cy="632.22" r="54.84" transform="translate(-501.78 838.74) rotate(-76.72)"/><path class="cls-5" d="M594.34,633,593,636.67a12.68,12.68,0,0,0-.1,8.4,3.45,3.45,0,0,0,3.27,2.35h18a3.45,3.45,0,0,0,3.21-2.19,13.29,13.29,0,0,0,.68-7.5l-1.19-6a12.56,12.56,0,0,0-8.19-9.4,93.56,93.56,0,0,0-63.85.6,12.56,12.56,0,0,0-7.28,7.41l-2.31,6.33a12.68,12.68,0,0,0-.1,8.4,3.45,3.45,0,0,0,3.27,2.35h18a3.45,3.45,0,0,0,3.21-2.19,13.29,13.29,0,0,0,.68-7.5l-.91-4.6A79.08,79.08,0,0,1,594.34,633Z" transform="translate(-330.42 -209.18)"/></svg>