<svg id="Layer_1" data-name="Layer 1" xmlns="http://www.w3.org/2000/svg" viewBox="0 0 1519.73 603.91"><defs><style>.cls-1,.cls-18,.cls-19,.cls-38,.cls-42{fill:#4c4c4c;}.cls-1,.cls-11,.cls-12,.cls-13,.cls-14,.cls-15,.cls-16,.cls-17,.cls-18,.cls-19,.cls-2,.cls-20,.cls-21,.cls-23,.cls-24,.cls-25,.cls-31,.cls-32,.cls-35,.cls-45,.cls-46{stroke:#4d4d4d;}.cls-1,.cls-12,.cls-13,.cls-15,.cls-2,.cls-22,.cls-23,.cls-28,.cls-29,.cls-30,.cls-32,.cls-34,.cls-35,.cls-36,.cls-41,.cls-43,.cls-44,.cls-46{stroke-linecap:round;}.cls-1,.cls-11,.cls-12,.cls-13,.cls-14,.cls-15,.cls-16,.cls-17,.cls-19,.cls-2,.cls-20,.cls-21,.cls-22,.cls-23,.cls-25,.cls-27,.cls-28,.cls-29,.cls-32,.cls-33,.cls-34,.cls-35,.cls-36,.cls-37,.cls-40,.cls-41,.cls-42,.cls-43,.cls-44,.cls-45,.cls-46,.cls-47{stroke-linejoin:round;}.cls-1,.cls-11,.cls-12,.cls-13,.cls-14,.cls-15,.cls-16,.cls-17,.cls-18,.cls-19,.cls-2,.cls-20,.cls-21,.cls-22,.cls-23,.cls-24,.cls-25,.cls-26,.cls-27,.cls-28,.cls-29,.cls-30,.cls-31,.cls-33,.cls-35,.cls-37,.cls-40,.cls-41,.cls-42,.cls-43{stroke-width:5px;}.cls-14,.cls-2,.cls-28,.cls-46{fill:#fff;}.cls-3{fill:#878787;}.cls-4{fill:#424242;}.cls-17,.cls-27,.cls-5{fill:#e6e6e6;}.cls-24,.cls-6{fill:#a5d6e8;}.cls-11,.cls-47,.cls-7{fill:#fff361;}.cls-8{fill:#ccc;}.cls-23,.cls-26,.cls-29,.cls-30,.cls-31,.cls-44,.cls-9{fill:#e77e74;}.cls-10,.cls-21,.cls-33{fill:#74e798;}.cls-12,.cls-20,.cls-34,.cls-36,.cls-40,.cls-41{fill:none;}.cls-13{fill:#69574d;}.cls-15{fill:#fdd0a2;}.cls-16{fill:#b3b3b3;}.cls-18,.cls-24,.cls-26,.cls-30,.cls-31{stroke-miterlimit:10;}.cls-22,.cls-25,.cls-32{fill:#4d4d4d;}.cls-22{stroke:#fff;}.cls-26,.cls-27,.cls-28,.cls-29,.cls-30,.cls-33,.cls-34,.cls-36,.cls-37,.cls-40,.cls-41,.cls-42,.cls-43,.cls-44,.cls-47{stroke:#4c4c4c;}.cls-34{stroke-width:3px;}.cls-35,.cls-45{fill:#9e8354;}.cls-36{stroke-width:4px;}.cls-37{fill:#e76d4f;}.cls-39{fill:#fffffc;}.cls-43{fill:#e79774;}.cls-44,.cls-45,.cls-46,.cls-47{stroke-width:6px;}</style></defs><title>programming</title><rect class="cls-1" x="1330.84" y="310.27" width="148.09" height="287.9" rx="21.24" ry="21.24"/><rect class="cls-2" x="1334.4" y="345.23" width="140.96" height="217.98" rx="3.1" ry="3.1"/><path class="cls-3" d="M1597.33,780.1a2.55,2.55,0,0,1-2.54-2.55V753.44a2.55,2.55,0,0,1,2.54-2.55h25.05a2.55,2.55,0,1,1,0,5.09h-22.5v21.57A2.55,2.55,0,0,1,1597.33,780.1Z" transform="translate(-253.14 -396.12)"/><path class="cls-3" d="M1718.7,780.1a2.55,2.55,0,0,0,2.55-2.55V753.44a2.55,2.55,0,0,0-2.55-2.55h-25a2.55,2.55,0,0,0,0,5.09h22.51v21.57A2.55,2.55,0,0,0,1718.7,780.1Z" transform="translate(-253.14 -396.12)"/><path class="cls-3" d="M1718.7,843.43a2.55,2.55,0,0,1,2.55,2.54v24.12a2.54,2.54,0,0,1-2.55,2.54h-25a2.54,2.54,0,0,1,0-5.08h22.51V846A2.54,2.54,0,0,1,1718.7,843.43Z" transform="translate(-253.14 -396.12)"/><path class="cls-3" d="M1597.33,843.43a2.54,2.54,0,0,0-2.54,2.54v24.12a2.54,2.54,0,0,0,2.54,2.54h25.05a2.54,2.54,0,1,0,0-5.08h-22.5V846A2.55,2.55,0,0,0,1597.33,843.43Z" transform="translate(-253.14 -396.12)"/><path class="cls-4" d="M1631.86,786.86h-21.92a.91.91,0,0,1-.91-.91V766.49a.91.91,0,0,1,.91-.91h21.92a.91.91,0,0,1,.91.91V786A.91.91,0,0,1,1631.86,786.86Zm-21-1.82H1631V767.39h-20.12Z" transform="translate(-253.14 -396.12)"/><rect class="cls-4" x="1362.92" y="375.28" width="9.69" height="9.66" rx="0.63" ry="0.63"/><path class="cls-4" d="M1631.86,858.94h-21.92a.91.91,0,0,1-.91-.91V838.57a.91.91,0,0,1,.91-.91h21.92a.91.91,0,0,1,.91.91V858A.91.91,0,0,1,1631.86,858.94Zm-21-1.81H1631V839.47h-20.12Z" transform="translate(-253.14 -396.12)"/><rect class="cls-4" x="1362.92" y="447.36" width="9.69" height="9.66" rx="0.63" ry="0.63"/><path class="cls-4" d="M1705.32,786.86H1683.4a.9.9,0,0,1-.9-.91V766.49a.9.9,0,0,1,.9-.91h21.92a.91.91,0,0,1,.91.91V786A.91.91,0,0,1,1705.32,786.86Zm-21-1.82h20.11V767.39h-20.11Z" transform="translate(-253.14 -396.12)"/><rect class="cls-4" x="1436.38" y="375.28" width="9.69" height="9.66" rx="0.63" ry="0.63"/><polygon class="cls-4" points="1382.96 369.15 1382.96 371.96 1389.65 371.96 1389.65 378.71 1392.55 378.71 1392.55 375.27 1395.78 375.27 1395.78 369.15 1382.96 369.15"/><rect class="cls-4" x="1382.96" y="375.53" width="2.92" height="3.18"/><polygon class="cls-4" points="1415.64 372.18 1415.64 369.15 1406.06 369.15 1406.06 372.18 1409.26 372.18 1409.26 375.22 1406.06 375.22 1406.06 372.18 1399.36 372.18 1399.36 375.22 1402.45 375.22 1402.45 381.92 1399.36 381.92 1399.36 385.14 1406.24 385.14 1406.24 388.49 1409.05 388.49 1409.05 381.92 1406.06 381.92 1406.06 378.71 1412.48 378.71 1412.48 381.92 1415.64 381.92 1415.64 375.22 1412.48 375.22 1412.48 372.18 1415.64 372.18"/><rect class="cls-4" x="1415.92" y="372.18" width="3.05" height="3.04"/><rect class="cls-4" x="1422.73" y="375.28" width="2.88" height="6.51"/><rect class="cls-4" x="1415.92" y="382.06" width="3.05" height="12.89"/><rect class="cls-4" x="1412.66" y="385.41" width="6.32" height="3.25"/><rect class="cls-4" x="1415.92" y="391.81" width="9.69" height="3.15"/><rect class="cls-4" x="1422.73" y="388.49" width="2.88" height="9.54"/><polygon class="cls-4" points="1396.27 388.66 1396.27 391.81 1392.59 391.81 1392.59 388.49 1395.78 388.49 1395.78 381.79 1399.15 381.79 1399.15 378.82 1395.78 378.82 1392.8 378.82 1392.8 384.93 1382.76 384.93 1382.76 391.6 1385.88 391.6 1385.88 388.49 1389.53 388.49 1389.53 394.95 1399.36 394.95 1399.36 388.66 1396.27 388.66"/><polygon class="cls-4" points="1409.29 388.66 1409.29 391.36 1405.89 391.36 1405.89 388.66 1402.45 388.66 1402.45 395.27 1399.36 395.27 1399.36 401.38 1405.89 401.38 1405.89 394.95 1409.29 394.95 1409.29 398.03 1412.66 398.03 1412.66 394.95 1412.66 391.36 1412.66 388.66 1409.29 388.66"/><polygon class="cls-4" points="1362.7 394.95 1362.7 398.13 1359.33 398.13 1359.33 394.95 1355.91 394.95 1355.91 408 1359.33 408 1359.33 404.68 1366.21 404.68 1366.21 394.95 1362.7 394.95"/><rect class="cls-4" x="1366.41" y="404.7" width="3.02" height="6.6"/><rect class="cls-4" x="1369.43" y="398.27" width="6.63" height="3.2"/><rect class="cls-4" x="1376.06" y="394.95" width="6.7" height="3.15"/><rect class="cls-4" x="1382.76" y="398.1" width="3.33" height="3.38"/><polygon class="cls-4" points="1376.06 401.48 1376.06 404.7 1379.41 404.7 1379.41 407.71 1372.93 407.71 1372.93 414.42 1376.06 414.42 1376.06 411.31 1379.41 411.31 1379.41 414.42 1382.94 414.42 1382.94 401.48 1376.06 401.48"/><rect class="cls-4" x="1369.43" y="414.42" width="3.51" height="3.39"/><rect class="cls-4" x="1376.06" y="414.42" width="3.44" height="3.39"/><polygon class="cls-4" points="1369.42 417.94 1359.49 417.94 1359.49 414.42 1355.91 414.42 1355.91 420.85 1359.49 420.85 1359.49 427.65 1355.91 427.65 1355.91 430.73 1362.9 430.73 1362.9 424.34 1369.42 424.34 1369.42 417.94"/><polygon class="cls-4" points="1366.2 427.55 1366.2 434.19 1356.09 434.19 1356.09 437.19 1369.42 437.19 1369.42 427.55 1366.2 427.55"/><path class="cls-4" d="M1645.69,800.82v-6.6h-3.37v6.6H1639v6.6h-6.44v3.11h3.53v3.39H1639v3.18h-12.91v3.14h-3.26v3.22h6.52v-3.22h3v3.43h-2.81v3.18h2.81v3.35h3.47v-3.35H1639v3.35h3.34V817.06h3.37v-3.14h-3.37v-3.39h6.91v-3.11h-6.91v-3.31h6.91v3.31h6.46v-6.6Zm-9.9,22.85v-3.43H1639v3.43Z" transform="translate(-253.14 -396.12)"/><rect class="cls-4" x="1372.93" y="434.19" width="6.25" height="3.01"/><path class="cls-4" d="M1672.11,794.22h-3v3.37h-9.91v12.94h-9.92v3.39h6.48v3.14h-10v6.5h13.46v6.74h3.22v2.94h-3.1v3.63h-6.74v-3.32h3.16V827h-6.18v3.25h-6.74v3.35h3.09v3.32h-3.4v-3.56h-6.53v6.52h12.92v3.4h3.68v-3.4h3v3.4h-3v3.18h3v3.18h3.69v3.49h2.91v-3.49h3.23v-3l.18-19.67h3.47v-6.64h-3.65v-6.39h-2.84v1.88h-.2v1.26h-3.22v-3.14h3v-3.35h3.41v-3.22h-3.41v-6.69h6.88v3.41h3v-3.41h3.38v-6.44Zm-13.3,52.4v-3.84h3.56v3.84Z" transform="translate(-253.14 -396.12)"/><polygon class="cls-4" points="1389.15 453.54 1389.15 450.43 1386.16 450.43 1386.16 453.54 1382.8 453.54 1382.8 456.91 1386.16 456.91 1386.16 460.18 1382.8 460.18 1382.8 463.39 1389.15 463.39 1389.15 456.91 1392.69 456.91 1392.69 460.04 1395.96 460.04 1395.96 453.54 1389.15 453.54"/><rect class="cls-4" x="1396.24" y="450.43" width="3.09" height="2.97"/><rect class="cls-4" x="1399.32" y="456.97" width="3.25" height="3.01"/><rect class="cls-4" x="1402.58" y="459.97" width="10.01" height="3.42"/><rect class="cls-4" x="1448.91" y="394.95" width="3.16" height="9.64"/><rect class="cls-4" x="1445.79" y="398.34" width="4.35" height="3.04"/><rect class="cls-4" x="1442.24" y="394.95" width="3.33" height="3.08"/><rect class="cls-4" x="1439.05" y="401.38" width="6.53" height="3.21"/><rect class="cls-4" x="1435.65" y="404.6" width="3.4" height="3.32"/><polygon class="cls-4" points="1432.42 394.95 1432.42 398.17 1429.3 398.17 1429.3 401.56 1425.79 401.56 1425.79 407.61 1429.3 407.61 1429.3 404.6 1432.42 404.6 1432.42 401.38 1435.4 401.38 1435.4 394.95 1432.42 394.95"/><polygon class="cls-4" points="1448.91 407.61 1448.91 411.41 1442.32 411.41 1442.32 414.42 1448.91 414.42 1448.91 417.77 1452.25 417.77 1452.25 407.61 1448.91 407.61"/><rect class="cls-4" x="1439.05" y="414.42" width="3.26" height="3.21"/><polygon class="cls-4" points="1448.91 420.95 1448.91 423.92 1442.32 423.92 1442.32 421.12 1439.05 421.12 1439.05 423.92 1439.05 427.53 1442.32 427.53 1448.91 427.53 1448.91 430.7 1452.25 430.7 1452.25 427.53 1452.25 423.92 1452.25 420.95 1448.91 420.95"/><polygon class="cls-4" points="1439.05 417.63 1435.65 417.63 1435.65 408.09 1429.43 408.09 1429.43 411.2 1415.85 411.2 1415.85 417.77 1419.22 417.77 1419.22 420.95 1422.59 420.95 1422.59 414.42 1425.79 414.42 1425.79 420.95 1429.43 420.95 1429.43 423.92 1435.65 423.92 1435.65 420.95 1439.05 420.95 1439.05 417.63"/><rect class="cls-4" x="1415.85" y="420.95" width="3.37" height="3.21"/><rect class="cls-4" x="1438.28" y="443.8" width="4.35" height="3.49"/><path class="cls-4" d="M1692.19,836.66H1699v-3.25h-3.72v-3.07h-6.53v-3.53h-3.23v3.53h-10v-6.69h3.43v3.16h6.56V820h-2.91v.48h-3.65v-3.46h-3.19v3.46h-3.37V827h-3.3v3.39h3.3v2.94H1669V843.4h3.29v3.18h3.59v2.94h-6.81v6.57h6.43v3.7h3.61v-3.7h3.23v-9.51h3.22v2.94h3.16v3.73h-3.16v2.84h3.16v3.42h3.48v-3.42h3.3v-2.84h-3.3v-3.73h3.3v-2.94h-3.3v-9.92Zm-20.22,0h3.9v3.46H1672Zm7,6.16v-9.34h9.79v9.34Z" transform="translate(-253.14 -396.12)"/><rect class="cls-4" x="1429.37" y="460.22" width="2.88" height="3.18"/><rect class="cls-4" x="1428.94" y="440.69" width="3.16" height="3.11"/><rect class="cls-4" x="1445.82" y="434.19" width="2.98" height="3.01"/><polygon class="cls-4" points="1449.12 437.19 1449.12 446.98 1445.82 446.98 1445.82 450.4 1449.12 450.4 1449.12 453.54 1445.82 453.54 1445.82 456.97 1449.12 456.97 1452.56 456.97 1452.56 453.54 1452.56 450.4 1452.56 446.98 1452.56 437.19 1449.12 437.19"/><rect class="cls-4" x="1448.6" y="459.94" width="3.79" height="3.73"/><rect class="cls-1" x="1387.4" y="327.61" width="34.96" height="0.27"/><rect class="cls-5" x="1593.87" y="883.12" width="128.13" height="69.07" rx="1.7" ry="1.7" transform="translate(3062.74 1439.19) rotate(180)"/><path class="cls-6" d="M1622.66,933.56H1644a3,3,0,0,0,3-3h0a3,3,0,0,0-3-3h-21.38a3,3,0,0,0-3,3h0A3,3,0,0,0,1622.66,933.56Z" transform="translate(-253.14 -396.12)"/><path class="cls-7" d="M1656.2,933.56h54.71a3,3,0,0,0,3-3h0a3,3,0,0,0-3-3H1656.2a3,3,0,0,0-3,3h0A3,3,0,0,0,1656.2,933.56Z" transform="translate(-253.14 -396.12)"/><path class="cls-6" d="M1639.25,942.79h18.39a3,3,0,0,0,3-3h0a3,3,0,0,0-3-3h-18.39a3,3,0,0,0-3,3h0A3,3,0,0,0,1639.25,942.79Z" transform="translate(-253.14 -396.12)"/><path class="cls-8" d="M1669.79,942.79h30.66a3,3,0,0,0,3-3h0a3,3,0,0,0-3-3h-30.66a3,3,0,0,0-3,3h0A3,3,0,0,0,1669.79,942.79Z" transform="translate(-253.14 -396.12)"/><path class="cls-9" d="M1605,896.68h14.81a3,3,0,0,0,3-3h0a3,3,0,0,0-3-3H1605a3,3,0,0,0-3,3h0A3,3,0,0,0,1605,896.68Z" transform="translate(-253.14 -396.12)"/><path class="cls-10" d="M1631.92,896.68h35.19a3,3,0,0,0,3-3h0a3,3,0,0,0-3-3h-35.19a3,3,0,0,0-3,3h0A3,3,0,0,0,1631.92,896.68Z" transform="translate(-253.14 -396.12)"/><path class="cls-6" d="M1679.26,896.68h31.65a3,3,0,0,0,3-3h0a3,3,0,0,0-3-3h-31.65a3,3,0,0,0-3,3h0A3,3,0,0,0,1679.26,896.68Z" transform="translate(-253.14 -396.12)"/><path class="cls-8" d="M1605,905.9h106a3,3,0,0,0,3-3h0a3,3,0,0,0-3-3H1605a3,3,0,0,0-3,3h0A3,3,0,0,0,1605,905.9Z" transform="translate(-253.14 -396.12)"/><path class="cls-8" d="M1605,915.12h28.21a3,3,0,0,0,3-3h0a3,3,0,0,0-3-3H1605a3,3,0,0,0-3,3h0A3,3,0,0,0,1605,915.12Z" transform="translate(-253.14 -396.12)"/><path class="cls-6" d="M1645.33,915.12h65.58a3,3,0,0,0,3-3h0a3,3,0,0,0-3-3h-65.58a3,3,0,0,0-3,3h0A3,3,0,0,0,1645.33,915.12Z" transform="translate(-253.14 -396.12)"/><path class="cls-10" d="M1605,924.34H1644a3,3,0,0,0,3-3h0a3,3,0,0,0-3-3H1605a3,3,0,0,0-3,3h0A3,3,0,0,0,1605,924.34Z" transform="translate(-253.14 -396.12)"/><path class="cls-8" d="M1656.2,924.34h39.08a3,3,0,0,0,3-3h0a3,3,0,0,0-3-3H1656.2a3,3,0,0,0-3,3h0A3,3,0,0,0,1656.2,924.34Z" transform="translate(-253.14 -396.12)"/><path class="cls-11" d="M267.73,743.4a12.09,12.09,0,0,0-12.09,12.09v16.9a39.77,39.77,0,0,0,39.76,39.77h10.24V743.4Zm24,54.61a25.92,25.92,0,0,1-22.22-25.62v-15.1h22.22Z" transform="translate(-253.14 -396.12)"/><path class="cls-11" d="M393.15,743.4v68.76H403.4a39.77,39.77,0,0,0,39.76-39.77v-16.9a12.09,12.09,0,0,0-12.1-12.09ZM407,757.29h22.23v15.1A25.92,25.92,0,0,1,407,798Z" transform="translate(-253.14 -396.12)"/><rect class="cls-11" x="65.01" y="516.05" width="62.51" height="12.5"/><rect class="cls-11" x="83.76" y="503.55" width="25" height="12.5"/><rect class="cls-11" x="71.26" y="491.05" width="50.01" height="12.5"/><path class="cls-11" d="M286.89,730.9v43.46c0,27.89,5.19,54.6,26.72,73.83a53.18,53.18,0,0,1,6.9,7.73,41,41,0,0,1,8.05,24.53v6.72h41.67V880.6a40.93,40.93,0,0,1,8.16-24.67,54,54,0,0,1,6.84-7.61c21.51-19.22,26.67-45.91,26.67-73.78V730.9Z" transform="translate(-253.14 -396.12)"/><path class="cls-12" d="M378.29,840.56a63.15,63.15,0,0,0-8.21,9.09" transform="translate(-253.14 -396.12)"/><path class="cls-12" d="M401.49,747.57v27c0,23-3.86,40.09-12.26,53.22" transform="translate(-253.14 -396.12)"/><rect class="cls-13" x="52.51" y="528.55" width="87.51" height="56.26"/><rect class="cls-13" x="33.75" y="584.81" width="125.01" height="12.5"/><rect class="cls-11" x="65.01" y="541.06" width="62.51" height="31.25"/><rect class="cls-11" x="27.5" y="322.28" width="137.52" height="12.5"/><rect class="cls-14" x="397.95" y="168.43" width="249.16" height="65.93"/><path class="cls-15" d="M510.15,576.23h2.72a10.84,10.84,0,0,1-10.82-11.56,11.08,11.08,0,0,1,11.19-10.12h36.52l7.51.17c-.16-.3-.3-.6-.44-.9-5.42-12.45-8.71-23.29-8.5-31.27.26-10.39,3.21-15.38,6.94-17.34a10,10,0,0,1,3-1.22c3.79-.8,9.85.62,11.8,5.91s4.67,15.28,11.44,27.33a39.54,39.54,0,0,0,5.53,7.85c2.53,2.91,5.35,3.65,11.24,7.73s9.64,8.05,12.28,12.58h32.89A2.59,2.59,0,0,1,646,568v59.87a2.59,2.59,0,0,1-2.58,2.59H610.57a21.7,21.7,0,0,1-18.73,10.84h-60a11.08,11.08,0,0,1-11.19-10.12,10.84,10.84,0,0,1,10.82-11.56H521.14A11.08,11.08,0,0,1,510,609.48a10.84,10.84,0,0,1,10.82-11.57h-11A10.84,10.84,0,0,1,499,586.35,11.08,11.08,0,0,1,510.15,576.23Z" transform="translate(-253.14 -396.12)"/><line class="cls-2" x1="251.97" y1="180.12" x2="276.97" y2="180.12"/><line class="cls-2" x1="262.81" y1="201.8" x2="278.37" y2="201.8"/><line class="cls-2" x1="273.65" y1="223.48" x2="280.84" y2="223.48"/><rect class="cls-14" x="597.26" y="581.65" width="86.73" height="32.52" rx="8" ry="8" transform="translate(985.4 -438.82) rotate(90)"/><path class="cls-16" d="M886.6,973.79h48.58a63.54,63.54,0,0,0,63.53-63.53V890.69h95v19.57a63.54,63.54,0,0,0,63.53,63.53h48.59a6.59,6.59,0,0,1,6.59,6.59v10.55a6.59,6.59,0,0,1-6.59,6.6H886.6a6.59,6.59,0,0,1-6.6-6.6V980.38A6.59,6.59,0,0,1,886.6,973.79Z" transform="translate(-253.14 -396.12)"/><rect class="cls-17" x="701.94" y="449.11" width="688.5" height="462.96" rx="26.38" ry="26.38" transform="translate(1839.25 965.06) rotate(180)"/><rect class="cls-1" x="737.55" y="484.72" width="617.28" height="332.38" rx="6.59" ry="6.59" transform="translate(1839.25 905.7) rotate(180)"/><rect class="cls-17" x="880" y="973.79" width="332.38" height="23.74" rx="6.59" ry="6.59" transform="translate(1839.25 1575.2) rotate(180)"/><path class="cls-2" d="M1545.82,574.27h-3.38a2.45,2.45,0,0,1-2.36-1.85,35.28,35.28,0,0,0-3.69-8.91,2.44,2.44,0,0,1,.36-3l2.39-2.39a2.43,2.43,0,0,0,0-3.44l-6.52-6.51a2.43,2.43,0,0,0-3.44,0l-2.39,2.39a2.45,2.45,0,0,1-3,.36,34.62,34.62,0,0,0-8.91-3.69,2.46,2.46,0,0,1-1.84-2.36v-3.38a2.44,2.44,0,0,0-2.44-2.44h-9.21a2.43,2.43,0,0,0-2.43,2.44v3.38a2.46,2.46,0,0,1-1.85,2.36,34.77,34.77,0,0,0-8.91,3.69,2.45,2.45,0,0,1-3-.36l-2.39-2.39a2.43,2.43,0,0,0-3.44,0l-6.51,6.51a2.43,2.43,0,0,0,0,3.44l2.39,2.39a2.45,2.45,0,0,1,.36,3,34.91,34.91,0,0,0-3.69,8.91,2.46,2.46,0,0,1-2.36,1.85h-3.38a2.43,2.43,0,0,0-2.44,2.43v9.22a2.43,2.43,0,0,0,2.44,2.43h3.38a2.45,2.45,0,0,1,2.36,1.85,34.7,34.7,0,0,0,3.69,8.9,2.45,2.45,0,0,1-.36,3l-2.39,2.4a2.42,2.42,0,0,0,0,3.43l6.51,6.52a2.43,2.43,0,0,0,3.44,0l2.39-2.39a2.45,2.45,0,0,1,3-.36,35.13,35.13,0,0,0,8.91,3.69,2.45,2.45,0,0,1,1.85,2.36v3.38a2.43,2.43,0,0,0,2.43,2.43h9.21a2.43,2.43,0,0,0,2.44-2.43v-3.38a2.44,2.44,0,0,1,1.84-2.36,35,35,0,0,0,8.91-3.69,2.45,2.45,0,0,1,3,.36l2.39,2.39a2.43,2.43,0,0,0,3.44,0l6.52-6.52a2.42,2.42,0,0,0,0-3.43l-2.39-2.4a2.43,2.43,0,0,1-.36-3,35.06,35.06,0,0,0,3.69-8.9,2.44,2.44,0,0,1,2.36-1.85h3.38a2.43,2.43,0,0,0,2.43-2.43V576.7A2.43,2.43,0,0,0,1545.82,574.27ZM1505.15,598a16.67,16.67,0,1,1,17.52-17.52A16.74,16.74,0,0,1,1505.15,598Z" transform="translate(-253.14 -396.12)"/><path class="cls-11" d="M1658,457.38h0A70.64,70.64,0,0,0,1587.38,528h0a70.4,70.4,0,0,0,11.47,38.62,199,199,0,0,1,22.31,45.13h0a6.71,6.71,0,0,0,6.35,4.56h61a6.72,6.72,0,0,0,6.36-4.56h0a199.4,199.4,0,0,1,22.3-45.13A70.32,70.32,0,0,0,1728.66,528h0A70.64,70.64,0,0,0,1658,457.38Z" transform="translate(-253.14 -396.12)"/><path class="cls-12" d="M1711.42,551.61a57.58,57.58,0,0,1-4.52,8.3q-1.45,2.24-2.85,4.48" transform="translate(-253.14 -396.12)"/><path class="cls-12" d="M1658,469.66A58.43,58.43,0,0,1,1716.38,528" transform="translate(-253.14 -396.12)"/><path class="cls-18" d="M1689.28,637.8h-62.52a5.22,5.22,0,0,1-5.22-5.22h0a5.22,5.22,0,0,1,5.22-5.21h62.52a5.21,5.21,0,0,1,5.21,5.21h0A5.22,5.22,0,0,1,1689.28,637.8Z" transform="translate(-253.14 -396.12)"/><path class="cls-18" d="M1684.26,659h-52.49a5.22,5.22,0,0,1-5.21-5.22h0a5.21,5.21,0,0,1,5.21-5.21h52.49a5.22,5.22,0,0,1,5.22,5.21h0A5.22,5.22,0,0,1,1684.26,659Z" transform="translate(-253.14 -396.12)"/><path class="cls-19" d="M1391,264.41h27.86a0,0,0,0,1,0,0v.75a6.62,6.62,0,0,1-6.62,6.62h-14.61a6.62,6.62,0,0,1-6.62-6.62v-.75A0,0,0,0,1,1391,264.41Z"/><polyline class="cls-20" points="1393.11 220.21 1393.11 190.78 1369.56 137.8 1381.34 144 1393.11 126.34 1416.66 149.89 1428.43 132.23 1440.2 137.8 1416.66 190.78 1416.66 220.21"/><line class="cls-12" x1="1404.88" y1="38.04" x2="1404.88" y2="2.5"/><line class="cls-12" x1="1451.98" y1="50.66" x2="1458.52" y2="39.33"/><line class="cls-12" x1="1486.45" y1="85.13" x2="1517.23" y2="67.36"/><line class="cls-12" x1="1499.07" y1="132.23" x2="1512.15" y2="132.23"/><line class="cls-12" x1="1357.79" y1="50.66" x2="1351.25" y2="39.33"/><line class="cls-12" x1="1323.31" y1="85.13" x2="1292.54" y2="67.36"/><line class="cls-12" x1="1310.69" y1="132.23" x2="1297.61" y2="132.23"/><path class="cls-17" d="M1290.84,967.53h69a0,0,0,0,1,0,0v6.67a20,20,0,0,1-20,20h-29a20,20,0,0,1-20-20v-6.67A0,0,0,0,1,1290.84,967.53Z" transform="translate(2397.54 1565.61) rotate(180)"/><circle class="cls-17" cx="1095.32" cy="499.92" r="56.38"/><polygon class="cls-21" points="1151.7 443.53 1095.32 499.92 1071.15 475.75 1055.05 491.86 1095.32 532.14 1167.81 459.64 1151.7 443.53"/><polygon class="cls-22" points="997.28 343.38 990.4 381.96 1002.96 377.18 1012.53 402.31 1025.09 397.52 1015.52 372.4 1028.09 367.62 997.28 343.38"/><rect class="cls-10" x="718.02" y="128.51" width="148.31" height="8.63" rx="3" ry="3"/><rect class="cls-8" x="580.98" y="141.6" width="76.08" height="8.63" rx="3" ry="3"/><rect class="cls-6" x="874.95" y="128.51" width="130.18" height="8.63" rx="3" ry="3"/><rect class="cls-10" x="748.67" y="154.69" width="81.71" height="8.63" rx="3" ry="3"/><rect class="cls-10" x="665.68" y="141.6" width="112.94" height="8.63" rx="3" ry="3"/><rect class="cls-8" x="787.25" y="141.6" width="127.98" height="8.63" rx="3" ry="3"/><rect class="cls-6" x="923.73" y="141.6" width="81.4" height="8.63" rx="3" ry="3"/><rect class="cls-8" x="580.98" y="154.69" width="159.06" height="8.63" rx="3" ry="3"/><rect class="cls-9" x="580.98" y="128.51" width="128.41" height="8.63" rx="3" ry="3"/><rect class="cls-8" x="636.4" y="167.79" width="50.33" height="8.63" rx="3" ry="3"/><rect class="cls-7" x="695.36" y="167.79" width="172.37" height="8.63" rx="3" ry="3"/><rect class="cls-6" x="876.36" y="167.79" width="128.78" height="8.63" rx="3" ry="3"/><rect class="cls-8" x="690.46" y="193.97" width="57.59" height="8.63" rx="3" ry="3"/><rect class="cls-6" x="756.67" y="193.97" width="164.05" height="8.63" rx="3" ry="3"/><rect class="cls-8" x="663.86" y="180.88" width="67.45" height="8.63" rx="3" ry="3"/><rect class="cls-6" x="739.94" y="180.88" width="205.45" height="8.63" rx="3" ry="3"/><rect class="cls-10" x="629.36" y="324.94" width="71.34" height="8.63" rx="3" ry="3"/><rect class="cls-6" x="709.39" y="324.94" width="136.6" height="8.63" rx="3" ry="3"/><rect class="cls-8" x="580.98" y="338.03" width="23.92" height="8.63" rx="3" ry="3"/><rect class="cls-7" x="643.03" y="351.12" width="187.36" height="8.63" rx="3" ry="3"/><rect class="cls-10" x="613.53" y="338.03" width="165.1" height="8.63" rx="3" ry="3"/><rect class="cls-8" x="787.25" y="338.03" width="127.98" height="8.63" rx="3" ry="3"/><rect class="cls-8" x="580.98" y="351.12" width="53.42" height="8.63" rx="3" ry="3"/><rect class="cls-9" x="580.98" y="324.94" width="39.76" height="8.63" rx="3" ry="3"/><rect class="cls-8" x="636.4" y="364.22" width="38" height="8.63" rx="3" ry="3"/><rect class="cls-6" x="812.36" y="364.22" width="38" height="8.63" rx="3" ry="3"/><rect class="cls-6" x="890.36" y="377.31" width="38" height="8.63" rx="3" ry="3"/><rect class="cls-7" x="700.39" y="377.31" width="181.34" height="8.63" rx="3" ry="3"/><rect class="cls-10" x="683.03" y="364.22" width="120.7" height="8.63" rx="3" ry="3"/><rect class="cls-8" x="690.46" y="390.4" width="33.61" height="8.63" rx="3" ry="3"/><rect class="cls-6" x="732.69" y="390.4" width="188.03" height="8.63" rx="3" ry="3"/><rect class="cls-8" x="663.86" y="377.31" width="27.87" height="8.63" rx="3" ry="3"/><rect class="cls-10" x="718.02" y="220.15" width="205.72" height="8.63" rx="3" ry="3"/><rect class="cls-8" x="580.98" y="233.25" width="76.08" height="8.63" rx="3" ry="3"/><rect class="cls-6" x="932.36" y="220.15" width="72.78" height="8.63" rx="3" ry="3"/><rect class="cls-6" x="748.67" y="246.34" width="81.71" height="8.63" rx="3" ry="3"/><rect class="cls-10" x="665.68" y="233.25" width="112.94" height="8.63" rx="3" ry="3"/><rect class="cls-6" x="787.25" y="233.25" width="158.14" height="8.63" rx="3" ry="3"/><rect class="cls-6" x="954.03" y="233.25" width="51.11" height="8.63" rx="3" ry="3"/><rect class="cls-7" x="580.98" y="246.34" width="159.06" height="8.63" rx="3" ry="3"/><rect class="cls-9" x="580.98" y="220.15" width="128.41" height="8.63" rx="3" ry="3"/><rect class="cls-7" x="636.4" y="259.43" width="231.33" height="8.63" rx="3" ry="3"/><rect class="cls-6" x="876.36" y="259.43" width="128.78" height="8.63" rx="3" ry="3"/><rect class="cls-7" x="690.46" y="285.61" width="81.71" height="8.63" rx="3" ry="3"/><rect class="cls-8" x="780.8" y="285.61" width="139.93" height="8.63" rx="3" ry="3"/><rect class="cls-8" x="663.86" y="272.52" width="67.45" height="8.63" rx="3" ry="3"/><rect class="cls-6" x="739.94" y="272.52" width="205.45" height="8.63" rx="0.02" ry="0.02"/><rect class="cls-8" x="740.96" y="311.8" width="26.61" height="8.63" rx="3" ry="3"/><rect class="cls-6" x="776.19" y="311.8" width="195.03" height="8.63" rx="3" ry="3"/><rect class="cls-8" x="714.36" y="298.71" width="35.75" height="8.63" rx="3" ry="3"/><rect class="cls-8" x="758.73" y="298.71" width="237.16" height="8.63" rx="3" ry="3"/><path class="cls-23" d="M1356.51,508.86h0a49.59,49.59,0,0,0-60,24.87l-21.57,43.14,47.6-6.8Z" transform="translate(-253.14 -396.12)"/><path class="cls-23" d="M1410.92,563.27h0a49.59,49.59,0,0,1-24.87,60l-43.14,21.57,6.8-47.61Z" transform="translate(-253.14 -396.12)"/><path class="cls-14" d="M1336.11,583.67l-8-8a10.91,10.91,0,0,1-2-12.57l32.38-64.75a153.73,153.73,0,0,1,147.73-84.64h0a153.75,153.75,0,0,1-84.64,147.73l-64.76,32.37a10.88,10.88,0,0,1-12.57-2Z" transform="translate(-253.14 -396.12)"/><path class="cls-23" d="M1458.52,461.26a67,67,0,0,0,37.27,18.91,153.4,153.4,0,0,0,10.34-66.51h0A153.42,153.42,0,0,0,1439.61,424,67.08,67.08,0,0,0,1458.52,461.26Z" transform="translate(-253.14 -396.12)"/><circle class="cls-24" cx="1171.39" cy="99.15" r="28.85"/><path class="cls-12" d="M1445.16,495.26a20.76,20.76,0,0,1-9,17.07" transform="translate(-253.14 -396.12)"/><path class="cls-23" d="M1323.52,584.68h0c-32.59,1.67-65.81,32.33-71.2,65.72L1249,670.75l20.36-3.29c33.38-5.39,64-38.61,65.72-71.19h0Z" transform="translate(-253.14 -396.12)"/><path class="cls-11" d="M1322.51,597.27h0c-17.28,1.47-33.19,14.92-38,32.16l-2.28,8.14,8.14-2.28c17.23-4.83,30.69-20.74,32.15-38Z" transform="translate(-253.14 -396.12)"/><rect class="cls-14" x="88.98" y="154.23" width="134.34" height="134.34" rx="13.86" ry="13.86"/><path class="cls-23" d="M102.84,154.23H209.46a13.86,13.86,0,0,1,13.86,13.86V193.3a0,0,0,0,1,0,0H89a0,0,0,0,1,0,0V168.09A13.86,13.86,0,0,1,102.84,154.23Z"/><line class="cls-12" x1="103.94" y1="225.55" x2="103.94" y2="207.68"/><line class="cls-12" x1="103.94" y1="241.26" x2="103.94" y2="236.74"/><rect class="cls-1" x="123.47" y="142.04" width="10.65" height="26.52" rx="2.85" ry="2.85"/><rect class="cls-1" x="178.18" y="142.04" width="10.65" height="26.52" rx="2.85" ry="2.85"/><path class="cls-25" d="M375.85,644.66h7.85a8.51,8.51,0,0,0,3,6.1,10.44,10.44,0,0,0,6.82,2.14,10.34,10.34,0,0,0,7.48-2.71,11,11,0,0,0,1.29-13,8.76,8.76,0,0,0-3.92-3.36,19.1,19.1,0,0,0-5.3-1.37,13.61,13.61,0,0,0-5.65.49v-1.52l12.05-17.92H378v-7.17h33.79v1.37L398.27,627a13.36,13.36,0,0,1,10.14,4.92,16.37,16.37,0,0,1,3.82,10.79,17.57,17.57,0,0,1-5,12.81q-5,5.12-13.53,5.11a18.38,18.38,0,0,1-12.44-4.27A16,16,0,0,1,375.85,644.66Z" transform="translate(-253.14 -396.12)"/><path class="cls-25" d="M429.62,613.32h-8.55v-7h17.09v46.52h9.91v6.87H419.85v-6.87h9.77Z" transform="translate(-253.14 -396.12)"/><path class="cls-26" d="M475.81,965.73H622.49a1,1,0,0,1,1,1v6.15A20.52,20.52,0,0,1,603,993.43H496.32a20.52,20.52,0,0,1-20.52-20.52v-7.18A0,0,0,0,1,475.81,965.73Z" transform="translate(846.19 1563.04) rotate(-180)"/><rect class="cls-26" x="531.2" y="919.57" width="36.93" height="46.16" transform="translate(846.19 1489.19) rotate(180)"/><rect class="cls-27" x="508.78" y="801.95" width="18.46" height="120.79" transform="translate(1113.85 1005.87) rotate(153.43)"/><rect class="cls-27" x="522.55" y="686.38" width="18.46" height="123.96" transform="translate(125.5 1257.44) rotate(-135)"/><circle class="cls-26" cx="296.53" cy="523.46" r="18.46"/><circle class="cls-26" cx="228.29" cy="403.15" r="18.46"/><rect class="cls-28" x="592.21" y="688.48" width="27.7" height="18.46" transform="translate(958.98 999.31) rotate(180)"/><circle class="cls-28" cx="681.6" cy="745.91" r="22.74" transform="translate(-412.33 910.17) rotate(-81.26)"/><circle class="cls-26" cx="329" cy="301.89" r="18.46"/><polygon class="cls-29" points="410.24 255.15 361.15 280.81 379.37 375.45 477.55 324.13 410.24 255.15"/><line class="cls-30" x1="431.08" y1="298.54" x2="407.22" y2="274.09"/><line class="cls-30" x1="447.44" y1="315.3" x2="442.14" y2="309.88"/><rect class="cls-31" x="695.4" y="958.39" width="165.41" height="35.44" rx="5" ry="5" transform="translate(1303.08 1556.11) rotate(180)"/><rect class="cls-11" x="720.04" y="922.95" width="165.41" height="35.44" rx="5" ry="5" transform="translate(1352.36 1485.22) rotate(180)"/><rect class="cls-21" x="747.29" y="887.5" width="165.41" height="35.44" rx="5" ry="5" transform="translate(1406.86 1414.33) rotate(180)"/><rect class="cls-24" x="725.69" y="852.06" width="165.41" height="35.44" rx="5" ry="5" transform="translate(1363.65 1343.44) rotate(180)"/><path class="cls-32" d="M790,878.81h-3v-8H778.8v8h-3v-18h3V868H787V860.8h3Z" transform="translate(-253.14 -396.12)"/><path class="cls-32" d="M798,863.45h-5.23V860.8h13.38v2.65h-5.22v15.36H798Z" transform="translate(-253.14 -396.12)"/><path class="cls-32" d="M817.32,870.06l7.31-9.31h1.11v18.06h-3V867.54l-5.2,6.66h-.41l-5.23-6.66v11.27h-3V860.75H810Z" transform="translate(-253.14 -396.12)"/><path class="cls-32" d="M833.23,860.8v15.31H841v2.7H830.22v-18Z" transform="translate(-253.14 -396.12)"/><path class="cls-32" d="M809.23,903.89a8.81,8.81,0,0,1,2.66-6.73,9.1,9.1,0,0,1,6.5-2.51,9.33,9.33,0,0,1,3.46.64,8,8,0,0,1,2.92,2,7.35,7.35,0,0,1,1.75,3.35h-2.88q-1.3-3.24-5.28-3.29a5.75,5.75,0,0,0-4.43,1.81,6.61,6.61,0,0,0-1.69,4.7,6.5,6.5,0,0,0,1.71,4.58,5.74,5.74,0,0,0,4.41,1.85,6,6,0,0,0,3.34-.93,5,5,0,0,0,2-2.67h2.91a7.25,7.25,0,0,1-3,4.72,9.6,9.6,0,0,1-11.77-.88A8.69,8.69,0,0,1,809.23,903.89Z" transform="translate(-253.14 -396.12)"/><path class="cls-32" d="M829,904.58v-2.26h3.56v-3.53h2.34v3.53h3.52v2.26h-3.52v3.53H832.6v-3.53Z" transform="translate(-253.14 -396.12)"/><path class="cls-32" d="M841.34,904.58v-2.26h3.56v-3.53h2.34v3.53h3.52v2.26h-3.52v3.53H844.9v-3.53Z" transform="translate(-253.14 -396.12)"/><path class="cls-32" d="M777.46,940.69a8.81,8.81,0,0,1,2.67-6.73,9.13,9.13,0,0,1,6.5-2.51,9.37,9.37,0,0,1,3.46.65,7.88,7.88,0,0,1,2.92,2,7.31,7.31,0,0,1,1.75,3.34h-2.88c-.88-2.16-2.64-3.25-5.28-3.29a5.77,5.77,0,0,0-4.44,1.82,6.61,6.61,0,0,0-1.68,4.69,6.49,6.49,0,0,0,1.71,4.58,5.72,5.72,0,0,0,4.41,1.86,6,6,0,0,0,3.33-.93,5,5,0,0,0,2-2.68h2.91a7.25,7.25,0,0,1-3,4.72,9.61,9.61,0,0,1-11.77-.87A8.71,8.71,0,0,1,777.46,940.69Z" transform="translate(-253.14 -396.12)"/><path class="cls-32" d="M797,944.55h2.93a2.33,2.33,0,0,0,.73,1.61,3.71,3.71,0,0,0,1.6.91,7,7,0,0,0,2,.26,6.27,6.27,0,0,0,2.95-.64,2.25,2.25,0,0,0,1.22-2.16,2.21,2.21,0,0,0-.3-1.17,2.5,2.5,0,0,0-.67-.78,3.42,3.42,0,0,0-1.09-.46c-.48-.13-.87-.21-1.17-.26s-.74-.09-1.3-.14c-4.38-.38-6.56-2-6.56-4.94a4.67,4.67,0,0,1,2-4,8.06,8.06,0,0,1,4.8-1.42,8.25,8.25,0,0,1,4.75,1.32,4.53,4.53,0,0,1,2,3.91H808a2.21,2.21,0,0,0-.7-1.51,3.45,3.45,0,0,0-1.45-.82,6.7,6.7,0,0,0-1.79-.22,5.24,5.24,0,0,0-2.63.66,2.18,2.18,0,0,0-1.15,2,2,2,0,0,0,.25,1,2.14,2.14,0,0,0,.57.67,3,3,0,0,0,1,.43c.43.12.79.21,1.06.27l1.26.18c.86.1,1.58.2,2.17.3a11.06,11.06,0,0,1,1.86.53A4.84,4.84,0,0,1,810,941a4.09,4.09,0,0,1,1,1.42,5.08,5.08,0,0,1,.4,2.1,4.92,4.92,0,0,1-.63,2.51,4.65,4.65,0,0,1-1.67,1.71,8.9,8.9,0,0,1-2.25.93,10.6,10.6,0,0,1-2.55.31,9.54,9.54,0,0,1-3.44-.52,6.19,6.19,0,0,1-2.71-1.85A4.65,4.65,0,0,1,797,944.55Z" transform="translate(-253.14 -396.12)"/><path class="cls-32" d="M813.65,944.55h2.93a2.33,2.33,0,0,0,.73,1.61,3.71,3.71,0,0,0,1.6.91,6.9,6.9,0,0,0,2,.26,6.2,6.2,0,0,0,2.94-.64,2.25,2.25,0,0,0,1.23-2.16,2.21,2.21,0,0,0-.3-1.17,2.5,2.5,0,0,0-.67-.78,3.42,3.42,0,0,0-1.09-.46c-.48-.13-.87-.21-1.17-.26s-.74-.09-1.3-.14c-4.38-.38-6.57-2-6.57-4.94a4.68,4.68,0,0,1,2-4,8.06,8.06,0,0,1,4.8-1.42,8.25,8.25,0,0,1,4.75,1.32,4.53,4.53,0,0,1,2,3.91h-2.83a2.21,2.21,0,0,0-.7-1.51,3.45,3.45,0,0,0-1.45-.82,6.7,6.7,0,0,0-1.79-.22,5.21,5.21,0,0,0-2.63.66,2.18,2.18,0,0,0-1.15,2,2,2,0,0,0,.25,1,2.14,2.14,0,0,0,.57.67,3,3,0,0,0,1,.43l1.07.27c.27,0,.7.11,1.26.18q1.29.15,2.16.3a10.9,10.9,0,0,1,1.87.53,4.84,4.84,0,0,1,1.58.92,4.09,4.09,0,0,1,1,1.42,5.08,5.08,0,0,1,.4,2.1,4.92,4.92,0,0,1-.63,2.51,4.65,4.65,0,0,1-1.67,1.71,8.9,8.9,0,0,1-2.25.93,10.6,10.6,0,0,1-2.55.31,9.54,9.54,0,0,1-3.44-.52,6.19,6.19,0,0,1-2.71-1.85A4.65,4.65,0,0,1,813.65,944.55Z" transform="translate(-253.14 -396.12)"/><path class="cls-32" d="M758.51,967v12a5.77,5.77,0,0,1-1.94,4.57,7.2,7.2,0,0,1-4.88,1.68,6.89,6.89,0,0,1-4.78-1.68,5.82,5.82,0,0,1-1.88-4.57v-2h2.8v2a3.38,3.38,0,0,0,1.06,2.67,4,4,0,0,0,2.8,1,3.94,3.94,0,0,0,2.79-1,3.41,3.41,0,0,0,1-2.67v-9.37h-3.81V967Z" transform="translate(-253.14 -396.12)"/><path class="cls-32" d="M773.46,981.32h-8.23l-1.75,3.73h-3.14v-.38l8.34-17.76h1.39l8.28,17.76v.38h-3.11Zm-4.09-9.72-3.16,7.2h6.3Z" transform="translate(-253.14 -396.12)"/><path class="cls-32" d="M785.76,979.93h.08l2.37-6.53,2.6-6.36H794v.44l-7.56,17.73h-1.24l-7.64-17.73V967h3.19l2.58,6.23Z" transform="translate(-253.14 -396.12)"/><path class="cls-32" d="M806.3,981.32h-8.24l-1.75,3.73h-3.14v-.38l8.34-17.76h1.39l8.29,17.76v.38h-3.12Zm-4.09-9.72L799,978.8h6.31Z" transform="translate(-253.14 -396.12)"/><circle class="cls-33" cx="1243.78" cy="480.18" r="57.17"/><line class="cls-34" x1="1212.34" y1="433.07" x2="1207.1" y2="426.83"/><line class="cls-34" x1="1189.19" y1="462.6" x2="1178.99" y2="459.68"/><line class="cls-34" x1="1187.72" y1="498.11" x2="1179.89" y2="500.65"/><line class="cls-34" x1="1195.05" y1="513.62" x2="1188.06" y2="517.73"/><line class="cls-34" x1="1185.96" y1="479.53" x2="1175.37" y2="480.18"/><line class="cls-34" x1="1197.07" y1="446.28" x2="1190.25" y2="440.99"/><line class="cls-34" x1="1205.57" y1="478.77" x2="1200.2" y2="478.77"/><line class="cls-34" x1="1208.38" y1="500.27" x2="1203.21" y2="502.05"/><line class="cls-34" x1="1213.13" y1="514.79" x2="1209.87" y2="516.33"/><line class="cls-34" x1="1276.21" y1="514.39" x2="1279.63" y2="515.51"/><line class="cls-34" x1="1208.27" y1="460.35" x2="1203.33" y2="458.66"/><line class="cls-34" x1="1216.2" y1="439.09" x2="1218.62" y2="441.42"/><line class="cls-34" x1="1234.76" y1="442.93" x2="1238.8" y2="445.64"/><line class="cls-34" x1="1238.51" y1="508.2" x2="1232.63" y2="510.85"/><line class="cls-34" x1="1236.84" y1="467.38" x2="1231.3" y2="465.93"/><line class="cls-34" x1="1237.31" y1="488.22" x2="1231.3" y2="489.23"/><line class="cls-34" x1="1231.18" y1="424.4" x2="1229.3" y2="416.35"/><line class="cls-34" x1="1276.85" y1="433.07" x2="1282.42" y2="426.89"/><line class="cls-34" x1="1300" y1="462.6" x2="1307.82" y2="459.73"/><line class="cls-34" x1="1299.88" y1="493.6" x2="1308.21" y2="496"/><line class="cls-34" x1="1292.38" y1="511.96" x2="1298.82" y2="517.35"/><line class="cls-34" x1="1301.47" y1="477.63" x2="1310.01" y2="477.2"/><line class="cls-34" x1="1292.12" y1="446.28" x2="1298.32" y2="441.81"/><line class="cls-34" x1="1283.19" y1="479.53" x2="1288.56" y2="479.53"/><line class="cls-34" x1="1280.81" y1="500.27" x2="1285.98" y2="502.05"/><line class="cls-34" x1="1279.04" y1="459.7" x2="1284.32" y2="457.23"/><line class="cls-34" x1="1272.99" y1="439.09" x2="1270.57" y2="441.42"/><line class="cls-34" x1="1252.89" y1="443.64" x2="1249.15" y2="445.64"/><line class="cls-34" x1="1248.94" y1="508.2" x2="1254.38" y2="510.05"/><line class="cls-34" x1="1248.98" y1="467.02" x2="1254.31" y2="465.93"/><line class="cls-34" x1="1249.45" y1="487.91" x2="1256.32" y2="488.89"/><line class="cls-34" x1="1257.96" y1="423.93" x2="1259.71" y2="416.35"/><rect class="cls-35" x="1447.68" y="921.37" width="98.48" height="16.41" transform="translate(2740.7 1463.03) rotate(180)"/><polygon class="cls-35" points="1202.75 541.67 1284.82 541.67 1268.4 599.12 1219.16 599.12 1202.75 541.67"/><line class="cls-35" x1="1259.21" y1="580.88" x2="1265.2" y2="559.9"/><line class="cls-36" x1="1243.78" y1="436.48" x2="1243.78" y2="511.96"/><path class="cls-36" d="M1485.15,832.59c-29,18.88-23.33,63.43-13,80.38" transform="translate(-253.14 -396.12)"/><path class="cls-36" d="M1508.69,832.59c30.57,19.88,24.08,65,13,80.38" transform="translate(-253.14 -396.12)"/><rect class="cls-17" x="343.69" y="14.56" width="87.6" height="118.88"/><rect class="cls-2" x="356.2" y="58.35" width="25.03" height="25.03"/><rect class="cls-2" x="393.74" y="58.35" width="25.03" height="25.03"/><rect class="cls-2" x="356.2" y="95.9" width="25.03" height="25.03"/><rect class="cls-37" x="393.74" y="95.9" width="25.03" height="25.03"/><rect class="cls-24" x="356.2" y="27.07" width="62.57" height="18.77"/><path class="cls-38" d="M617.9,467.93V466h3v-2.95h2V466h3v1.9h-3v3h-2v-3Z" transform="translate(-253.14 -396.12)"/><path class="cls-38" d="M655.93,464.86l1.34-1.34,2.11,2.11,2.09-2.09,1.39,1.38L660.77,467l2.09,2.09-1.35,1.35-2.09-2.09-2.09,2.09L656,469.06,658,467Z" transform="translate(-253.14 -396.12)"/><path class="cls-38" d="M617.55,505.5v-1.95h8.6v1.95Z" transform="translate(-253.14 -396.12)"/><path class="cls-38" d="M655.09,503.46v-1.94h8.61v1.94Zm0,4.07v-2h8.61v2Z" transform="translate(-253.14 -396.12)"/><rect class="cls-14" x="427.69" y="403.07" width="30.39" height="116.19" transform="translate(647.17 -381.69) rotate(89.52)"/><path class="cls-14" d="M552,471.65l-28.17.24-.19-22.8,28.17-.24a30.4,30.4,0,1,0,.19,22.8Z" transform="translate(-253.14 -396.12)"/><path class="cls-14" d="M339.1,450.64l28.18-.23.19,22.79-28.18.24a30.4,30.4,0,1,0-.19-22.8Z" transform="translate(-253.14 -396.12)"/><polygon class="cls-39" points="426.88 597.37 363.88 597.37 345.88 471.37 444.88 471.37 426.88 597.37"/><polygon class="cls-40" points="426.88 597.37 363.88 597.37 345.88 471.37 444.88 471.37 426.88 597.37"/><line class="cls-41" x1="369.7" y1="532.04" x2="363.88" y2="491.3"/><line class="cls-41" x1="372.73" y1="553.21" x2="372.04" y2="548.43"/><polygon class="cls-42" points="336.88 471.37 336.88 453.37 354.88 453.37 363.88 444.37 426.88 444.37 435.88 453.37 453.88 453.37 453.88 471.37 336.88 471.37"/><rect class="cls-42" x="336.88" y="453.37" width="117" height="18"/><path class="cls-43" d="M1452.53,680.39a25.05,25.05,0,0,0-38.27-31.66h0a20,20,0,0,0-27.3,23.83,20,20,0,0,0-12.32,30.87,25,25,0,0,0,3.51,40.17,20,20,0,0,0,13.07,28.09c0,.21,0,.42,0,.63a20.05,20.05,0,0,0,20,20,20.51,20.51,0,0,0,4.39-.49h0A25.05,25.05,0,0,0,1452.53,759a20,20,0,0,0-2-25.83,25,25,0,0,0,2-29.29,20,20,0,0,0,0-23.52Z" transform="translate(-253.14 -396.12)"/><path class="cls-12" d="M1386.69,726A13,13,0,0,1,1405,744.33" transform="translate(-253.14 -396.12)"/><path class="cls-12" d="M1391.2,747.27a25.06,25.06,0,0,1,0-50.11" transform="translate(-253.14 -396.12)"/><path class="cls-12" d="M1431.29,747.27a25.06,25.06,0,1,1,0,50.11" transform="translate(-253.14 -396.12)"/><path class="cls-12" d="M1431.29,642a25.06,25.06,0,0,1,12.53,46.76" transform="translate(-253.14 -396.12)"/><path class="cls-12" d="M1371.16,692.15a20,20,0,0,1,39.12-6.17" transform="translate(-253.14 -396.12)"/><path class="cls-12" d="M1416.26,752.28a20,20,0,0,1-40.09,0" transform="translate(-253.14 -396.12)"/><path class="cls-12" d="M1431.29,772.32a20,20,0,1,1-40.09,0" transform="translate(-253.14 -396.12)"/><path class="cls-12" d="M1406.24,647.05a20,20,0,0,1,20,20" transform="translate(-253.14 -396.12)"/><path class="cls-12" d="M1456.35,692.15a20,20,0,0,1-20,20" transform="translate(-253.14 -396.12)"/><path class="cls-12" d="M1422.91,732.36a20,20,0,0,1,33.44,14.91" transform="translate(-253.14 -396.12)"/><path class="cls-12" d="M1435.27,674.62a19.46,19.46,0,0,0-8.44,17.18h0a19.47,19.47,0,0,1-9.54,17.88" transform="translate(-253.14 -396.12)"/><path class="cls-43" d="M1467.59,759a25.05,25.05,0,0,0,38.27,31.66h0a19.82,19.82,0,0,0,8,1.68,20,20,0,0,0,19.28-25.51A20.05,20.05,0,0,0,1545.48,736a25,25,0,0,0-3.51-40.17,20.07,20.07,0,0,0-13.08-28.1c0-.21,0-.42,0-.63a20,20,0,0,0-20-20,19.82,19.82,0,0,0-4.39.49h0a25.05,25.05,0,0,0-36.89,32.85,20,20,0,0,0,2,25.83,25,25,0,0,0-2,29.28,20,20,0,0,0,0,23.53Z" transform="translate(-253.14 -396.12)"/><path class="cls-12" d="M1533.42,713.41a13,13,0,0,1-18.32-18.33" transform="translate(-253.14 -396.12)"/><path class="cls-12" d="M1528.91,692.15a25.06,25.06,0,1,1,0,50.11" transform="translate(-253.14 -396.12)"/><path class="cls-12" d="M1488.82,692.15a25.06,25.06,0,0,1,0-50.11" transform="translate(-253.14 -396.12)"/><path class="cls-12" d="M1488.82,797.38a25.06,25.06,0,0,1-12.53-46.76" transform="translate(-253.14 -396.12)"/><path class="cls-12" d="M1549,747.27a20,20,0,0,1-39.11,6.17" transform="translate(-253.14 -396.12)"/><path class="cls-12" d="M1503.86,687.14a20,20,0,1,1,40.08,0" transform="translate(-253.14 -396.12)"/><path class="cls-12" d="M1488.82,667.09a20,20,0,0,1,40.09,0" transform="translate(-253.14 -396.12)"/><path class="cls-12" d="M1513.88,792.37a20.05,20.05,0,0,1-20.05-20" transform="translate(-253.14 -396.12)"/><path class="cls-12" d="M1463.77,747.27a20,20,0,0,1,20-20" transform="translate(-253.14 -396.12)"/><path class="cls-12" d="M1497.21,707.06a20,20,0,0,1-33.44-14.91" transform="translate(-253.14 -396.12)"/><path class="cls-12" d="M1484.84,764.8a19.47,19.47,0,0,0,8.45-17.18h0a19.45,19.45,0,0,1,9.54-17.88" transform="translate(-253.14 -396.12)"/><rect class="cls-44" x="27.86" y="91.32" width="36" height="144"/><rect class="cls-44" x="39.98" y="91.32" width="11.75" height="144"/><path class="cls-45" d="M285,442.44h28a0,0,0,0,1,0,0v18.5a8.5,8.5,0,0,1-8.5,8.5h-11a8.5,8.5,0,0,1-8.5-8.5v-18.5A0,0,0,0,1,285,442.44Z" transform="translate(344.85 515.76) rotate(180)"/><polygon class="cls-46" points="63.86 235.32 45.86 280.32 27.86 235.32 63.86 235.32"/><path class="cls-44" d="M299,649.44a26.92,26.92,0,0,0-10,1.93l10,25.07,10-25.07A26.93,26.93,0,0,0,299,649.44Z" transform="translate(-253.14 -396.12)"/><rect class="cls-47" x="280.99" y="460.44" width="36" height="27" transform="translate(344.85 551.76) rotate(180)"/><path class="cls-14" d="M948.43,474.22a23.38,23.38,0,0,0-20.95-33.78,23.66,23.66,0,0,0-4.87.5,56.15,56.15,0,0,0-97.41-9.09,18.71,18.71,0,0,0-23.49,13.49A37.42,37.42,0,0,0,805.85,520H941.51a23.39,23.39,0,0,0,6.92-45.74Z" transform="translate(-253.14 -396.12)"/><path class="cls-12" d="M808.42,464.59a18.72,18.72,0,0,1,11.46-33.51" transform="translate(-253.14 -396.12)"/><path class="cls-12" d="M941.51,473.18a23.39,23.39,0,0,1,0,46.78" transform="translate(-253.14 -396.12)"/><path class="cls-12" d="M909.89,448.41a23.39,23.39,0,0,1,41,15.42" transform="translate(-253.14 -396.12)"/></svg>